<svg width="377" height="64" viewBox="0 0 377 64" fill="none" xmlns="http://www.w3.org/2000/svg">
<g clip-path="url(#clip0_2200_4462)">
<path d="M184.668 10.0003C184.668 12.9458 187.055 15.3336 190.001 15.3336C192.947 15.3336 195.334 12.9458 195.334 10.0003C195.334 7.0548 192.947 4.66699 190.001 4.66699C187.055 4.66699 184.668 7.0548 184.668 10.0003ZM184.668 58.0003C184.668 60.9458 187.055 63.3336 190.001 63.3336C192.947 63.3336 195.334 60.9458 195.334 58.0003C195.334 55.0548 192.947 52.667 190.001 52.667C187.055 52.667 184.668 55.0548 184.668 58.0003ZM189.001 10.0003V58.0003H191.001V10.0003H189.001Z" fill="#D8D8D8"/>
<path d="M1.5 10.9985C123.5 73.4998 113 -18.0031 190 10.9985C267 40.0001 258.5 -17.9994 375.5 18.4981" stroke="#C9C9CA" stroke-width="2" stroke-miterlimit="10" stroke-linecap="round" stroke-dasharray="10 10"/>
<path d="M190 20C195.523 20 200 15.5229 200 10C200 4.47716 195.523 0 190 0C184.477 0 180 4.47716 180 10C180 15.5229 184.477 20 190 20Z" fill="#D8D8D8"/>
</g>
<defs>
<clipPath id="clip0_2200_4462">
<rect width="377" height="64" fill="white"/>
</clipPath>
</defs>
</svg>
