<svg width="377" height="69" viewBox="0 0 377 69" fill="none" xmlns="http://www.w3.org/2000/svg">
<g clip-path="url(#clip0_2202_4466)">
<path d="M184.668 15.0003C184.668 17.9458 187.055 20.3336 190.001 20.3336C192.947 20.3336 195.334 17.9458 195.334 15.0003C195.334 12.0548 192.947 9.66699 190.001 9.66699C187.055 9.66699 184.668 12.0548 184.668 15.0003ZM184.668 63.0003C184.668 65.9458 187.055 68.3336 190.001 68.3336C192.947 68.3336 195.334 65.9458 195.334 63.0003C195.334 60.0548 192.947 57.667 190.001 57.667C187.055 57.667 184.668 60.0548 184.668 63.0003ZM189.001 15.0003V63.0003H191.001V15.0003H189.001Z" fill="#D8D8D8"/>
<path d="M1.5 23.9986C114 -41.0149 72.5 62.4991 190 15.9986C260.667 -11.9679 268.5 62.4991 375.5 15.9986" stroke="#C9C9CA" stroke-width="2" stroke-miterlimit="10" stroke-linecap="round" stroke-dasharray="10 10"/>
<path d="M190 25C195.523 25 200 20.5229 200 15C200 9.47716 195.523 5 190 5C184.477 5 180 9.47716 180 15C180 20.5229 184.477 25 190 25Z" fill="#D8D8D8"/>
</g>
<defs>
<clipPath id="clip0_2202_4466">
<rect width="377" height="69" fill="white"/>
</clipPath>
</defs>
</svg>
