<svg width="292" height="292" viewBox="0 0 292 292" fill="none" xmlns="http://www.w3.org/2000/svg">
<path opacity="0.2" d="M292 146.008C292 226.641 226.641 292 146.008 292C65.3589 292 0 226.641 0 146.008C0 65.3753 65.3589 0 145.992 0C226.625 0 292 65.3589 292 146.008Z" fill="#008BF5"/>
<path opacity="0.2" d="M275.756 146.008C275.756 217.671 217.672 275.771 146.01 275.771C74.3469 275.771 16.2629 217.687 16.2629 146.008C16.2629 74.3456 74.3634 16.2451 146.01 16.2451C217.656 16.2451 275.756 74.3291 275.756 146.008Z" fill="#008BF5"/>
<path d="M252.533 146.008C252.533 204.85 204.835 252.548 145.994 252.548C87.1525 252.548 39.4542 204.85 39.4542 146.008C39.4542 87.1673 87.1525 39.469 145.994 39.469C204.835 39.4525 252.533 87.1509 252.533 146.008Z" fill="#008BF5"/>
<path d="M199.681 98.4263C198.743 96.7146 196.571 100.401 197.854 101.224C199.105 102.047 201.163 101.126 199.681 98.4263Z" fill="#65EED4"/>
<path d="M181.002 102.196C177.299 101.587 172.855 102.707 171.143 104.682C169.431 106.657 164.954 108.27 161.185 108.27H160.807C157.038 108.253 153.96 111.331 153.943 115.1L153.894 141.682C153.894 145.451 156.955 148.529 160.724 148.529L175.669 148.561C179.438 148.561 182.977 151.623 183.553 155.343L185.545 168.312C186.121 172.032 186.812 178.155 187.075 181.908L188.82 205.971C189.1 209.723 191.404 210.513 193.939 207.732L228.684 169.711C231.219 166.93 231.449 162.19 229.194 159.178L228.865 158.733C226.61 155.721 224.487 150.191 224.141 146.438L222.94 133.304C222.594 129.568 219.878 124.597 216.916 122.276L199.239 108.484C196.276 106.163 190.812 103.776 187.092 103.167L181.002 102.196Z" fill="#65EED4"/>
<path d="M206.004 208.669C204.869 207.912 206.037 205.015 208.588 202.25L218.184 191.831C220.735 189.066 223.665 187.568 224.702 188.507C225.739 189.445 224.488 192.473 221.92 195.222L212.736 205.048C210.152 207.797 207.123 209.426 206.004 208.669Z" fill="#65EED4"/>
<path d="M78.0654 116.795C75.004 118.079 71.1361 121.881 69.4408 125.239L66.5605 130.967C64.8652 134.324 64.5196 139.986 65.7704 143.525L69.1116 152.923C70.3625 156.462 70.7082 162.37 69.8852 166.041L64.8981 188.014C64.0587 191.684 64.9639 197.329 66.8897 200.572L68.8812 203.897C70.8069 207.139 72.7655 206.728 73.2264 202.991L73.7202 199.041C74.181 195.305 76.8803 190.219 79.7113 187.734L90.1792 178.517C93.0102 176.031 97.9808 173.628 101.207 173.184C104.449 172.74 108.696 169.744 110.638 166.518L114.094 160.79C116.036 157.564 115.641 152.577 113.238 149.697L88.056 119.676C85.5871 116.812 81.1103 115.512 78.0654 116.795Z" fill="#65EED4"/>
<path d="M120.844 62.4308L119.873 53.3783C119.461 49.6421 117.602 46.9922 115.709 47.5189C113.816 48.0291 112.516 47.6505 112.795 46.663C112.894 46.3338 112.812 45.7742 112.614 45.1323C109.537 46.054 106.508 47.1074 103.546 48.2925C103.381 48.8356 103.266 49.2635 103.2 49.5433C102.92 50.5967 100.616 53.1973 98.0482 55.3534C95.4806 57.4931 93.8511 57.6083 94.4107 55.5838C94.6741 54.6292 94.1968 53.7239 93.2421 53.0491C79.0215 60.538 66.4633 71.1705 56.7195 84.3542C55.8801 87.3333 55.304 90.6745 55.2876 93.1269V94.3942C55.2711 98.1634 57.2462 103.578 59.6986 106.426L64.9655 112.565C67.4179 115.412 69.4259 114.672 69.4424 110.903V105.29C69.4424 101.521 67.8458 98.2786 65.8707 98.0811C63.8957 97.8836 62.941 96.0237 63.7311 93.9663C64.5211 91.9089 67.0393 90.1314 69.3107 89.9997C71.582 89.8845 74.413 90.8556 75.5651 92.1723C76.7337 93.4726 78.9886 92.2217 80.5522 89.3907C82.1323 86.5433 85.7533 82.231 88.6007 79.7622L101.044 69.0802C103.908 66.6278 109.191 65.5086 112.795 66.5949L115.034 67.2697C118.638 68.356 121.255 66.1834 120.844 62.4308Z" fill="#65EED4"/>
<path d="M146.502 45.9719C147.869 44.4247 148.527 42.5155 148.543 40.705C144.873 40.5239 141.219 40.5404 137.582 40.7379C137.318 42.5813 137.615 44.5728 138.536 46.1858C140.232 49.1155 143.655 49.1978 146.14 46.3833L146.502 45.9719Z" fill="#65EED4"/>
<path d="M245.835 114.278C245.045 115.265 244.469 116.352 244.255 117.388C243.695 120.055 242.494 121.964 241.605 121.668C240.7 121.372 239.975 118.047 239.992 114.278L240.008 107.036C240.008 104.945 239.86 102.147 239.597 99.4316C235.35 91.1198 230.051 83.3512 223.796 76.3725C222.117 77.393 220.554 78.4464 219.5 79.3187C217.311 81.1127 213.74 81.8534 211.567 80.9646C209.411 80.0594 208.967 78.7262 210.612 77.9855C212.258 77.2613 214.299 74.957 215.122 72.8832C215.534 71.8627 215.863 70.2827 216.027 68.5545C212.801 65.6083 209.345 62.8761 205.724 60.325C204.506 61.1644 203.535 62.1848 203.14 63.1888C202.334 65.2133 202.893 68.4722 204.391 70.4473C205.889 72.4388 204.177 74.776 200.572 75.6648C196.968 76.5536 193.446 74.2493 192.721 70.5625L192.59 69.9041C191.882 66.2173 188.656 64.6372 185.447 66.4313C182.221 68.2088 181.431 72.1426 183.685 75.171L184.015 75.6154C186.253 78.6274 188.047 83.2524 187.965 85.8694C187.899 88.4864 185.71 89.7208 183.126 88.6181C180.525 87.4988 177.513 88.6674 176.427 91.2021C175.341 93.7368 175.588 96.864 176.987 98.1808C178.386 99.4975 180.838 100.567 182.451 100.567C184.064 100.551 186.632 99.3823 188.179 97.9339C189.709 96.5019 193.33 95.0535 196.227 94.7244C199.108 94.4116 202.745 95.7119 204.292 97.6376C205.839 99.5633 206.317 102.032 205.329 103.118C204.358 104.205 203.996 105.884 204.556 106.822C205.115 107.76 206.761 107.957 208.226 107.266C209.691 106.558 212.028 107.266 213.443 108.813C214.859 110.36 217.558 110.69 219.418 109.57C221.278 108.435 225.426 108.435 228.635 109.587C231.845 110.739 231.878 111.595 228.717 111.496C225.541 111.414 224.191 113.521 225.722 116.203C227.236 118.886 228.372 124.17 228.257 127.922L228.043 133.782C227.927 137.551 228.816 143.525 230.034 147.097L230.577 148.71C231.812 152.265 235.564 153.796 238.922 152.101L239.564 151.771C242.938 150.076 244.255 145.978 242.51 142.637L241.407 140.53C239.663 137.205 238.428 134.144 238.642 133.732C238.873 133.321 241.226 135.197 243.86 137.88L246.625 140.711C248.419 142.538 250.164 142.719 251.233 141.485C250.608 132.136 248.765 123.001 245.835 114.278Z" fill="#65EED4"/>
<path d="M84.2066 224.075C83.6306 220.355 80.9971 216.932 78.3637 216.455C75.7302 215.977 73.0968 218.578 72.5042 222.232C72.1257 224.553 72.4549 227.663 73.2614 230.428C77.0799 233.704 81.1452 236.732 85.4575 239.481C85.9019 237.786 86.0171 235.646 85.6879 233.556L84.2066 224.075Z" fill="#65EED4"/>
<path d="M156.117 255.709C155.261 254.869 153.813 254.096 151.953 253.569L137.568 249.586C133.947 248.599 127.972 248.5 124.318 249.389L119.825 250.475C118.245 250.853 117.043 251.742 116.27 252.911C129.651 256.4 143.131 257.24 156.117 255.709Z" fill="#65EED4"/>
<path opacity="0.2" d="M173.81 43.1401C205.691 61.5414 227.153 96.0066 227.153 135.475C227.153 194.317 179.455 242.015 120.614 242.015C111.002 242.015 101.67 240.731 92.7983 238.344C108.451 247.38 126.622 252.549 145.977 252.549C204.819 252.549 252.517 204.85 252.517 146.009C252.533 96.7802 219.154 55.3692 173.81 43.1401Z" fill="#2C2C78"/>
<path opacity="0.1" d="M150.47 89.7354C150.47 71.2848 145.104 54.1509 135.936 39.9468C81.819 45.0326 39.4699 90.5583 39.4699 146.009C39.4699 156.312 40.9677 166.27 43.6999 175.701C50.6785 177.643 58.0028 178.697 65.5575 178.697C112.449 178.68 150.47 138.849 150.47 89.7354Z" fill="white"/>
<path d="M145.991 22.697C77.9983 22.697 22.6794 78.0159 22.6794 146.008C22.6794 214.001 77.9983 269.319 145.991 269.319C213.983 269.319 269.302 214.001 269.302 146.008C269.302 78.0159 213.983 22.697 145.991 22.697ZM25.7573 147.522H85.5366C85.8328 153.793 86.4089 160.097 87.2812 166.434C89.6513 183.617 94.2269 201.064 100.893 218.626H50.199C35.1554 198.809 26.0865 174.203 25.7573 147.522ZM204.634 144.478H147.521V72.6667H192.882C195.055 78.4109 197.096 84.6324 198.841 91.3477C203.285 108.498 205.21 126.307 204.634 144.478ZM147.521 69.6053V25.7584C154.253 25.8407 160.87 26.4661 167.289 27.6347C169.939 30.6961 181.987 45.3941 191.697 69.6218H147.521V69.6053ZM144.476 69.6053H101.42C111.394 44.7357 123.82 29.9061 126.009 27.4043C132.017 26.4003 138.189 25.8407 144.46 25.7584V69.6053H144.476ZM144.476 72.6667V144.478H88.4827C87.9067 126.307 89.8324 108.498 94.2763 91.3477C96.021 84.6324 98.0454 78.4109 100.234 72.6667H144.476ZM91.3631 90.426C86.8204 107.889 84.8453 125.994 85.4213 144.478H25.7573C26.0865 117.485 35.3694 92.5986 50.7586 72.6667H96.9756C94.9182 78.1476 93.0254 84.0728 91.3631 90.426ZM90.3261 166.121C89.4538 159.883 88.8942 153.678 88.5979 147.522H144.476V218.626H104.168C97.3706 200.949 92.7127 183.403 90.3261 166.121ZM144.476 221.687V266.242C138.337 266.159 132.313 265.633 126.421 264.661L126.569 264.579C118.109 250.243 111.032 235.924 105.353 221.687H144.476ZM147.521 221.687H187.78C182.118 235.908 175.057 250.194 166.614 264.497C160.392 265.567 154.023 266.176 147.521 266.258V221.687ZM147.521 218.626V147.522H204.519C204.223 153.678 203.663 159.883 202.791 166.121C200.388 183.387 195.746 200.949 188.949 218.626H147.521ZM205.836 166.434C206.708 160.097 207.284 153.793 207.58 147.522H266.24C265.911 174.203 256.842 198.809 241.782 218.626H192.224C198.89 201.064 203.449 183.617 205.836 166.434ZM207.679 144.478C208.255 125.994 206.28 107.873 201.737 90.426C200.092 84.0893 198.182 78.164 196.141 72.6667H241.223C256.612 92.5986 265.878 117.485 266.224 144.478H207.679ZM238.803 69.6053H194.973C186.826 48.8998 176.901 34.8109 172.012 28.5729C198.66 34.4817 222.015 49.2455 238.803 69.6053ZM121.335 28.2931C116.529 34.3665 106.407 48.5707 98.1442 69.6218H53.1781C70.2626 48.8998 94.1282 33.9879 121.335 28.2931ZM52.6185 221.687H102.078C107.608 235.743 114.504 249.865 122.718 263.987C94.6055 258.456 70.0157 243.1 52.6185 221.687ZM170.564 263.74C178.711 249.7 185.558 235.661 191.056 221.687H239.379C222.245 242.787 198.116 257.996 170.564 263.74Z" fill="#FBBDF3"/>
</svg>
