<svg width="92" height="99" viewBox="0 0 92 99" fill="none" xmlns="http://www.w3.org/2000/svg">
<path opacity="0.6" d="M91.12 95.09C91.12 97.09 89.18 98.72 86.8 98.72H4.32001C1.95001 98.72 0 97.09 0 95.09V3.63C0 1.63 1.94001 0 4.32001 0H86.81C89.18 0 91.13 1.63 91.13 3.63V95.09H91.12Z" fill="#8D8DFB"/>
<path d="M45.56 15.74C27.27 15.74 12.44 30.57 12.44 48.86C12.44 67.15 27.27 81.98 45.56 81.98C63.85 81.98 78.68 67.15 78.68 48.86C78.68 30.57 63.86 15.74 45.56 15.74ZM45.56 73.65C31.87 73.65 20.77 62.55 20.77 48.86C20.77 35.17 31.87 24.07 45.56 24.07C59.25 24.07 70.35 35.17 70.35 48.86C70.35 62.55 59.26 73.65 45.56 73.65Z" fill="#8D8DFB"/>
<path d="M45.56 24.07C45.56 24.07 45.57 24.07 45.56 24.07V15.74C27.27 15.74 12.44 30.57 12.44 48.86H20.77C20.77 35.17 31.87 24.07 45.56 24.07Z" fill="#EABBF0"/>
<path d="M45.56 24.07C50.86 24.07 55.77 25.74 59.81 28.58L64.25 21.51C58.93 17.87 52.5 15.73 45.57 15.73L45.56 24.07Z" fill="#92CAFC"/>
<path d="M64.25 21.51L59.81 28.58C66.19 33.07 70.35 40.47 70.35 48.86C70.35 52.41 69.6 55.78 68.26 58.83L75.89 62.18C77.68 58.1 78.69 53.6 78.69 48.86C78.68 37.5 72.96 27.48 64.25 21.51Z" fill="#A905F0"/>
<path d="M75.89 62.18L68.62 57.98C65.91 64.82 60.26 70.16 53.22 72.44L55.25 80.54C64.5 77.72 72.03 70.94 75.89 62.18Z" fill="#4E49F0"/>
</svg>
