<svg width="97" height="70" viewBox="0 0 97 70" fill="none" xmlns="http://www.w3.org/2000/svg">
<path opacity="0.6" d="M96.56 64.91C96.56 67.43 94.5 69.48 91.99 69.48H4.56995C2.04995 69.48 0 67.42 0 64.91V4.57001C0 2.05001 2.05995 0 4.56995 0H91.99C94.51 0 96.56 2.06001 96.56 4.57001V64.91Z" fill="#8D8DFB"/>
<path d="M45.8799 57.04C45.8799 59.05 44.23 60.7 42.22 60.7H10.21C8.19996 60.7 6.54999 59.05 6.54999 57.04V12.45C6.54999 10.44 8.19996 8.79004 10.21 8.79004H42.22C44.23 8.79004 45.8799 10.44 45.8799 12.45V57.04Z" fill="#FBBDF3"/>
<path d="M31.0307 34.396C34.3721 31.7474 34.9338 26.8916 32.2852 23.5501C29.6366 20.2087 24.7808 19.6471 21.4394 22.2957C18.0979 24.9442 17.5363 29.8001 20.1849 33.1415C22.8335 36.4829 27.6893 37.0446 31.0307 34.396Z" fill="white"/>
<path d="M41.05 49.9199C39.48 43.1699 33.44 38.1299 26.21 38.1299C18.98 38.1299 12.94 43.1699 11.37 49.9199H41.05Z" fill="white"/>
<path d="M76.0699 16.6802H49.54V20.5302H76.0699V16.6802Z" fill="#FBBDF3"/>
<path d="M90.7 24.0002H49.54V27.8503H90.7V24.0002Z" fill="#FBBDF3"/>
<path d="M92.3 43.0101C92.3 46.8301 89.21 49.9201 85.39 49.9201H56.45C52.63 49.9201 49.54 46.8301 49.54 43.0101C49.54 39.1901 52.63 36.1001 56.45 36.1001H85.39C89.2 36.1001 92.3 39.1901 92.3 43.0101Z" fill="#8F8FFF"/>
<path d="M84.18 41.0801H57.65V44.9301H84.18V41.0801Z" fill="#FBBDF3"/>
</svg>
