<svg width="361" height="370" viewBox="0 0 361 370" fill="none" xmlns="http://www.w3.org/2000/svg">
<g clip-path="url(#clip0_2181_4461)">
<path d="M0 0V369.993C0 369.993 72.1724 372.294 115.437 291.196C158.702 210.112 93.6876 138.216 187.499 99.0992C276.001 62.2004 343.236 59.5146 361 0H0Z" fill="#3B3B96"/>
<path d="M65.8653 68.6376L70.292 66.4622L65.8653 64.2868L63.1587 59L60.452 64.2868L56 66.4622L60.452 68.6376L63.1587 73.9244L65.8653 68.6376Z" fill="white"/>
<path d="M201.405 60.0509L208.336 56.6613L201.405 53.2717L197.181 45L192.956 53.2717L186 56.6613L192.956 60.0509L197.181 68.3479L201.405 60.0509Z" fill="#65EED4"/>
<path d="M111.38 195.076L118.311 191.687L111.38 188.297L107.155 180L102.931 188.297L96 191.687L102.931 195.076L107.155 203.348L111.38 195.076Z" fill="#65EED4"/>
</g>
<defs>
<clipPath id="clip0_2181_4461">
<rect width="361" height="370" fill="white"/>
</clipPath>
</defs>
</svg>
