<svg width="82" height="58" viewBox="0 0 82 58" fill="none" xmlns="http://www.w3.org/2000/svg">
    <path
        d="M51.1419 57.3428H30.8594C27.9402 57.3428 25.5664 54.9706 25.5664 52.0534V5.2894C25.5664 2.37224 27.9402 0 30.8594 0H51.1436C54.0627 0 56.4366 2.37224 56.4366 5.2894V52.0534C56.4349 54.9706 54.061 57.3428 51.1419 57.3428ZM30.8594 2.23472C29.1736 2.23472 27.8026 3.60477 27.8026 5.2894V52.0534C27.8026 53.738 29.1736 55.1081 30.8594 55.1081H51.1436C52.8294 55.1081 54.2004 53.738 54.2004 52.0534V5.2894C54.2004 3.60477 52.8294 2.23472 51.1436 2.23472H30.8594Z"
        fill="#316FDC" />
    <path
        d="M78.0051 57.3449H61.9903C59.7885 57.3449 57.9961 55.5537 57.9961 53.3533V24.6888C57.9961 22.4885 59.7885 20.6973 61.9903 20.6973H78.0051C80.2069 20.6973 81.9993 22.4885 81.9993 24.6888V53.3533C81.9993 55.5537 80.2069 57.3449 78.0051 57.3449ZM61.9886 22.9303C61.0184 22.9303 60.2306 23.7193 60.2306 24.6871V53.3516C60.2306 54.3211 61.0201 55.1085 61.9886 55.1085H78.0034C78.9736 55.1085 79.7614 54.3194 79.7614 53.3516V24.6888C79.7614 23.7193 78.9718 22.932 78.0034 22.932H61.9886V22.9303Z"
        fill="#316FDC" />
    <path
        d="M75.274 31.4041H71.6943C71.3004 31.4041 70.9805 31.0843 70.9805 30.6907V27.5122C70.9805 27.1186 71.3004 26.7988 71.6943 26.7988H75.274C75.6679 26.7988 75.9879 27.1186 75.9879 27.5122V30.6907C75.9896 31.0843 75.6697 31.4041 75.274 31.4041Z"
        fill="#316FDC" />
    <path
        d="M68.2974 31.4041H64.7178C64.3239 31.4041 64.0039 31.0843 64.0039 30.6907V27.5122C64.0039 27.1186 64.3239 26.7988 64.7178 26.7988H68.2974C68.6914 26.7988 69.0113 27.1186 69.0113 27.5122V30.6907C69.0113 31.0843 68.6914 31.4041 68.2974 31.4041Z"
        fill="#316FDC" />
    <path
        d="M75.274 37.9334H71.6943C71.3004 37.9334 70.9805 37.6136 70.9805 37.22V34.0415C70.9805 33.6479 71.3004 33.3281 71.6943 33.3281H75.274C75.6679 33.3281 75.9879 33.6479 75.9879 34.0415V37.22C75.9896 37.6136 75.6697 37.9334 75.274 37.9334Z"
        fill="#316FDC" />
    <path
        d="M68.2974 37.9334H64.7178C64.3239 37.9334 64.0039 37.6136 64.0039 37.22V34.0415C64.0039 33.6479 64.3239 33.3281 64.7178 33.3281H68.2974C68.6914 33.3281 69.0113 33.6479 69.0113 34.0415V37.22C69.0113 37.6136 68.6914 37.9334 68.2974 37.9334Z"
        fill="#316FDC" />
    <path
        d="M75.274 44.4607H71.6943C71.3004 44.4607 70.9805 44.141 70.9805 43.7473V40.5689C70.9805 40.1752 71.3004 39.8555 71.6943 39.8555H75.274C75.6679 39.8555 75.9879 40.1752 75.9879 40.5689V43.7473C75.9896 44.141 75.6697 44.4607 75.274 44.4607Z"
        fill="#316FDC" />
    <path
        d="M68.2974 44.4607H64.7178C64.3239 44.4607 64.0039 44.141 64.0039 43.7473V40.5689C64.0039 40.1752 64.3239 39.8555 64.7178 39.8555H68.2974C68.6914 39.8555 69.0113 40.1752 69.0113 40.5689V43.7473C69.0113 44.141 68.6914 44.4607 68.2974 44.4607Z"
        fill="#316FDC" />
    <path
        d="M20.009 57.3449H3.99424C1.79242 57.3449 0 55.5537 0 53.3533V24.6888C0 22.4885 1.79242 20.6973 3.99424 20.6973H20.009C22.2108 20.6973 24.0032 22.4885 24.0032 24.6888V53.3533C24.0032 55.5537 22.2108 57.3449 20.009 57.3449ZM3.99424 22.9303C3.02406 22.9303 2.23622 23.7193 2.23622 24.6871V53.3516C2.23622 54.3211 3.02578 55.1085 3.99424 55.1085H20.009C20.9792 55.1085 21.767 54.3194 21.767 53.3516V24.6888C21.767 23.7193 20.9775 22.932 20.009 22.932H3.99424V22.9303Z"
        fill="#316FDC" />
    <path
        d="M17.2779 31.4041H13.6982C13.3043 31.4041 12.9844 31.0843 12.9844 30.6907V27.5122C12.9844 27.1186 13.3043 26.7988 13.6982 26.7988H17.2779C17.6718 26.7988 17.9918 27.1186 17.9918 27.5122V30.6907C17.9918 31.0843 17.6718 31.4041 17.2779 31.4041Z"
        fill="#316FDC" />
    <path
        d="M10.3014 31.4041H6.72169C6.32777 31.4041 6.00781 31.0843 6.00781 30.6907V27.5122C6.00781 27.1186 6.32777 26.7988 6.72169 26.7988H10.3014C10.6953 26.7988 11.0152 27.1186 11.0152 27.5122V30.6907C11.0169 31.0843 10.697 31.4041 10.3014 31.4041Z"
        fill="#316FDC" />
    <path
        d="M17.2779 37.9334H13.6982C13.3043 37.9334 12.9844 37.6136 12.9844 37.22V34.0415C12.9844 33.6479 13.3043 33.3281 13.6982 33.3281H17.2779C17.6718 33.3281 17.9918 33.6479 17.9918 34.0415V37.22C17.9918 37.6136 17.6718 37.9334 17.2779 37.9334Z"
        fill="#316FDC" />
    <path
        d="M10.3014 37.9334H6.72169C6.32777 37.9334 6.00781 37.6136 6.00781 37.22V34.0415C6.00781 33.6479 6.32777 33.3281 6.72169 33.3281H10.3014C10.6953 33.3281 11.0152 33.6479 11.0152 34.0415V37.22C11.0169 37.6136 10.697 37.9334 10.3014 37.9334Z"
        fill="#316FDC" />
    <path
        d="M17.2779 44.4607H13.6982C13.3043 44.4607 12.9844 44.141 12.9844 43.7473V40.5689C12.9844 40.1752 13.3043 39.8555 13.6982 39.8555H17.2779C17.6718 39.8555 17.9918 40.1752 17.9918 40.5689V43.7473C17.9918 44.141 17.6718 44.4607 17.2779 44.4607Z"
        fill="#316FDC" />
    <path
        d="M10.3014 44.4607H6.72169C6.32777 44.4607 6.00781 44.141 6.00781 43.7473V40.5689C6.00781 40.1752 6.32777 39.8555 6.72169 39.8555H10.3014C10.6953 39.8555 11.0152 40.1752 11.0152 40.5689V43.7473C11.0169 44.141 10.697 44.4607 10.3014 44.4607Z"
        fill="#316FDC" />
    <path
        d="M42.6646 10.7693H39.085C38.691 10.7693 38.3711 10.4496 38.3711 10.0559V6.87745C38.3711 6.4838 38.691 6.16406 39.085 6.16406H42.6646C43.0586 6.16406 43.3785 6.4838 43.3785 6.87745V10.0559C43.3802 10.4496 43.0603 10.7693 42.6646 10.7693Z"
        fill="#316FDC" />
    <path
        d="M35.6842 10.7693H32.1045C31.7106 10.7693 31.3906 10.4496 31.3906 10.0559V6.87745C31.3906 6.4838 31.7106 6.16406 32.1045 6.16406H35.6842C36.0781 6.16406 36.398 6.4838 36.398 6.87745V10.0559C36.398 10.4496 36.0781 10.7693 35.6842 10.7693Z"
        fill="#316FDC" />
    <path
        d="M42.6646 17.2966H39.085C38.691 17.2966 38.3711 16.9769 38.3711 16.5832V13.4048C38.3711 13.0111 38.691 12.6914 39.085 12.6914H42.6646C43.0586 12.6914 43.3785 13.0111 43.3785 13.4048V16.5832C43.3802 16.9769 43.0603 17.2966 42.6646 17.2966Z"
        fill="#316FDC" />
    <path
        d="M35.6842 17.2966H32.1045C31.7106 17.2966 31.3906 16.9769 31.3906 16.5832V13.4048C31.3906 13.0111 31.7106 12.6914 32.1045 12.6914H35.6842C36.0781 12.6914 36.398 13.0111 36.398 13.4048V16.5832C36.398 16.9769 36.0781 17.2966 35.6842 17.2966Z"
        fill="#316FDC" />
    <path
        d="M42.6646 23.824H39.085C38.691 23.824 38.3711 23.5042 38.3711 23.1106V19.9321C38.3711 19.5385 38.691 19.2188 39.085 19.2188H42.6646C43.0586 19.2188 43.3785 19.5385 43.3785 19.9321V23.1106C43.3802 23.5042 43.0603 23.824 42.6646 23.824Z"
        fill="#316FDC" />
    <path
        d="M49.5921 10.7693H46.0107C45.6168 10.7693 45.2969 10.4496 45.2969 10.0559V6.87745C45.2969 6.4838 45.6168 6.16406 46.0107 6.16406H49.5904C49.9843 6.16406 50.3043 6.4838 50.3043 6.87745V10.0559C50.306 10.4496 49.9861 10.7693 49.5921 10.7693Z"
        fill="#316FDC" />
    <path
        d="M49.5921 17.2966H46.0107C45.6168 17.2966 45.2969 16.9769 45.2969 16.5832V13.4048C45.2969 13.0111 45.6168 12.6914 46.0107 12.6914H49.5904C49.9843 12.6914 50.3043 13.0111 50.3043 13.4048V16.5832C50.306 16.9769 49.9861 17.2966 49.5921 17.2966Z"
        fill="#316FDC" />
    <path
        d="M49.5921 23.824H46.0107C45.6168 23.824 45.2969 23.5042 45.2969 23.1106V19.9321C45.2969 19.5385 45.6168 19.2188 46.0107 19.2188H49.5904C49.9843 19.2188 50.3043 19.5385 50.3043 19.9321V23.1106C50.306 23.5042 49.9861 23.824 49.5921 23.824Z"
        fill="#316FDC" />
    <path
        d="M35.6842 23.824H32.1045C31.7106 23.824 31.3906 23.5042 31.3906 23.1106V19.9321C31.3906 19.5385 31.7106 19.2188 32.1045 19.2188H35.6842C36.0781 19.2188 36.398 19.5385 36.398 19.9321V23.1106C36.398 23.5042 36.0781 23.824 35.6842 23.824Z"
        fill="#316FDC" />
    <path
        d="M42.6881 30.3572H39.1084C38.7145 30.3572 38.3945 30.0375 38.3945 29.6438V26.4653C38.3945 26.0717 38.7145 25.752 39.1084 25.752H42.6881C43.082 25.752 43.4019 26.0717 43.4019 26.4653V29.6438C43.4019 30.0375 43.082 30.3572 42.6881 30.3572Z"
        fill="#316FDC" />
    <path
        d="M35.7115 30.3572H32.1318C31.7379 30.3572 31.418 30.0375 31.418 29.6438V26.4653C31.418 26.0717 31.7379 25.752 32.1318 25.752H35.7115C36.1054 25.752 36.4254 26.0717 36.4254 26.4653V29.6438C36.4271 30.0375 36.1072 30.3572 35.7115 30.3572Z"
        fill="#316FDC" />
    <path
        d="M42.6881 36.8845H39.1084C38.7145 36.8845 38.3945 36.5648 38.3945 36.1711V32.9927C38.3945 32.599 38.7145 32.2793 39.1084 32.2793H42.6881C43.082 32.2793 43.4019 32.599 43.4019 32.9927V36.1711C43.4019 36.5648 43.082 36.8845 42.6881 36.8845Z"
        fill="#316FDC" />
    <path
        d="M50.8307 42.9841H31.0883C30.4536 42.9841 29.9375 42.4701 29.9375 41.8341V41.4215C29.9375 40.7872 30.4518 40.2715 31.0883 40.2715H50.8307C51.4654 40.2715 51.9815 40.7855 51.9815 41.4215V41.8341C51.9815 42.4701 51.4672 42.9841 50.8307 42.9841Z"
        fill="#316FDC" />
    <path
        d="M33.5859 52.098V42.5815C33.5859 42.1672 33.9214 41.832 34.3359 41.832H35.141C35.5555 41.832 35.891 42.1672 35.891 42.5815V52.098C35.891 52.5123 35.5555 52.8475 35.141 52.8475H34.3359C33.9214 52.8475 33.5859 52.5105 33.5859 52.098Z"
        fill="#316FDC" />
    <path
        d="M46.3477 52.098V42.5815C46.3477 42.1672 46.6831 41.832 47.0976 41.832H47.9027C48.3172 41.832 48.6527 42.1672 48.6527 42.5815V52.098C48.6527 52.5123 48.3172 52.8475 47.9027 52.8475H47.0976C46.6848 52.8475 46.3477 52.5105 46.3477 52.098Z"
        fill="#316FDC" />
    <path
        d="M35.7115 36.8845H32.1318C31.7379 36.8845 31.418 36.5648 31.418 36.1711V32.9927C31.418 32.599 31.7379 32.2793 32.1318 32.2793H35.7115C36.1054 32.2793 36.4254 32.599 36.4254 32.9927V36.1711C36.4271 36.5648 36.1072 36.8845 35.7115 36.8845Z"
        fill="#316FDC" />
    <path
        d="M49.6178 30.3572H46.0381C45.6442 30.3572 45.3242 30.0375 45.3242 29.6438V26.4653C45.3242 26.0717 45.6442 25.752 46.0381 25.752H49.6178C50.0117 25.752 50.3316 26.0717 50.3316 26.4653V29.6438C50.3334 30.0375 50.0134 30.3572 49.6178 30.3572Z"
        fill="#316FDC" />
    <path
        d="M49.6178 36.8845H46.0381C45.6442 36.8845 45.3242 36.5648 45.3242 36.1711V32.9927C45.3242 32.599 45.6442 32.2793 46.0381 32.2793H49.6178C50.0117 32.2793 50.3316 32.599 50.3316 32.9927V36.1711C50.3334 36.5648 50.0134 36.8845 49.6178 36.8845Z"
        fill="#316FDC" />
</svg>