<svg width="93" height="94" viewBox="0 0 93 94" fill="none" xmlns="http://www.w3.org/2000/svg">
    <path
        d="M65.0625 23.375L38.0625 35.75C36.9375 36.3125 35.625 37.625 35.0625 38.75L22.6875 65.75C21.375 68.9375 24.5625 72.125 27.75 70.8125L54.75 58.4375C55.875 57.875 57.1875 56.5625 57.75 55.4375L70.125 28.4375C71.4375 25.25 68.25 22.0625 65.0625 23.375ZM50.625 51.3125C48.375 53.75 44.4375 53.75 42.1875 51.3125C39.75 49.0625 39.75 45.125 42.1875 42.875C44.4375 40.4375 48.375 40.4375 50.625 42.875C53.0625 45.125 53.0625 49.0625 50.625 51.3125ZM46.5 0.5C20.8125 0.5 0 21.5 0 47C0 72.6875 20.8125 93.5 46.5 93.5C72 93.5 93 72.6875 93 47C93 21.5 72 0.5 46.5 0.5ZM46.5 84.5C25.6875 84.5 9 67.8125 9 47C9 26.375 25.6875 9.5 46.5 9.5C67.125 9.5 84 26.375 84 47C84 67.8125 67.125 84.5 46.5 84.5Z"
        fill="white" />
</svg>