<svg width="20" height="15" viewBox="0 0 20 15" fill="none" xmlns="http://www.w3.org/2000/svg">
    <path
        d="M16.375 1.18772C16.375 1.18772 16.375 1.18772 16.3437 1.18772C15.1562 0.625217 13.9062 0.250217 12.625 0.031467C12.5937 0.000217013 12.5625 0.031467 12.5625 0.031467C12.375 0.343967 12.2187 0.687717 12.0937 1.00022C10.6875 0.781467 9.28122 0.781467 7.87497 1.00022C7.74997 0.687717 7.59372 0.343967 7.40622 0.031467C7.40622 0.031467 7.37497 0.000217013 7.34372 0.031467C6.06247 0.250217 4.81247 0.625217 3.62497 1.18772C3.59372 1.18772 3.59372 1.18772 3.59372 1.18772C1.21872 4.75022 0.562467 8.21897 0.874967 11.6565C0.874967 11.6565 0.874967 11.6877 0.906217 11.6877C2.28122 12.719 3.84372 13.5002 5.49997 14.0002C5.49997 14.0315 5.53122 14.0002 5.56247 14.0002C5.90622 13.5002 6.21872 13.0002 6.49997 12.469C6.49997 12.4377 6.49997 12.4065 6.46872 12.3752C5.96872 12.1877 5.46872 11.969 5.03122 11.6877C4.99997 11.6877 4.96872 11.6252 5.03122 11.594C5.12497 11.5315 5.21872 11.469 5.31247 11.3752C5.31247 11.3752 5.34372 11.3752 5.37497 11.3752C8.37497 12.7502 11.625 12.7502 14.5937 11.3752C14.625 11.3752 14.625 11.3752 14.6562 11.3752C14.75 11.469 14.8437 11.5315 14.9375 11.594C14.9687 11.6252 14.9687 11.6877 14.9375 11.6877C14.4687 11.969 14 12.1877 13.5 12.3752C13.4687 12.4065 13.4687 12.4377 13.4687 12.469C13.75 13.0002 14.0625 13.5002 14.4062 14.0002C14.4375 14.0002 14.4375 14.0315 14.4687 14.0002C16.125 13.5002 17.6875 12.719 19.0625 11.6877C19.0937 11.6877 19.0937 11.6565 19.0937 11.6565C19.4687 7.68772 18.4375 4.25022 16.375 1.18772ZM6.93747 9.56272C6.03122 9.56272 5.28122 8.71897 5.28122 7.71897C5.28122 6.68772 6.03122 5.87522 6.93747 5.87522C7.87497 5.87522 8.59372 6.68772 8.59372 7.71897C8.59372 8.71897 7.84372 9.56272 6.93747 9.56272ZM13.0312 9.56272C12.125 9.56272 11.4062 8.71897 11.4062 7.71897C11.4062 6.68772 12.125 5.87522 13.0312 5.87522C13.9687 5.87522 14.7187 6.68772 14.6875 7.71897C14.6875 8.71897 13.9687 9.56272 13.0312 9.56272Z"
        fill="#525252" />
</svg>