<svg width="27" height="17" viewBox="0 0 27 17" fill="none" xmlns="http://www.w3.org/2000/svg">
<path d="M24.5549 7.27197C24.5459 6.46573 24.5429 5.65352 24.5399 4.8443H22.1038C22.0948 5.65054 22.0888 6.45976 22.0827 7.27197C21.2627 7.27496 20.4487 7.28093 19.6347 7.28989V9.70562C20.4487 9.71458 21.2687 9.72056 22.0827 9.72951C22.0918 10.5358 22.0918 11.345 22.0978 12.1512H24.5368C24.5399 11.345 24.5459 10.5358 24.5519 9.72354C25.372 9.71458 26.186 9.7116 27 9.70264V7.2869C26.189 7.28093 25.369 7.28093 24.5549 7.27197ZM8.57611 7.28392C8.57309 8.24842 8.57611 9.21591 8.57912 10.1804C10.2132 10.2342 11.8503 10.2103 13.4843 10.2342C12.7638 13.8264 7.83445 14.991 5.22658 12.6439C2.54335 10.5865 2.66997 6.07456 5.45873 4.16347C7.40935 2.62266 10.18 3.00189 12.1306 4.33666C12.8964 3.63494 13.614 2.88244 14.3044 2.10606C12.6824 0.825039 10.6926 -0.0886998 8.57611 0.00685462C4.1563 -0.139463 0.0952708 3.69466 0.0229138 8.07523C-0.260484 11.6555 2.11524 15.1642 5.46777 16.4303C8.80825 17.7053 13.0924 16.8364 15.2269 13.8622C16.6349 11.984 16.9394 9.56528 16.7736 7.29288C14.0391 7.27197 11.3076 7.27496 8.57611 7.28392Z" fill="white"/>
</svg>
