<svg width="14" height="14" viewBox="0 0 14 14" fill="none" xmlns="http://www.w3.org/2000/svg">
    <path
        d="M3.125 14.0001H0.21875V4.6564H3.125V14.0001ZM1.65625 3.4064C0.75 3.4064 0 2.62515 0 1.68765C0 0.4064 1.375 -0.4061 2.5 0.25015C3.03125 0.5314 3.34375 1.0939 3.34375 1.68765C3.34375 2.62515 2.59375 3.4064 1.65625 3.4064ZM13.9688 14.0001H11.0938V9.4689C11.0938 8.37515 11.0625 7.00015 9.5625 7.00015C8.0625 7.00015 7.84375 8.1564 7.84375 9.37515V14.0001H4.9375V4.6564H7.71875V5.93765H7.75C8.15625 5.2189 9.09375 4.43765 10.5 4.43765C13.4375 4.43765 14 6.37515 14 8.87515V14.0001H13.9688Z"
        fill="#525252" />
</svg>