<svg width="380" height="119" viewBox="0 0 380 119" fill="none" xmlns="http://www.w3.org/2000/svg">
<path d="M31.6286 82.9146C31.6286 82.9146 31.546 35.151 31.6286 25.3724C31.7388 15.5938 34.5209 7.44036 43.3354 2.67501C52.1499 -2.09033 72.3682 -2.69633 77.1886 19.8909C77.1886 19.8909 86.1408 15.5111 95.7817 20.304C105.423 25.0969 108.315 32.9198 108.921 39.7511C109.554 46.5823 106.69 55.3142 94.5422 62.3382C82.3947 69.3348 67.9609 77.7085 59.835 82.3913C51.7092 87.074 41.8204 93.4645 35.182 96.7699C28.5435 100.075 19.8116 103.849 8.76596 95.4753C-2.05936 87.2668 -3.82226 68.7563 9.1516 59.3358C9.1516 59.3358 -1.97672 51.7057 0.309541 36.6935C2.59581 21.6813 16.8643 16.613 27.304 18.5962L26.9734 27.6311C26.9734 27.6311 21.3542 25.6754 15.4044 29.1736C9.4546 32.6719 7.82942 40.4672 10.336 46.5548C12.8427 52.6698 20.1146 53.8267 21.9877 56.8843C23.8884 59.9418 22.0428 62.1179 18.214 64.1838C14.3577 66.2497 8.40787 70.2989 9.26178 79.4715C10.1157 88.6441 21.4644 94.2082 30.1962 89.1674C38.9281 84.1266 82.9456 59.0603 90.493 54.4603C98.0129 49.8602 99.583 45.4805 99.8033 41.7343C100.024 37.9882 98.7842 32.9198 93.7434 29.4766C88.675 26.0335 82.3671 27.0802 78.7311 29.2287C75.0952 31.3773 73.1119 33.03 70.3023 31.3497C67.4926 29.6419 68.319 26.0335 68.3465 23.6921C68.3741 21.3232 68.2639 16.5303 63.4159 12.1231C58.568 7.71581 50.2217 7.30263 44.63 13.0321C41.3797 16.1722 40.8838 20.1388 40.8838 26.5293V77.4055L31.6286 82.9146Z" fill="#0070EA"/>
<path d="M45.4668 27.6328L86.3166 51.2667L77.3368 56.6105L45.4668 38.2102V27.6328Z" fill="#0070EA"/>
<path d="M103.187 62.5308C103.187 62.5308 111.726 70.6291 107.98 83.8509C104.234 97.0726 89.5248 103.739 77.2396 98.4774C77.2396 98.4774 76.0276 109.496 66.6346 115.06C57.2417 120.624 41.0174 120.899 33.0293 103.16L41.0174 98.7529C41.0174 98.7529 43.7444 110.239 55.2859 109.358C66.8274 108.476 68.4251 98.505 68.3424 95.3373C68.2323 92.1696 67.7915 88.5611 70.3532 87.0186C72.915 85.476 75.1461 87.0461 79.4432 89.5252C83.7403 92.0043 93.5189 92.1971 97.7333 84.9802C101.948 77.7633 99.2208 70.4914 95.392 67.2686L103.187 62.5308Z" fill="#0070EA"/>
<path d="M45.4668 43.5537L72.8193 59.3372L45.4668 75.0656V43.5537Z" fill="#F27024"/>
<path d="M201.56 78.8088C200.458 76.3297 187.65 46.3053 185.17 40.1351C184.785 39.171 184.041 38.8129 183.022 38.8129H182.994C179.524 38.8405 176.08 38.8405 172.61 38.8405C172.417 38.8129 172.224 38.7854 172.059 38.7854C171.012 38.7854 170.379 39.4189 169.938 40.4657C166.495 48.7844 163.052 57.1031 159.581 65.4218C159.113 66.5236 159.057 67.5703 159.636 68.5895H159.608C161.316 71.7847 163.024 75.0075 164.759 78.2028C165.393 79.3597 166.412 79.7729 167.679 79.4974C169.111 79.1118 184.84 69.9116 185.556 69.0853C182.829 69.0853 175.64 69.2781 169.47 69.2506C170.654 65.8625 172.224 62.6121 173.601 59.2791C174.896 56.139 176.273 53.0263 177.651 49.9137C181.479 58.9486 187.236 72.3907 189.826 78.616C190.156 79.4148 190.487 79.8831 191.478 79.8555C194.618 79.7729 197.759 79.8004 200.899 79.828C201.78 79.828 201.918 79.6076 201.56 78.8088Z" fill="#0070EA"/>
<path d="M153.305 75.9737C151.432 77.5713 149.366 78.6181 147.079 79.0588C146.143 79.2516 145.013 79.3893 143.746 79.4444C143.223 79.472 142.617 79.472 141.956 79.4995H127.164V38.8701H139.67C141.24 38.8701 142.424 38.8977 143.251 38.9528C144.545 39.0354 145.702 39.1731 146.666 39.3935C149.09 39.9444 151.073 41.1013 152.644 42.8091C154.241 44.572 155.04 46.8032 155.04 49.5026C155.04 53.1662 153.47 55.8931 150.33 57.656C154.792 59.1986 157.023 62.3388 157.023 67.0766C157.023 70.9054 155.784 73.8527 153.305 75.9737ZM143.912 48.5661C143.278 48.1804 142.314 47.9876 141.074 47.9876H137.08V54.2955H141.019C143.774 54.2955 145.151 53.2212 145.151 51.0452C145.124 49.8883 144.738 49.0619 143.912 48.5661ZM145.592 63.6058C144.793 63.1651 143.691 62.9723 142.259 62.9723H137.053V70.3545H142.204C143.664 70.3545 144.793 70.079 145.592 69.5556C146.584 68.8945 147.052 67.8754 147.052 66.4706C147.079 65.1484 146.584 64.1843 145.592 63.6058Z" fill="#0070EA"/>
<path d="M217.674 47.9876V79.472H207.316V47.9876H199.301L201.973 38.8701H225.634V47.9876H217.674Z" fill="#0070EA"/>
<path d="M255.245 48.0157V79.4725H244.887V48.0157H233.842L236.899 38.9258H263.205V48.0157H255.245Z" fill="#0070EA"/>
<path d="M269.71 79.4725V38.9258H292.242V48.0157H279.654V54.3236H291.856V63.4136H279.654V70.3826H292.242V79.4725H269.71Z" fill="#0070EA"/>
<path d="M339.673 64.2968C338.488 69.0621 336.009 72.9185 332.208 75.8658C328.434 78.7856 324.11 80.2455 319.179 80.2455C313.257 80.2455 308.216 78.2072 304.056 74.158C299.897 70.0813 297.804 65.068 297.804 59.1458C297.804 53.2511 299.87 48.2654 304.001 44.1887C308.133 40.1671 313.146 38.1562 319.069 38.1562C326.781 38.1562 332.731 41.324 336.918 47.6869C338.378 49.8906 339.287 52.0942 339.673 54.3254H328.82C327.029 49.6151 323.751 47.2738 319.041 47.2738C315.846 47.2738 313.229 48.4582 311.136 50.8271C309.152 53.1134 308.161 55.8679 308.161 59.0907C308.161 62.3411 309.152 65.1507 311.136 67.4645C313.229 69.916 315.873 71.1556 319.069 71.1556C323.504 71.1556 326.726 68.8693 328.82 64.2968H339.673Z" fill="#0070EA"/>
<path d="M369.643 38.9243V54.1844H359.864C358.68 54.1844 357.523 54.0742 356.366 53.9089V38.9243H346.009V49.7496V52.5868V79.471H356.366V63.2468H367.522C368.238 63.2468 368.954 63.357 369.643 63.4396V79.4435H380V68.2325V65.3953V38.8967H369.643V38.9243Z" fill="#0070EA"/>
</svg>
