<svg width="27" height="18" viewBox="0 0 27 18" fill="none" xmlns="http://www.w3.org/2000/svg">
    <g clip-path="url(#clip0_114_104)">
        <path
            d="M26.9879 7.49741C26.983 6.97863 26.9242 6.44855 26.8039 5.94377C26.0127 2.62124 22.8884 0.201723 19.5629 0.387384C17.3993 0.50793 15.5838 1.40718 14.1671 3.07167C13.9658 3.30846 13.9658 3.48497 14.1266 3.74705C14.3824 4.16357 14.5827 4.614 14.8066 5.04937C14.8476 5.12901 14.8897 5.20812 14.9513 5.3249C15.0398 5.16507 15.097 5.05744 15.158 4.95196C16.3291 2.91507 18.6584 1.88398 20.9386 2.3936C23.2565 2.9113 24.9614 4.86263 25.1346 7.19497C25.3516 10.1177 23.2441 12.5985 20.2656 12.9263C18.9482 13.0716 17.6659 12.6782 16.641 11.9215L16.647 11.9156C16.647 11.9156 15.5654 11.18 14.9367 9.83459C14.9102 9.77754 14.8843 9.7205 14.8601 9.66238C14.8557 9.65215 14.852 9.64193 14.8476 9.6317C14.7888 9.48802 14.7354 9.34164 14.689 9.19204C14.683 9.17374 14.6776 9.15383 14.6717 9.13445C14.6561 9.08172 14.6415 9.02844 14.6269 8.97516C14.6172 8.93857 14.6075 8.9009 14.5983 8.86161C14.5859 8.80941 14.5735 8.75775 14.5627 8.70501C14.5573 8.67918 14.5519 8.65335 14.547 8.62698C14.5341 8.56025 14.5222 8.49298 14.5114 8.42464C14.5093 8.40903 14.5071 8.39342 14.5044 8.37782C14.4979 8.33261 14.4925 8.28741 14.4877 8.2422C14.4785 8.15018 14.4623 7.97528 14.4445 7.70083C14.431 7.4339 14.4229 7.16591 14.4029 6.90006C14.4029 6.89576 14.4024 6.89199 14.4024 6.88768C14.4024 6.88768 14.3274 4.93205 13.0683 3.24065C13.0683 3.24065 12.7758 2.79076 12.1681 2.23969C12.167 2.23862 12.1654 2.23754 12.1643 2.23593C12.1168 2.19287 12.0672 2.14874 12.0154 2.10462C12.0003 2.0917 11.9851 2.07879 11.97 2.06641C11.9285 2.03143 11.8864 1.99645 11.8421 1.96093C11.8335 1.95394 11.8249 1.94694 11.8162 1.93994C11.7628 1.89743 11.7072 1.85438 11.65 1.81133C11.6446 1.80756 11.6397 1.80325 11.6344 1.79949C11.3073 1.55355 10.9225 1.30547 10.4783 1.0816C10.3245 1.00303 10.1669 0.927148 10.005 0.855574C7.32279 -0.331044 4.82944 0.280293 2.55789 2.01313C2.33177 2.18534 2.12884 2.38822 1.85738 2.6277C1.85738 2.0395 1.87735 1.52019 1.84821 1.0041C1.83579 0.783462 1.76779 0.535913 1.64313 0.357786C1.41322 0.0289773 0.977152 -0.0727328 0.622037 0.0526558C0.239399 0.187193 0.00463562 0.537528 0.00409593 0.992802C0.00247687 3.1454 -0.0072375 5.29799 0.0105722 7.45005C0.0154294 8.0038 0.0456518 8.57209 0.173558 9.10808C0.869214 12.0243 2.70847 13.8755 5.63033 14.4982C8.57487 15.1257 11.0542 14.2135 12.956 11.8489C13.0057 11.7875 13.0354 11.6551 13.0035 11.5922C12.7013 10.9981 12.384 10.412 12.0569 9.79799C12.0218 9.85988 11.9943 9.9067 11.9684 9.95459C10.7196 12.2907 8.07458 13.381 5.58446 12.5867C3.10136 11.7945 1.56595 9.36263 1.92538 6.74992C2.44888 2.94682 6.8986 0.702739 10.3855 3.21374V3.22181C10.3855 3.22181 10.467 3.27294 10.5971 3.37411C10.6214 3.39348 10.6456 3.41232 10.6694 3.43169C10.6705 3.43223 10.671 3.43277 10.6715 3.43384C10.8469 3.57699 11.0094 3.72767 11.1589 3.88481C11.16 3.88589 11.161 3.88697 11.1621 3.88804C11.1983 3.92571 11.2334 3.96446 11.2684 4.00321C11.2711 4.00643 11.2738 4.00966 11.2771 4.01289C11.596 4.37076 11.8529 4.76092 12.0515 5.18121C12.112 5.31091 12.3656 5.88081 12.4952 6.62991C12.5259 6.81772 12.5491 7.00984 12.5637 7.20573C12.5648 7.2321 12.575 7.56306 12.5853 7.84989C12.5869 7.97528 12.5918 8.09906 12.5993 8.22175C12.6004 8.24382 12.6009 8.2605 12.602 8.26911C12.6069 8.33369 12.6236 8.83094 12.7914 9.50739C12.8702 9.82867 12.9717 10.1403 13.0964 10.4427C13.1066 10.4674 13.1169 10.4917 13.1271 10.5164C13.1347 10.5342 13.1422 10.5514 13.1498 10.5692C13.153 10.5767 13.1563 10.5848 13.1595 10.5923C13.1595 10.5923 13.3775 11.1444 13.8347 11.7714C13.8347 11.7714 14.3889 12.5974 15.2816 13.2793L15.2821 13.2787C18.2266 15.5863 22.4087 15.0772 24.6322 12.9386C24.7876 12.789 24.9457 12.6421 25.1492 12.45C25.1492 13.0167 25.1271 13.5166 25.1594 14.0138C25.1735 14.234 25.255 14.4761 25.3802 14.6575C25.602 14.9793 26.0343 15.0718 26.4056 14.94C26.792 14.8033 26.9965 14.481 26.9971 13.9896C26.9971 11.8247 27.0079 9.66076 26.9879 7.49741Z"
            fill="url(#paint0_linear_114_104)" />
        <path
            d="M5.75095 8.1357C5.71209 8.31921 5.63707 8.46936 5.5259 8.58506C5.41418 8.70076 5.2717 8.78417 5.09846 8.8353C4.92468 8.88642 4.7223 8.91171 4.49132 8.91171C4.2123 8.91171 4.00668 8.8988 3.87553 8.87297C3.81563 8.86113 3.77569 8.84175 3.75518 8.81431C3.73467 8.78686 3.7309 8.74166 3.74385 8.67816L4.22795 6.41417C4.23712 6.37111 4.25008 6.33613 4.26573 6.31084C4.28138 6.28501 4.30243 6.2651 4.32887 6.25111C4.35531 6.23711 4.38877 6.22635 4.43033 6.21936C4.49239 6.21021 4.57821 6.2016 4.68722 6.1946C4.79624 6.1876 4.91443 6.18384 5.04072 6.18384C5.21558 6.18384 5.36615 6.19675 5.4919 6.22258C5.61818 6.24842 5.72396 6.28985 5.80977 6.34636C5.89558 6.40286 5.95441 6.47874 5.98733 6.57346C6.02025 6.66817 6.02241 6.78172 5.99434 6.91411L5.97869 6.98622C5.96196 7.06586 5.9339 7.1412 5.89342 7.21278C5.85295 7.28435 5.80168 7.34678 5.74015 7.40167C5.67863 7.45656 5.60955 7.49853 5.53345 7.52867C5.63329 7.57441 5.70399 7.64383 5.74555 7.7364C5.7871 7.8295 5.79412 7.94197 5.76606 8.07435L5.75095 8.1357ZM5.26307 8.12871L5.27386 8.08135C5.29707 7.96995 5.28196 7.87901 5.22799 7.80743C5.17402 7.73586 5.06824 7.70034 4.91119 7.70034H4.45354L4.28462 8.49196C4.31538 8.49196 4.36611 8.49303 4.43681 8.49572C4.50805 8.49788 4.555 8.49949 4.57874 8.49949C4.80271 8.49949 4.9657 8.47043 5.06824 8.41177C5.1697 8.35258 5.235 8.2584 5.26307 8.12871ZM5.4919 6.99321L5.50269 6.94209C5.5205 6.85652 5.51456 6.78926 5.48488 6.73921C5.45574 6.6897 5.39799 6.6531 5.31164 6.6305C5.22529 6.6079 5.10548 6.59606 4.95167 6.59606C4.90364 6.59606 4.81567 6.59875 4.68776 6.60467L4.53125 7.33279H4.98891C5.1438 7.33279 5.26091 7.30157 5.34024 7.23969C5.41904 7.17887 5.46977 7.096 5.4919 6.99321Z"
            fill="#3F3F3F" />
        <path
            d="M8.18898 8.82184C8.1852 8.84068 8.17656 8.85575 8.16145 8.86651C8.14688 8.87781 8.13015 8.88319 8.11126 8.88319H7.72916C7.71405 8.88319 7.70056 8.87727 7.68977 8.86489C7.67843 8.85252 7.67304 8.83853 7.67304 8.82184L7.65361 8.13893H6.82465L6.51325 8.82184C6.50623 8.83853 6.4949 8.85252 6.47871 8.86489C6.46306 8.87727 6.44741 8.88319 6.4323 8.88319H6.0502C6.03131 8.88319 6.01728 8.87781 6.00702 8.86651C5.99731 8.85521 5.99407 8.84068 5.99731 8.82184C5.99947 8.81969 6.00163 8.817 6.00271 8.81485C6.00378 8.81269 6.00486 8.80893 6.00648 8.80408L7.07668 6.55086C7.19272 6.30654 7.38592 6.18384 7.65577 6.18384C7.92669 6.18384 8.06755 6.306 8.07834 6.55086L8.19114 8.80408C8.19114 8.80785 8.19114 8.81054 8.19114 8.81269C8.19114 8.81538 8.19006 8.81808 8.18898 8.82184ZM7.64551 7.73048L7.61205 6.66171C7.61097 6.63965 7.60719 6.62458 7.60126 6.61705C7.59532 6.60951 7.58345 6.60575 7.56618 6.60575C7.54999 6.60575 7.53703 6.60951 7.52732 6.61705C7.51815 6.62458 7.50789 6.63965 7.4971 6.66171L7.00976 7.73048H7.64551Z"
            fill="#3F3F3F" />
        <path
            d="M10.8982 6.56494C10.8934 6.58593 10.8831 6.60207 10.8664 6.61337C10.8497 6.62467 10.8319 6.63006 10.8119 6.63006H10.1821L9.7174 8.81117C9.71254 8.83216 9.70175 8.84938 9.68502 8.86283C9.66775 8.87629 9.6494 8.88328 9.62943 8.88328H9.27216C9.25435 8.88328 9.23978 8.87629 9.22736 8.8623C9.21495 8.8483 9.21117 8.83108 9.21603 8.81117L9.6807 6.63006H9.05035C9.03038 6.63006 9.01473 6.62414 9.00285 6.6123C8.99098 6.60046 8.98774 6.58485 8.99206 6.56494L9.05197 6.2808C9.05574 6.26196 9.06546 6.24582 9.08165 6.23236C9.09784 6.21891 9.11673 6.21191 9.13778 6.21191H10.8993C10.9204 6.21191 10.9366 6.21783 10.9479 6.23021C10.9592 6.24259 10.9625 6.25927 10.9576 6.28026L10.8982 6.56494Z"
            fill="#3F3F3F" />
        <path
            d="M17.2844 6.55835C17.2796 6.57934 17.2693 6.59548 17.2526 6.60678C17.2358 6.61808 17.218 6.62346 17.1981 6.62346H16.5682L16.1036 8.80458C16.0987 8.82557 16.0879 8.84279 16.0712 8.85624C16.0539 8.8697 16.0356 8.87669 16.0156 8.87669H15.6583C15.6405 8.87669 15.626 8.8697 15.6135 8.85571C15.6011 8.84171 15.5974 8.82449 15.6022 8.80458L16.0669 6.62346H15.4371C15.4171 6.62346 15.4014 6.61754 15.3896 6.60571C15.3777 6.59387 15.3745 6.57826 15.3788 6.55835L15.4387 6.27421C15.4425 6.25537 15.4522 6.23923 15.4684 6.22577C15.4846 6.21232 15.5034 6.20532 15.5245 6.20532H17.286C17.3071 6.20532 17.3233 6.21124 17.3346 6.22362C17.3459 6.236 17.3492 6.25268 17.3443 6.27367L17.2844 6.55835Z"
            fill="#3F3F3F" />
        <path
            d="M18.8891 8.77978C18.8799 8.82445 18.8502 8.8492 18.8011 8.85512C18.7779 8.85728 18.7461 8.86212 18.7061 8.86912C18.6662 8.87611 18.6068 8.88257 18.5286 8.88849C18.4498 8.89441 18.3866 8.89818 18.3386 8.90087C18.2906 8.90302 18.2129 8.9041 18.1065 8.9041C17.9355 8.9041 17.7935 8.88418 17.6807 8.84382C17.5679 8.80346 17.4881 8.7292 17.4406 8.62103C17.3931 8.51286 17.3898 8.36218 17.4309 8.16898L17.6985 6.91402C17.7396 6.72083 17.807 6.57014 17.9009 6.46144C17.9948 6.35273 18.1065 6.27793 18.2361 6.23757C18.3656 6.19721 18.5162 6.17676 18.6872 6.17676C18.9431 6.17676 19.1676 6.19398 19.3613 6.22788C19.3894 6.23111 19.4072 6.23865 19.4147 6.24887C19.4223 6.25963 19.4234 6.27739 19.4174 6.30322L19.3683 6.53301C19.3646 6.55292 19.3543 6.56961 19.3365 6.58414C19.3187 6.59813 19.3003 6.60512 19.2804 6.60512H18.5448C18.4401 6.60512 18.3624 6.62719 18.3105 6.67185C18.2587 6.71652 18.221 6.79724 18.1961 6.91402L18.1136 7.30203H19.0904C19.1104 7.30203 19.126 7.30902 19.1368 7.32301C19.1481 7.33701 19.1514 7.35423 19.1465 7.37414L19.092 7.63191C19.0882 7.65182 19.0774 7.66851 19.0585 7.68304C19.0397 7.69703 19.0219 7.70402 19.004 7.70402H18.0272L17.9284 8.16898C17.9036 8.28469 17.9079 8.36541 17.9409 8.41007C17.9738 8.45528 18.0423 8.47788 18.147 8.47788H18.8826C18.9047 8.47788 18.9209 8.48434 18.9312 8.49725C18.9409 8.51017 18.9436 8.52793 18.9393 8.54999L18.8891 8.77978Z"
            fill="#3F3F3F" />
        <path
            d="M20.39 8.90458C20.2728 8.90458 20.16 8.88736 20.0532 8.85346C19.9458 8.81956 19.8519 8.76144 19.7709 8.6791C19.69 8.59676 19.6349 8.48321 19.6052 8.33953C19.5761 8.19584 19.5837 8.01771 19.6279 7.80622L19.7407 7.27776C19.8028 6.99093 19.9005 6.76652 20.0327 6.604C20.1654 6.44148 20.3112 6.32954 20.4709 6.26873C20.6307 6.20792 20.7974 6.17725 20.9723 6.17725C21.0624 6.17725 21.1477 6.18639 21.2275 6.20469C21.3074 6.22299 21.3754 6.24344 21.4315 6.26712C21.4877 6.2908 21.5222 6.30748 21.5352 6.31824C21.581 6.3473 21.6005 6.37959 21.5935 6.41457L21.5406 6.65835C21.5287 6.71701 21.4952 6.73477 21.4402 6.7127C21.4024 6.69764 21.3517 6.68095 21.288 6.66373C21.2243 6.64597 21.1606 6.63198 21.0969 6.62176C21.0338 6.61099 20.9723 6.60615 20.9124 6.60615C20.7926 6.60615 20.6906 6.62714 20.6053 6.66911C20.52 6.71109 20.4482 6.78159 20.3889 6.87953C20.3295 6.97801 20.282 7.1104 20.2453 7.27776L20.1325 7.80622C20.0985 7.96874 20.0899 8.09951 20.1072 8.19853C20.1239 8.29755 20.1665 8.36859 20.234 8.41272C20.3014 8.45684 20.3943 8.47837 20.513 8.47837C20.6058 8.47837 20.7041 8.46707 20.8087 8.445C20.9134 8.42294 21.0057 8.39765 21.0867 8.36966C21.1515 8.3476 21.1779 8.36536 21.166 8.42402L21.1131 8.6678C21.1061 8.70278 21.0727 8.73561 21.0128 8.76628C20.9577 8.79426 20.8714 8.8244 20.7542 8.85669C20.6371 8.88844 20.5157 8.90458 20.39 8.90458Z"
            fill="#3F3F3F" />
        <path
            d="M23.6623 8.80458C23.6574 8.82557 23.6466 8.84279 23.6299 8.85624C23.6126 8.8697 23.5943 8.87669 23.5743 8.87669H23.217C23.1992 8.87669 23.1846 8.8697 23.1722 8.85571C23.1598 8.84171 23.156 8.82449 23.1609 8.80458L23.3951 7.70407H22.3724L22.1382 8.80458C22.1333 8.82449 22.122 8.84117 22.1036 8.85571C22.0853 8.87023 22.0675 8.87669 22.0502 8.87669H21.6929C21.6751 8.87669 21.6606 8.8697 21.6481 8.85571C21.6357 8.84171 21.632 8.82449 21.6368 8.80458L22.1754 6.27421C22.1803 6.25537 22.1911 6.23923 22.2078 6.22577C22.2251 6.21232 22.2429 6.20532 22.2612 6.20532H22.6185C22.6374 6.20532 22.653 6.21232 22.6649 6.22577C22.6773 6.23923 22.6811 6.25537 22.6763 6.27421L22.4652 7.26548H23.4879L23.699 6.27421C23.7038 6.25537 23.7146 6.23923 23.7313 6.22577C23.7486 6.21232 23.7664 6.20532 23.7848 6.20532H24.142C24.1631 6.20532 24.1793 6.21124 24.1906 6.22362C24.2019 6.236 24.2052 6.25268 24.2003 6.27367L23.6623 8.80458Z"
            fill="#3F3F3F" />
        <path d="M5.49842 16.0562V17.4909H5.1773V16.0562H4.82812V15.7764H5.8449V16.0562H5.49842Z" fill="#3F3F3F" />
        <path
            d="M6.8958 16.4657C6.85478 16.4533 6.80783 16.4474 6.75548 16.4474C6.72688 16.4474 6.69881 16.4496 6.67129 16.4544C6.64377 16.4593 6.62056 16.4652 6.60113 16.4727V17.4914H6.29297V16.2784C6.35611 16.2521 6.43059 16.2306 6.5164 16.2133C6.60167 16.1961 6.6945 16.1875 6.79434 16.1875C6.8564 16.1875 6.90929 16.1913 6.95301 16.1988L6.8958 16.4657Z"
            fill="#3F3F3F" />
        <path
            d="M8.17615 17.494C8.0871 17.5112 7.99428 17.5199 7.89767 17.5199C7.72821 17.5199 7.60031 17.4822 7.51342 17.4074C7.42653 17.3326 7.38281 17.212 7.38281 17.0463V16.2148H7.69097V17.0533C7.69097 17.1873 7.75951 17.2545 7.89713 17.2545C7.93869 17.2545 7.97539 17.2519 8.00615 17.2465C8.03691 17.2411 8.0612 17.2346 8.07793 17.2266V16.2148H8.38879V17.4278C8.3359 17.4547 8.26466 17.4768 8.17615 17.494Z"
            fill="#3F3F3F" />
        <path
            d="M9.95676 16.7661C9.95676 16.7839 9.95676 16.8016 9.95676 16.8199C9.95676 16.8382 9.95515 16.8565 9.95191 16.8759L9.16127 16.9868C9.17584 17.0815 9.21362 17.152 9.27406 17.1972C9.33451 17.2429 9.41006 17.2655 9.50073 17.2655C9.56279 17.2655 9.62432 17.258 9.68638 17.2434C9.74845 17.2289 9.80025 17.2095 9.84289 17.1859L9.93086 17.4275C9.87959 17.4544 9.81375 17.4765 9.73333 17.4942C9.65238 17.5114 9.56711 17.5201 9.47752 17.5201C9.37552 17.5201 9.28647 17.5039 9.20984 17.4716C9.1332 17.4393 9.06898 17.3936 9.01663 17.3339C8.96428 17.2747 8.92488 17.2036 8.8979 17.1218C8.87091 17.0395 8.85742 16.9496 8.85742 16.8517C8.85742 16.7537 8.87037 16.6644 8.89682 16.5826C8.92326 16.5013 8.9605 16.4314 9.00961 16.3722C9.05872 16.313 9.11863 16.2678 9.18879 16.235C9.25895 16.2027 9.33882 16.1865 9.42787 16.1865C9.51314 16.1865 9.58816 16.2 9.654 16.2274C9.71984 16.2549 9.77543 16.2942 9.82022 16.3453C9.86556 16.3964 9.89956 16.4578 9.92222 16.5293C9.94543 16.6014 9.95676 16.68 9.95676 16.7661ZM9.65562 16.7096C9.65562 16.6133 9.63457 16.5412 9.59301 16.4927C9.55146 16.4443 9.49371 16.4206 9.42032 16.4206C9.3399 16.4206 9.27406 16.4513 9.22279 16.5121C9.17152 16.5729 9.144 16.6633 9.1413 16.7839L9.65562 16.7096Z"
            fill="#3F3F3F" />
        <path
            d="M11.9657 17.4914V16.7595H11.46V17.4914H11.1367V15.7769H11.46V16.4856H11.9657V15.7769H12.2857V17.4914H11.9657Z"
            fill="#3F3F3F" />
        <path
            d="M13.7713 17.4274C13.7481 17.4398 13.7201 17.4516 13.6866 17.4629C13.6532 17.4742 13.6165 17.4839 13.576 17.4925C13.5355 17.5011 13.4929 17.5076 13.4481 17.513C13.4033 17.5178 13.3574 17.5205 13.311 17.5205C13.1248 17.5205 12.9861 17.4844 12.8949 17.4123C12.8037 17.3402 12.7578 17.2385 12.7578 17.1077C12.7578 17.0216 12.7778 16.9511 12.8183 16.8962C12.8582 16.8414 12.9116 16.7983 12.978 16.7665C13.0444 16.7348 13.121 16.7122 13.2074 16.6977C13.2937 16.6837 13.3838 16.674 13.4778 16.6691V16.6035C13.4778 16.5373 13.4572 16.4899 13.4157 16.4625C13.3741 16.4345 13.318 16.4211 13.2468 16.4211C13.1879 16.4211 13.1264 16.4291 13.0622 16.4447C12.998 16.4603 12.9445 16.4781 12.9024 16.4975L12.8237 16.279C12.876 16.2575 12.9429 16.237 13.0239 16.2171C13.1048 16.1972 13.1901 16.1875 13.2808 16.1875C13.4384 16.1875 13.5598 16.2225 13.6445 16.293C13.7292 16.3629 13.7713 16.4797 13.7713 16.6422V17.4274ZM13.4783 16.8763C13.4211 16.8796 13.3666 16.8839 13.3142 16.8892C13.2619 16.8946 13.2165 16.9054 13.1771 16.921C13.1383 16.9366 13.107 16.9592 13.0832 16.9877C13.0595 17.0163 13.0476 17.0539 13.0476 17.1013C13.0476 17.1615 13.0698 17.2078 13.1145 17.2412C13.1588 17.2746 13.2214 17.2907 13.3018 17.2907C13.3353 17.2907 13.3682 17.2886 13.4017 17.2837C13.4351 17.2789 13.4605 17.2724 13.4783 17.2638V16.8763Z"
            fill="#3F3F3F" />
        <path
            d="M15.3442 16.8473C15.3442 16.9452 15.3318 17.0345 15.3075 17.1163C15.2832 17.1976 15.2471 17.267 15.1985 17.3246C15.1499 17.3822 15.09 17.4263 15.0183 17.4581C14.9465 17.4898 14.8634 17.5054 14.77 17.5054C14.7365 17.5054 14.7036 17.5027 14.6702 17.4974C14.6367 17.492 14.6108 17.4855 14.5914 17.4774V18H14.2832V16.2784C14.3285 16.2537 14.3917 16.2322 14.4716 16.2144C14.5514 16.1961 14.6383 16.1875 14.7317 16.1875C14.9314 16.1875 15.083 16.2456 15.1872 16.3613C15.2924 16.477 15.3442 16.639 15.3442 16.8473ZM15.0312 16.8473C15.0312 16.7176 15.0058 16.6169 14.9551 16.5454C14.9044 16.4738 14.8315 16.4377 14.7365 16.4377C14.7079 16.4377 14.6804 16.4399 14.6534 16.4447C14.6264 16.4496 14.6059 16.4555 14.5914 16.463V17.2353C14.6043 17.2412 14.6254 17.2466 14.6545 17.2514C14.6837 17.2563 14.7117 17.2584 14.7387 17.2584C14.7867 17.2584 14.8288 17.2482 14.865 17.2277C14.9011 17.2073 14.9319 17.1788 14.9562 17.1427C14.9805 17.1067 14.9988 17.0631 15.0118 17.0125C15.0247 16.9624 15.0312 16.9075 15.0312 16.8473Z"
            fill="#3F3F3F" />
        <path
            d="M16.8774 16.8473C16.8774 16.9452 16.865 17.0345 16.8407 17.1163C16.8164 17.1976 16.7803 17.267 16.7317 17.3246C16.6831 17.3822 16.6232 17.4263 16.5515 17.4581C16.4797 17.4898 16.3966 17.5054 16.3032 17.5054C16.2697 17.5054 16.2368 17.5027 16.2034 17.4974C16.1699 17.492 16.144 17.4855 16.1246 17.4774V18H15.8164V16.2784C15.8617 16.2537 15.9249 16.2322 16.0048 16.2144C16.0846 16.1961 16.1715 16.1875 16.2649 16.1875C16.4646 16.1875 16.6162 16.2456 16.7204 16.3613C16.8256 16.477 16.8774 16.639 16.8774 16.8473ZM16.5644 16.8473C16.5644 16.7176 16.539 16.6169 16.4883 16.5454C16.4376 16.4738 16.3647 16.4377 16.2697 16.4377C16.2411 16.4377 16.2136 16.4399 16.1866 16.4447C16.1596 16.4496 16.1391 16.4555 16.1246 16.463V17.2353C16.1375 17.2412 16.1586 17.2466 16.1877 17.2514C16.2169 17.2563 16.2449 17.2584 16.2719 17.2584C16.3199 17.2584 16.362 17.2482 16.3982 17.2277C16.4343 17.2073 16.4651 17.1788 16.4894 17.1427C16.5137 17.1067 16.532 17.0631 16.545 17.0125C16.5579 16.9624 16.5644 16.9075 16.5644 16.8473Z"
            fill="#3F3F3F" />
        <path
            d="M17.6882 15.8355C17.6882 15.885 17.671 15.9265 17.6359 15.9604C17.6013 15.9943 17.5592 16.0115 17.5107 16.0115C17.4594 16.0115 17.4173 15.9948 17.3833 15.9604C17.3493 15.9265 17.332 15.885 17.332 15.8355C17.332 15.7871 17.3488 15.7462 17.3833 15.7128C17.4173 15.6795 17.4599 15.6633 17.5107 15.6633C17.5592 15.6633 17.6013 15.68 17.6359 15.7128C17.6704 15.7462 17.6882 15.7871 17.6882 15.8355ZM17.3531 17.4914V16.2149H17.665V17.4914H17.3531Z"
            fill="#3F3F3F" />
        <path
            d="M18.8966 17.4914V16.6508C18.8966 16.5863 18.8783 16.5357 18.8421 16.4996C18.806 16.4636 18.752 16.4453 18.6808 16.4453C18.6446 16.4453 18.6095 16.4485 18.5766 16.4544C18.5432 16.4603 18.5162 16.4673 18.4957 16.4754V17.4914H18.1875V16.2784C18.2523 16.2521 18.3251 16.2306 18.405 16.2133C18.4849 16.1961 18.5755 16.1875 18.677 16.1875C18.86 16.1875 18.9949 16.2246 19.0818 16.2984C19.1681 16.3726 19.2118 16.4786 19.2118 16.6175V17.4914H18.8966Z"
            fill="#3F3F3F" />
        <path
            d="M20.779 16.7661C20.779 16.7839 20.779 16.8016 20.779 16.8199C20.779 16.8382 20.7774 16.8565 20.7742 16.8759L19.9835 16.9868C19.9981 17.0815 20.0359 17.152 20.0963 17.1972C20.1568 17.2429 20.2323 17.2655 20.323 17.2655C20.3851 17.2655 20.4466 17.258 20.5086 17.2434C20.5707 17.2289 20.6225 17.2095 20.6652 17.1859L20.7531 17.4275C20.7019 17.4544 20.636 17.4765 20.5556 17.4942C20.4746 17.5114 20.3894 17.5201 20.2998 17.5201C20.1978 17.5201 20.1087 17.5039 20.0321 17.4716C19.9555 17.4393 19.8912 17.3936 19.8389 17.3339C19.7865 17.2747 19.7471 17.2036 19.7202 17.1218C19.6932 17.0395 19.6797 16.9496 19.6797 16.8517C19.6797 16.7537 19.6926 16.6644 19.7191 16.5826C19.7455 16.5013 19.7828 16.4314 19.8319 16.3722C19.881 16.313 19.9409 16.2678 20.0111 16.235C20.0812 16.2027 20.1611 16.1865 20.2501 16.1865C20.3354 16.1865 20.4104 16.2 20.4763 16.2274C20.5421 16.2549 20.5977 16.2942 20.6425 16.3453C20.6878 16.3964 20.7218 16.4578 20.7445 16.5293C20.7672 16.6014 20.779 16.68 20.779 16.7661ZM20.4773 16.7096C20.4773 16.6133 20.4563 16.5412 20.4147 16.4927C20.3732 16.4443 20.3154 16.4206 20.242 16.4206C20.1616 16.4206 20.0958 16.4513 20.0445 16.5121C19.9932 16.5729 19.9657 16.6633 19.963 16.7839L20.4773 16.7096Z"
            fill="#3F3F3F" />
        <path
            d="M22.0784 17.125C22.0784 17.2445 22.0363 17.3403 21.9526 17.4124C21.869 17.4845 21.7443 17.5205 21.5797 17.5205C21.5025 17.5205 21.4286 17.5114 21.3579 17.4926C21.2872 17.4737 21.2289 17.4527 21.1836 17.428L21.2834 17.1815C21.2991 17.1907 21.3185 17.2003 21.3428 17.2111C21.3665 17.2213 21.3919 17.2305 21.4184 17.238C21.4448 17.2456 21.4712 17.252 21.4977 17.2563C21.5241 17.2606 21.549 17.2633 21.5711 17.2633C21.6267 17.2633 21.6715 17.2509 21.7055 17.2256C21.7395 17.2003 21.7567 17.167 21.7567 17.1245C21.7567 17.0766 21.7389 17.0405 21.7028 17.0163C21.6666 16.9921 21.6213 16.9695 21.5668 16.9485C21.529 16.9345 21.4891 16.9178 21.447 16.899C21.4049 16.8796 21.3665 16.8559 21.3325 16.8279C21.2985 16.8 21.2705 16.7644 21.2484 16.7214C21.2262 16.6783 21.2154 16.6256 21.2154 16.5626C21.2154 16.4491 21.2543 16.3581 21.3325 16.2898C21.4108 16.2215 21.522 16.187 21.6666 16.187C21.747 16.187 21.8183 16.1956 21.8809 16.2128C21.9435 16.2301 21.9985 16.2521 22.0455 16.278L21.9483 16.4986C21.9219 16.4808 21.8857 16.4642 21.8388 16.4486C21.7918 16.4329 21.7481 16.4249 21.7071 16.4249C21.6515 16.4249 21.6083 16.4378 21.5786 16.4631C21.549 16.4884 21.5333 16.5201 21.5333 16.5578C21.5333 16.6073 21.5506 16.6434 21.5857 16.667C21.6202 16.6907 21.665 16.7128 21.719 16.7338C21.76 16.7494 21.8021 16.7661 21.8447 16.7838C21.8873 16.8021 21.9262 16.8258 21.9613 16.8549C21.9958 16.8839 22.0244 16.92 22.0466 16.963C22.0687 17.0061 22.0784 17.0599 22.0784 17.125Z"
            fill="#3F3F3F" />
        <path
            d="M23.3694 17.125C23.3694 17.2445 23.3273 17.3403 23.2437 17.4124C23.16 17.4845 23.0353 17.5205 22.8707 17.5205C22.7936 17.5205 22.7196 17.5114 22.6489 17.4926C22.5782 17.4737 22.5199 17.4527 22.4746 17.428L22.5745 17.1815C22.5901 17.1907 22.6095 17.2003 22.6338 17.2111C22.6576 17.2213 22.6829 17.2305 22.7094 17.238C22.7358 17.2456 22.7623 17.252 22.7887 17.2563C22.8152 17.2606 22.84 17.2633 22.8621 17.2633C22.9177 17.2633 22.9625 17.2509 22.9965 17.2256C23.0305 17.2003 23.0478 17.167 23.0478 17.1245C23.0478 17.0766 23.0299 17.0405 22.9938 17.0163C22.9576 16.9921 22.9123 16.9695 22.8578 16.9485C22.82 16.9345 22.7801 16.9178 22.738 16.899C22.6959 16.8796 22.6576 16.8559 22.6236 16.8279C22.5896 16.8 22.5615 16.7644 22.5394 16.7214C22.5172 16.6783 22.5065 16.6256 22.5065 16.5626C22.5065 16.4491 22.5453 16.3581 22.6236 16.2898C22.7018 16.2215 22.813 16.187 22.9576 16.187C23.038 16.187 23.1093 16.1956 23.1719 16.2128C23.2345 16.2301 23.2895 16.2521 23.3365 16.278L23.2393 16.4986C23.2129 16.4808 23.1767 16.4642 23.1298 16.4486C23.0828 16.4329 23.0391 16.4249 22.9981 16.4249C22.9425 16.4249 22.8993 16.4378 22.8697 16.4631C22.84 16.4884 22.8243 16.5201 22.8243 16.5578C22.8243 16.6073 22.8416 16.6434 22.8767 16.667C22.9112 16.6907 22.956 16.7128 23.01 16.7338C23.051 16.7494 23.0931 16.7661 23.1357 16.7838C23.1784 16.8021 23.2172 16.8258 23.2523 16.8549C23.2868 16.8839 23.3154 16.92 23.3376 16.963C23.3597 17.0061 23.3694 17.0599 23.3694 17.125Z"
            fill="#3F3F3F" />
    </g>
    <defs>
        <linearGradient id="paint0_linear_114_104" x1="-0.000221568" y1="7.49841" x2="26.9997" y2="7.49841"
            gradientUnits="userSpaceOnUse">
            <stop stop-color="#0070EA" />
            <stop offset="0.13" stop-color="#0869E1" />
            <stop offset="0.87" stop-color="#0070EA" />
            <stop offset="1" stop-color="#0070EA" />
        </linearGradient>
        <clipPath id="clip0_114_104">
            <rect width="27" height="18" fill="white" />
        </clipPath>
    </defs>
</svg>