<svg width="91" height="60" viewBox="0 0 91 60" fill="none" xmlns="http://www.w3.org/2000/svg">
    <path
        d="M90.1498 25.1319C90.1338 23.4097 89.939 21.6499 89.5406 19.9741C86.9215 8.94397 76.5792 0.911635 65.5705 1.52799C58.4082 1.92818 52.3982 4.91351 47.7086 10.4393C47.0422 11.2254 47.0422 11.8114 47.5746 12.6814C48.4214 14.0642 49.0842 15.5596 49.8256 17.0049C49.9614 17.2693 50.1007 17.5319 50.3044 17.9196C50.5974 17.389 50.7868 17.0317 50.9887 16.6815C54.8655 9.91942 62.5762 6.49639 70.1244 8.18826C77.7976 9.90692 83.4414 16.385 84.0148 24.1279C84.733 33.8306 77.7565 42.0666 67.8966 43.1546C63.5356 43.637 59.2908 42.331 55.8981 39.8191L55.9177 39.7995C55.9177 39.7995 52.3375 37.3573 50.2562 32.8909C50.1686 32.7015 50.0829 32.5121 50.0025 32.3192C49.9882 32.2852 49.9757 32.2513 49.9614 32.2174C49.7667 31.7404 49.5898 31.2544 49.4361 30.7578C49.4165 30.697 49.3986 30.6309 49.379 30.5666C49.3272 30.3915 49.2789 30.2146 49.2307 30.0378C49.1985 29.9163 49.1664 29.7912 49.136 29.6608C49.0949 29.4875 49.0538 29.316 49.0181 29.1409C49.0002 29.0552 48.9824 28.9694 48.9663 28.8819C48.9234 28.6603 48.8841 28.437 48.8484 28.2101C48.8412 28.1583 48.8341 28.1065 48.8251 28.0547C48.8037 27.9046 48.7858 27.7546 48.7698 27.6045C48.7394 27.299 48.6858 26.7184 48.6268 25.8072C48.5822 24.9211 48.5554 24.0314 48.4893 23.1488C48.4893 23.1345 48.4875 23.122 48.4875 23.1077C48.4875 23.1077 48.2392 16.6154 44.0711 11.0003C44.0711 11.0003 43.1028 9.50673 41.0912 7.6773C41.0876 7.67373 41.0822 7.67016 41.0787 7.6648C40.9214 7.52187 40.7571 7.37537 40.5856 7.22888C40.5356 7.186 40.4855 7.14312 40.4355 7.10203C40.2979 6.98591 40.1586 6.86978 40.0121 6.75187C39.9835 6.72864 39.9549 6.70542 39.9263 6.68219C39.7495 6.54106 39.5655 6.39813 39.3761 6.25521C39.3582 6.2427 39.3421 6.22841 39.3243 6.2159C38.2416 5.39945 36.9678 4.57585 35.4975 3.83265C34.9883 3.57181 34.4666 3.31991 33.9307 3.08229C25.0515 -0.85705 16.7977 1.17247 9.27806 6.92516C8.5295 7.49686 7.85776 8.17039 6.95912 8.9654C6.95912 7.0127 7.02522 5.28868 6.92875 3.57538C6.88766 2.8429 6.66255 2.02108 6.24986 1.42973C5.48879 0.338152 4.04526 0.000494169 2.86971 0.41676C1.60304 0.863398 0.825892 2.02644 0.824106 3.53786C0.818746 10.6841 0.786588 17.8303 0.845544 24.9747C0.861623 26.813 0.96167 28.6996 1.38508 30.479C3.68795 40.1604 9.77651 46.3061 19.4489 48.3731C29.1963 50.4563 37.4037 47.4281 43.6995 39.5779C43.8639 39.3743 43.9622 38.9348 43.8567 38.7258C42.8563 36.7534 41.8058 34.8079 40.7231 32.7694C40.607 32.9749 40.5159 33.1303 40.4301 33.2893C36.2961 41.0447 27.5402 44.6643 19.297 42.0273C11.0771 39.3975 5.99438 31.3241 7.18423 22.6504C8.91718 10.0248 23.6473 2.57491 35.1902 10.911V10.9378C35.1902 10.9378 35.46 11.1075 35.8905 11.4434C35.9709 11.5077 36.0513 11.5702 36.1299 11.6345C36.1335 11.6363 36.1353 11.6381 36.1371 11.6417C36.7177 12.1169 37.2554 12.6171 37.7503 13.1388C37.7539 13.1424 37.7575 13.1459 37.761 13.1495C37.8807 13.2746 37.9969 13.4032 38.113 13.5318C38.1219 13.5425 38.1309 13.5533 38.1416 13.564C39.1974 14.752 40.0478 16.0473 40.7053 17.4426C40.9054 17.8731 41.745 19.7651 42.1738 22.252C42.2757 22.8755 42.3525 23.5133 42.4007 24.1636C42.4043 24.2511 42.4382 25.3499 42.4722 26.3021C42.4775 26.7184 42.4936 27.1293 42.5186 27.5366C42.5222 27.6098 42.524 27.6652 42.5276 27.6938C42.5436 27.9082 42.599 29.559 43.1546 31.8047C43.4155 32.8712 43.7513 33.9057 44.164 34.9097C44.198 34.9919 44.2319 35.0723 44.2659 35.1545C44.2909 35.2134 44.3159 35.2706 44.3409 35.3295C44.3516 35.3545 44.3623 35.3813 44.3731 35.4064C44.3731 35.4064 45.0948 37.2394 46.608 39.3207C46.608 39.3207 48.4428 42.063 51.3978 44.3266L51.3996 44.3248C61.147 51.9855 74.991 50.2955 82.3516 43.1957C82.8661 42.6991 83.3895 42.2113 84.0631 41.5735C84.0631 43.4548 83.9898 45.1145 84.097 46.7652C84.1435 47.4959 84.4132 48.2999 84.8277 48.902C85.562 49.9703 86.993 50.2776 88.2222 49.8399C89.5013 49.3861 90.1784 48.316 90.1802 46.6848C90.1802 39.4976 90.2159 32.3138 90.1498 25.1319Z"
        fill="url(#paint0_linear_1309_11)" />
    <path
        d="M19.8507 27.2523C19.7221 27.8615 19.4738 28.3599 19.1057 28.744C18.7359 29.1282 18.2643 29.4051 17.6908 29.5748C17.1155 29.7445 16.4456 29.8285 15.6809 29.8285C14.7573 29.8285 14.0766 29.7856 13.6425 29.6999C13.4441 29.6606 13.3119 29.5962 13.2441 29.5051C13.1762 29.414 13.1637 29.2639 13.2065 29.0531L14.8091 21.5371C14.8394 21.3942 14.8823 21.2781 14.9341 21.1941C14.9859 21.1083 15.0556 21.0422 15.1432 20.9958C15.2307 20.9493 15.3415 20.9136 15.479 20.8904C15.6845 20.86 15.9685 20.8314 16.3294 20.8082C16.6903 20.785 17.0816 20.7725 17.4996 20.7725C18.0785 20.7725 18.5769 20.8153 18.9932 20.9011C19.4112 20.9868 19.7614 21.1244 20.0455 21.312C20.3295 21.4996 20.5242 21.7515 20.6332 22.0659C20.7422 22.3804 20.7494 22.7573 20.6565 23.1968L20.6046 23.4362C20.5493 23.7006 20.4564 23.9507 20.3224 24.1883C20.1884 24.426 20.0187 24.6332 19.815 24.8154C19.6113 24.9977 19.3826 25.137 19.1307 25.237C19.4613 25.3889 19.6953 25.6194 19.8329 25.9267C19.9704 26.2357 19.9936 26.6091 19.9007 27.0486L19.8507 27.2523ZM18.2357 27.2291L18.2714 27.0718C18.3482 26.702 18.2982 26.4001 18.1196 26.1625C17.9409 25.9249 17.5907 25.807 17.0708 25.807H15.5559L14.9967 28.435C15.0985 28.435 15.2664 28.4385 15.5005 28.4475C15.7363 28.4546 15.8917 28.46 15.9703 28.46C16.7117 28.46 17.2513 28.3635 17.5907 28.1688C17.9266 27.9723 18.1428 27.6596 18.2357 27.2291ZM18.9932 23.4594L19.0289 23.2897C19.0879 23.0056 19.0682 22.7823 18.9699 22.6162C18.8735 22.4518 18.6823 22.3303 18.3965 22.2553C18.1106 22.1803 17.714 22.141 17.2048 22.141C17.0458 22.141 16.7546 22.1499 16.3312 22.1695L15.8131 24.5867H17.3281C17.8408 24.5867 18.2285 24.4831 18.4912 24.2777C18.752 24.0758 18.9199 23.8007 18.9932 23.4594Z"
        fill="#3F3F3F" />
    <path
        d="M27.9194 29.5301C27.9069 29.5927 27.8783 29.6427 27.8282 29.6784C27.78 29.7159 27.7246 29.7338 27.6621 29.7338H26.3972C26.3472 29.7338 26.3025 29.7141 26.2668 29.6731C26.2293 29.632 26.2114 29.5855 26.2114 29.5301L26.1471 27.263H23.403L22.3721 29.5301C22.3489 29.5855 22.3114 29.632 22.2578 29.6731C22.206 29.7141 22.1542 29.7338 22.1041 29.7338H20.8393C20.7767 29.7338 20.7303 29.7159 20.6963 29.6784C20.6642 29.6409 20.6535 29.5927 20.6642 29.5301C20.6713 29.523 20.6785 29.5141 20.682 29.5069C20.6856 29.4998 20.6892 29.4873 20.6945 29.4712L24.2373 21.9909C24.6214 21.1798 25.261 20.7725 26.1542 20.7725C27.0511 20.7725 27.5174 21.178 27.5531 21.9909L27.9265 29.4712C27.9265 29.4837 27.9265 29.4926 27.9265 29.4998C27.9265 29.5087 27.9229 29.5176 27.9194 29.5301ZM26.1203 25.907L26.0095 22.3589C26.006 22.2857 25.9935 22.2356 25.9738 22.2106C25.9542 22.1856 25.9148 22.1731 25.8577 22.1731C25.8041 22.1731 25.7612 22.1856 25.729 22.2106C25.6987 22.2356 25.6647 22.2857 25.629 22.3589L24.0157 25.907H26.1203Z"
        fill="#3F3F3F" />
    <path
        d="M36.8884 22.0375C36.8723 22.1071 36.8384 22.1607 36.783 22.1982C36.7276 22.2358 36.6687 22.2536 36.6026 22.2536H34.5177L32.9794 29.4945C32.9634 29.5642 32.9276 29.6214 32.8722 29.666C32.8151 29.7107 32.7543 29.7339 32.6882 29.7339H31.5055C31.4466 29.7339 31.3983 29.7107 31.3572 29.6642C31.3162 29.6178 31.3037 29.5606 31.3197 29.4945L32.8579 22.2536H30.7713C30.7052 22.2536 30.6533 22.234 30.614 22.1947C30.5747 22.1554 30.564 22.1036 30.5783 22.0375L30.7766 21.0942C30.7891 21.0316 30.8213 20.978 30.8749 20.9334C30.9285 20.8887 30.991 20.8655 31.0607 20.8655H36.892C36.9617 20.8655 37.0153 20.8851 37.0528 20.9262C37.0903 20.9673 37.101 21.0227 37.0849 21.0924L36.8884 22.0375Z"
        fill="#3F3F3F" />
    <path
        d="M58.0253 22.0162C58.0092 22.0859 57.9753 22.1395 57.9199 22.177C57.8645 22.2145 57.8055 22.2324 57.7394 22.2324H55.6545L54.1163 29.4733C54.1002 29.543 54.0645 29.6001 54.0091 29.6448C53.952 29.6895 53.8912 29.7127 53.8251 29.7127H52.6424C52.5835 29.7127 52.5352 29.6895 52.4941 29.643C52.453 29.5965 52.4405 29.5394 52.4566 29.4733L53.9948 22.2324H51.9099C51.8438 22.2324 51.792 22.2127 51.7527 22.1734C51.7134 22.1341 51.7027 22.0823 51.717 22.0162L51.9153 21.0729C51.9278 21.0104 51.96 20.9568 52.0135 20.9121C52.0671 20.8675 52.1297 20.8442 52.1994 20.8442H58.0306C58.1003 20.8442 58.1539 20.8639 58.1914 20.905C58.229 20.9461 58.2397 21.0015 58.2236 21.0711L58.0253 22.0162Z"
        fill="#3F3F3F" />
    <path
        d="M63.3338 29.3908C63.3034 29.5391 63.2051 29.6213 63.0425 29.6409C62.9657 29.6481 62.8603 29.6642 62.7281 29.6874C62.5959 29.7106 62.3994 29.732 62.1403 29.7517C61.8795 29.7713 61.6705 29.7839 61.5115 29.7928C61.3525 29.7999 61.0952 29.8035 60.7433 29.8035C60.1769 29.8035 59.707 29.7374 59.3337 29.6034C58.9603 29.4694 58.6959 29.2229 58.5386 28.8638C58.3814 28.5047 58.3707 28.0044 58.5065 27.3631L59.3926 23.1968C59.5284 22.5555 59.7517 22.0552 60.0626 21.6944C60.3734 21.3335 60.7433 21.0851 61.172 20.9511C61.6008 20.8172 62.0992 20.7493 62.6656 20.7493C63.5124 20.7493 64.2556 20.8064 64.897 20.919C64.9899 20.9297 65.0488 20.9547 65.0738 20.9887C65.0989 21.0244 65.1024 21.0834 65.0828 21.1691L64.9202 21.932C64.9077 21.9981 64.8738 22.0534 64.8148 22.1017C64.7558 22.1481 64.6951 22.1714 64.629 22.1714H62.1939C61.8473 22.1714 61.5901 22.2446 61.4186 22.3929C61.2471 22.5412 61.122 22.8092 61.0398 23.1968L60.7665 24.4849H64.0001C64.0662 24.4849 64.118 24.5082 64.1538 24.5546C64.1913 24.6011 64.202 24.6582 64.1859 24.7243L64.0055 25.5801C63.993 25.6462 63.9573 25.7016 63.8947 25.7498C63.8322 25.7963 63.7732 25.8195 63.7143 25.8195H60.4806L60.1537 27.3631C60.0715 27.7472 60.0858 28.0152 60.1948 28.1635C60.3038 28.3135 60.5307 28.3886 60.8772 28.3886H63.3123C63.3856 28.3886 63.4392 28.41 63.4731 28.4529C63.5053 28.4957 63.5142 28.5547 63.4999 28.628L63.3338 29.3908Z"
        fill="#3F3F3F" />
    <path
        d="M68.3055 29.8057C67.9178 29.8057 67.5444 29.7485 67.1907 29.636C66.8352 29.5234 66.5243 29.3305 66.2563 29.0571C65.9883 28.7838 65.8061 28.4068 65.7079 27.9298C65.6114 27.4528 65.6364 26.8615 65.7829 26.1594L66.1563 24.405C66.3617 23.4527 66.6851 22.7077 67.1228 22.1682C67.5623 21.6287 68.0447 21.2571 68.5735 21.0552C69.1023 20.8533 69.6543 20.7515 70.2332 20.7515C70.5315 20.7515 70.8138 20.7818 71.0782 20.8426C71.3426 20.9033 71.5677 20.9712 71.7535 21.0498C71.9393 21.1284 72.0537 21.1838 72.0966 21.2195C72.2484 21.316 72.3127 21.4232 72.2895 21.5393L72.1144 22.3486C72.0751 22.5434 71.9644 22.6023 71.7821 22.5291C71.6571 22.4791 71.4891 22.4237 71.2783 22.3665C71.0675 22.3076 70.8567 22.2611 70.6459 22.2272C70.4368 22.1914 70.2332 22.1753 70.0349 22.1753C69.6383 22.1753 69.3006 22.245 69.0183 22.3844C68.7361 22.5237 68.4984 22.7578 68.3019 23.0829C68.1054 23.4099 67.9482 23.8493 67.8267 24.405L67.4533 26.1594C67.3408 26.6989 67.3122 27.133 67.3693 27.4617C67.4247 27.7905 67.5659 28.0263 67.7892 28.1728C68.0125 28.3193 68.3198 28.3908 68.7128 28.3908C69.0201 28.3908 69.3453 28.3532 69.6919 28.28C70.0384 28.2067 70.3439 28.1228 70.6119 28.0299C70.8263 27.9566 70.9139 28.0156 70.8746 28.2103L70.6995 29.0196C70.6762 29.1357 70.5655 29.2447 70.3672 29.3466C70.1849 29.4395 69.8991 29.5395 69.5114 29.6467C69.1237 29.7521 68.7218 29.8057 68.3055 29.8057Z"
        fill="#3F3F3F" />
    <path
        d="M79.1394 29.4733C79.1234 29.543 79.0876 29.6001 79.0322 29.6448C78.9751 29.6895 78.9143 29.7127 78.8482 29.7127H77.6655C77.6066 29.7127 77.5583 29.6895 77.5173 29.643C77.4762 29.5965 77.4637 29.5394 77.4797 29.4733L78.2551 25.8198H74.8696L74.0942 29.4733C74.0781 29.5394 74.0406 29.5948 73.9799 29.643C73.9191 29.6912 73.8602 29.7127 73.803 29.7127H72.6203C72.5614 29.7127 72.5131 29.6895 72.472 29.643C72.4309 29.5965 72.4184 29.5394 72.4345 29.4733L74.2175 21.0729C74.2336 21.0104 74.2693 20.9568 74.3247 20.9121C74.3819 20.8675 74.4408 20.8442 74.5016 20.8442H75.6843C75.7468 20.8442 75.7986 20.8675 75.8379 20.9121C75.879 20.9568 75.8915 21.0104 75.8754 21.0729L75.1769 24.3637H78.5624L79.2609 21.0729C79.277 21.0104 79.3127 20.9568 79.3681 20.9121C79.4253 20.8675 79.4842 20.8442 79.545 20.8442H80.7277C80.7974 20.8442 80.851 20.8639 80.8885 20.905C80.926 20.9461 80.9367 21.0015 80.9206 21.0711L79.1394 29.4733Z"
        fill="#3F3F3F" />
    <path d="M19.0138 53.5469V58.3099H17.9508V53.5469H16.7949V52.6179H20.1608V53.5469H19.0138Z" fill="#3F3F3F" />
    <path
        d="M23.6382 54.9066C23.5024 54.8655 23.3469 54.8458 23.1737 54.8458C23.079 54.8458 22.9861 54.853 22.895 54.869C22.8038 54.8851 22.727 54.9048 22.6627 54.9298V58.3117H21.6426V54.2848C21.8516 54.1973 22.0981 54.1258 22.3822 54.0687C22.6645 54.0115 22.9718 53.9829 23.3023 53.9829C23.5077 53.9829 23.6828 53.9954 23.8275 54.0204L23.6382 54.9066Z"
        fill="#3F3F3F" />
    <path
        d="M27.8743 58.3206C27.5795 58.3778 27.2722 58.4064 26.9524 58.4064C26.3914 58.4064 25.968 58.2813 25.6804 58.033C25.3928 57.7846 25.248 57.3845 25.248 56.8342V54.074H26.2682V56.8574C26.2682 57.3023 26.4951 57.5256 26.9506 57.5256C27.0882 57.5256 27.2097 57.5167 27.3115 57.4988C27.4133 57.4809 27.4937 57.4595 27.5491 57.4327V54.074H28.5782V58.1009C28.4031 58.1902 28.1673 58.2634 27.8743 58.3206Z"
        fill="#3F3F3F" />
    <path
        d="M33.774 55.9034C33.774 55.9623 33.774 56.0213 33.774 56.082C33.774 56.1428 33.7686 56.2035 33.7579 56.2678L31.1406 56.6358C31.1888 56.9503 31.3139 57.1843 31.514 57.3344C31.7141 57.4862 31.9642 57.5613 32.2643 57.5613C32.4698 57.5613 32.6735 57.5363 32.8789 57.488C33.0844 57.4398 33.2559 57.3755 33.397 57.2969L33.6882 58.099C33.5185 58.1884 33.3005 58.2616 33.0343 58.3206C32.7664 58.3777 32.4841 58.4063 32.1875 58.4063C31.8499 58.4063 31.5551 58.3527 31.3014 58.2455C31.0477 58.1383 30.8351 57.9865 30.6618 57.7882C30.4885 57.5917 30.3581 57.3558 30.2688 57.0843C30.1794 56.8109 30.1348 56.5126 30.1348 56.1874C30.1348 55.8623 30.1776 55.5657 30.2652 55.2942C30.3527 55.0244 30.476 54.7921 30.6386 54.5956C30.8011 54.3991 30.9995 54.249 31.2317 54.14C31.464 54.0328 31.7284 53.9792 32.0231 53.9792C32.3054 53.9792 32.5538 54.0239 32.7717 54.115C32.9897 54.2061 33.1737 54.3366 33.322 54.5063C33.472 54.676 33.5846 54.8797 33.6596 55.1173C33.7365 55.3567 33.774 55.6175 33.774 55.9034ZM32.7771 55.7158C32.7771 55.396 32.7074 55.1566 32.5698 54.9958C32.4323 54.835 32.2411 54.7564 31.9981 54.7564C31.7319 54.7564 31.514 54.8582 31.3443 55.0601C31.1745 55.262 31.0834 55.5621 31.0745 55.9623L32.7771 55.7158Z"
        fill="#3F3F3F" />
    <path
        d="M40.4219 58.3116V55.8819H38.7479V58.3116H37.6777V52.6196H38.7479V54.9725H40.4219V52.6196H41.4813V58.3116H40.4219Z"
        fill="#3F3F3F" />
    <path
        d="M46.3981 58.0991C46.3213 58.1402 46.2284 58.1795 46.1176 58.217C46.0069 58.2546 45.8854 58.2867 45.7514 58.3153C45.6174 58.3439 45.4762 58.3653 45.328 58.3832C45.1797 58.3993 45.0278 58.4082 44.8742 58.4082C44.2578 58.4082 43.7987 58.2885 43.4968 58.0491C43.1948 57.8097 43.043 57.472 43.043 57.0379C43.043 56.7521 43.1091 56.518 43.2431 56.3358C43.3753 56.1536 43.5521 56.0106 43.7719 55.9052C43.9916 55.7998 44.2453 55.7248 44.5312 55.6766C44.817 55.6301 45.1154 55.598 45.4262 55.5819V55.3639C45.4262 55.1442 45.3583 54.987 45.2208 54.8958C45.0832 54.8029 44.8974 54.7583 44.6616 54.7583C44.4668 54.7583 44.2632 54.7851 44.0506 54.8369C43.838 54.8887 43.6611 54.9476 43.5218 55.012L43.2609 54.2866C43.4342 54.2152 43.6558 54.1473 43.9237 54.0812C44.1917 54.0151 44.474 53.9829 44.7741 53.9829C45.2958 53.9829 45.6978 54.099 45.9783 54.3331C46.2588 54.5653 46.3981 54.953 46.3981 55.4925V58.0991ZM45.428 56.2697C45.2386 56.2804 45.0582 56.2947 44.8849 56.3126C44.7116 56.3304 44.5615 56.3662 44.4311 56.418C44.3025 56.4698 44.1989 56.5448 44.1203 56.6395C44.0417 56.7342 44.0023 56.8593 44.0023 57.0165C44.0023 57.2166 44.0756 57.3702 44.2239 57.481C44.3704 57.5917 44.5776 57.6453 44.8438 57.6453C44.9546 57.6453 45.0636 57.6382 45.1743 57.6221C45.2851 57.606 45.3691 57.5846 45.428 57.556V56.2697Z"
        fill="#3F3F3F" />
    <path
        d="M51.6042 56.1732C51.6042 56.4984 51.5631 56.7949 51.4827 57.0665C51.4023 57.3363 51.2826 57.5667 51.1218 57.7579C50.961 57.9491 50.7627 58.0956 50.5251 58.201C50.2875 58.3064 50.0123 58.3582 49.7033 58.3582C49.5925 58.3582 49.4835 58.3492 49.3728 58.3314C49.262 58.3135 49.1762 58.2921 49.1119 58.2653V60H48.0918V54.2848C48.2419 54.2027 48.4509 54.1312 48.7153 54.0722C48.9797 54.0115 49.2673 53.9829 49.5764 53.9829C50.2374 53.9829 50.7395 54.1759 51.0843 54.56C51.4326 54.9441 51.6042 55.4818 51.6042 56.1732ZM50.568 56.1732C50.568 55.7427 50.484 55.4086 50.316 55.171C50.1481 54.9334 49.9069 54.8137 49.5925 54.8137C49.4978 54.8137 49.4067 54.8208 49.3174 54.8369C49.228 54.853 49.1602 54.8726 49.1119 54.8976V57.4613C49.1548 57.481 49.2245 57.4988 49.3209 57.5149C49.4174 57.531 49.5103 57.5382 49.5996 57.5382C49.7586 57.5382 49.898 57.5042 50.0177 57.4363C50.1374 57.3684 50.2392 57.2737 50.3196 57.154C50.4 57.0343 50.4608 56.8896 50.5036 56.7217C50.5465 56.5555 50.568 56.3733 50.568 56.1732Z"
        fill="#3F3F3F" />
    <path
        d="M56.6823 56.1732C56.6823 56.4984 56.6412 56.7949 56.5608 57.0665C56.4804 57.3363 56.3607 57.5667 56.1999 57.7579C56.0391 57.9491 55.8408 58.0956 55.6032 58.201C55.3656 58.3064 55.0905 58.3582 54.7814 58.3582C54.6706 58.3582 54.5616 58.3492 54.4509 58.3314C54.3401 58.3135 54.2544 58.2921 54.19 58.2653V60H53.1699V54.2848C53.32 54.2027 53.529 54.1312 53.7934 54.0722C54.0578 54.0115 54.3455 53.9829 54.6546 53.9829C55.3156 53.9829 55.8176 54.1759 56.1624 54.56C56.5108 54.9441 56.6823 55.4818 56.6823 56.1732ZM55.6461 56.1732C55.6461 55.7427 55.5621 55.4086 55.3942 55.171C55.2262 54.9334 54.9851 54.8137 54.6706 54.8137C54.5759 54.8137 54.4848 54.8208 54.3955 54.8369C54.3062 54.853 54.2383 54.8726 54.19 54.8976V57.4613C54.2329 57.481 54.3026 57.4988 54.3991 57.5149C54.4955 57.531 54.5884 57.5382 54.6778 57.5382C54.8368 57.5382 54.9761 57.5042 55.0958 57.4363C55.2155 57.3684 55.3174 57.2737 55.3978 57.154C55.4781 57.0343 55.5389 56.8896 55.5818 56.7217C55.6246 56.5555 55.6461 56.3733 55.6461 56.1732Z"
        fill="#3F3F3F" />
    <path
        d="M59.3666 52.8144C59.3666 52.9787 59.3095 53.1163 59.1933 53.2288C59.079 53.3414 58.9396 53.3986 58.7788 53.3986C58.6091 53.3986 58.4698 53.3432 58.3572 53.2288C58.2447 53.1163 58.1875 52.9787 58.1875 52.8144C58.1875 52.6536 58.2429 52.5178 58.3572 52.407C58.4698 52.2963 58.6109 52.2427 58.7788 52.2427C58.9396 52.2427 59.079 52.2981 59.1933 52.407C59.3077 52.5178 59.3666 52.6536 59.3666 52.8144ZM58.2572 58.3116V54.0739H59.2898V58.3116H58.2572Z"
        fill="#3F3F3F" />
    <path
        d="M63.3671 58.3117V55.5211C63.3671 55.3067 63.3063 55.1388 63.1866 55.0191C63.0669 54.8994 62.8883 54.8387 62.6524 54.8387C62.5327 54.8387 62.4166 54.8494 62.3076 54.869C62.1969 54.8887 62.1075 54.9119 62.0397 54.9387V58.3117H61.0195V54.2848C61.2339 54.1973 61.4751 54.1258 61.7395 54.0687C62.0039 54.0115 62.3041 53.9829 62.6399 53.9829C63.2456 53.9829 63.6922 54.1062 63.9798 54.3509C64.2657 54.5975 64.4104 54.9494 64.4104 55.4104V58.3117H63.3671Z"
        fill="#3F3F3F" />
    <path
        d="M69.5982 55.9034C69.5982 55.9623 69.5982 56.0213 69.5982 56.082C69.5982 56.1428 69.5928 56.2035 69.5821 56.2678L66.9648 56.6358C67.0131 56.9503 67.1381 57.1843 67.3382 57.3344C67.5383 57.4862 67.7884 57.5613 68.0885 57.5613C68.294 57.5613 68.4977 57.5363 68.7031 57.488C68.9086 57.4398 69.0801 57.3755 69.2212 57.2969L69.5124 58.099C69.3427 58.1884 69.1248 58.2616 68.8586 58.3206C68.5906 58.3777 68.3083 58.4063 68.0117 58.4063C67.6741 58.4063 67.3793 58.3527 67.1256 58.2455C66.8719 58.1383 66.6593 57.9865 66.486 57.7882C66.3127 57.5917 66.1823 57.3558 66.093 57.0843C66.0036 56.8109 65.959 56.5126 65.959 56.1874C65.959 55.8623 66.0019 55.5657 66.0894 55.2942C66.1769 55.0244 66.3002 54.7921 66.4628 54.5956C66.6254 54.3991 66.8237 54.249 67.0559 54.14C67.2882 54.0328 67.5526 53.9792 67.8474 53.9792C68.1296 53.9792 68.378 54.0239 68.5959 54.115C68.8139 54.2061 68.9979 54.3366 69.1462 54.5063C69.2963 54.676 69.4088 54.8797 69.4839 55.1173C69.5589 55.3567 69.5982 55.6175 69.5982 55.9034ZM68.5995 55.7158C68.5995 55.396 68.5298 55.1566 68.3923 54.9958C68.2547 54.835 68.0635 54.7564 67.8206 54.7564C67.5544 54.7564 67.3364 54.8582 67.1667 55.0601C66.997 55.262 66.9059 55.5621 66.8969 55.9623L68.5995 55.7158Z"
        fill="#3F3F3F" />
    <path
        d="M73.9016 57.0952C73.9016 57.4918 73.7622 57.8098 73.4853 58.0492C73.2084 58.2886 72.7957 58.4083 72.2508 58.4083C71.9953 58.4083 71.7505 58.3779 71.5165 58.3154C71.2825 58.2528 71.0895 58.1832 70.9395 58.101L71.27 57.2827C71.3218 57.3131 71.3861 57.3453 71.4665 57.381C71.5451 57.415 71.6291 57.4453 71.7166 57.4703C71.8041 57.4953 71.8917 57.5168 71.9792 57.5311C72.0668 57.5454 72.1489 57.5543 72.2222 57.5543C72.4062 57.5543 72.5545 57.5132 72.6671 57.4292C72.7796 57.3453 72.8368 57.2345 72.8368 57.0934C72.8368 56.9344 72.7778 56.8147 72.6581 56.7343C72.5384 56.6539 72.3883 56.5788 72.2079 56.5092C72.0828 56.4627 71.9506 56.4073 71.8113 56.3448C71.6719 56.2805 71.5451 56.2019 71.4325 56.109C71.32 56.0161 71.2271 55.8982 71.1538 55.7552C71.0806 55.6123 71.0449 55.4372 71.0449 55.2282C71.0449 54.8512 71.1735 54.5493 71.4325 54.3224C71.6916 54.0955 72.0596 53.9812 72.5384 53.9812C72.8046 53.9812 73.0404 54.0098 73.2477 54.067C73.4549 54.1241 73.6371 54.1974 73.7926 54.2831L73.471 55.0156C73.3835 54.9567 73.2638 54.9013 73.1083 54.8495C72.9529 54.7977 72.8082 54.7709 72.6724 54.7709C72.4884 54.7709 72.3455 54.8137 72.2472 54.8977C72.1489 54.9817 72.0971 55.0871 72.0971 55.2121C72.0971 55.3765 72.1543 55.4962 72.2704 55.5748C72.3848 55.6534 72.5331 55.7267 72.7117 55.7963C72.8475 55.8481 72.9868 55.9035 73.128 55.9625C73.2691 56.0232 73.3977 56.1018 73.5139 56.1983C73.6282 56.2948 73.7229 56.4145 73.7961 56.5574C73.8694 56.7003 73.9016 56.879 73.9016 57.0952Z"
        fill="#3F3F3F" />
    <path
        d="M78.175 57.0952C78.175 57.4918 78.0356 57.8098 77.7587 58.0492C77.4818 58.2886 77.0691 58.4083 76.5242 58.4083C76.2687 58.4083 76.024 58.3779 75.7899 58.3154C75.5559 58.2528 75.363 58.1832 75.2129 58.101L75.5434 57.2827C75.5952 57.3131 75.6595 57.3453 75.7399 57.381C75.8185 57.415 75.9025 57.4453 75.99 57.4703C76.0776 57.4953 76.1651 57.5168 76.2527 57.5311C76.3402 57.5454 76.4224 57.5543 76.4956 57.5543C76.6796 57.5543 76.8279 57.5132 76.9405 57.4292C77.053 57.3453 77.1102 57.2345 77.1102 57.0934C77.1102 56.9344 77.0513 56.8147 76.9316 56.7343C76.8119 56.6539 76.6618 56.5788 76.4813 56.5092C76.3563 56.4627 76.2241 56.4073 76.0847 56.3448C75.9454 56.2805 75.8185 56.2019 75.706 56.109C75.5934 56.0161 75.5005 55.8982 75.4273 55.7552C75.354 55.6123 75.3183 55.4372 75.3183 55.2282C75.3183 54.8512 75.4469 54.5493 75.706 54.3224C75.965 54.0955 76.3331 53.9812 76.8119 53.9812C77.078 53.9812 77.3139 54.0098 77.5211 54.067C77.7284 54.1241 77.9106 54.1974 78.066 54.2831L77.7444 55.0156C77.6569 54.9567 77.5372 54.9013 77.3818 54.8495C77.2263 54.7977 77.0816 54.7709 76.9458 54.7709C76.7618 54.7709 76.6189 54.8137 76.5206 54.8977C76.4224 54.9817 76.3706 55.0871 76.3706 55.2121C76.3706 55.3765 76.4277 55.4962 76.5439 55.5748C76.6582 55.6534 76.8065 55.7267 76.9851 55.7963C77.1209 55.8481 77.2603 55.9035 77.4014 55.9625C77.5426 56.0232 77.6712 56.1018 77.7873 56.1983C77.9016 56.2948 77.9963 56.4145 78.0696 56.5574C78.1428 56.7003 78.175 56.879 78.175 57.0952Z"
        fill="#3F3F3F" />
    <defs>
        <linearGradient id="paint0_linear_1309_11" x1="0.809813" y1="25.1352" x2="90.1889" y2="25.1352"
            gradientUnits="userSpaceOnUse">
            <stop stop-color="#0070EA" />
            <stop offset="0.13" stop-color="#0869E1" />
            <stop offset="0.87" stop-color="#0070EA" />
            <stop offset="1" stop-color="#0070EA" />
        </linearGradient>
    </defs>
</svg>