<svg width="98" height="66" viewBox="0 0 98 66" fill="none" xmlns="http://www.w3.org/2000/svg">
    <path
        d="M97.9561 27.3857C97.9385 25.4906 97.725 23.5542 97.2882 21.7102C94.4165 9.57284 83.0766 0.734228 71.0061 1.41246C63.153 1.85282 56.5634 5.13781 51.4213 11.2183C50.6907 12.0833 50.6907 12.7281 51.2744 13.6855C52.2029 15.2071 52.9297 16.8525 53.7426 18.4429C53.8915 18.7339 54.0443 19.0228 54.2676 19.4494C54.5888 18.8656 54.7965 18.4724 55.0178 18.0871C59.2686 10.6462 67.723 6.87958 75.9992 8.74127C84.4125 10.6324 90.6006 17.7607 91.2294 26.2809C92.0169 36.9576 84.3675 46.0203 73.5565 47.2175C68.7749 47.7483 64.1207 46.3113 60.4008 43.5472L60.4223 43.5256C60.4223 43.5256 56.4968 40.8382 54.2147 35.9235C54.1187 35.7152 54.0247 35.5068 53.9365 35.2945C53.9209 35.2571 53.9071 35.2197 53.8915 35.1824C53.678 34.6575 53.484 34.1228 53.3156 33.5763C53.294 33.5094 53.2744 33.4367 53.2529 33.3659C53.1961 33.1733 53.1432 32.9786 53.0903 32.784C53.055 32.6503 53.0198 32.5127 52.9865 32.3692C52.9414 32.1785 52.8964 31.9898 52.8572 31.7971C52.8376 31.7028 52.818 31.6084 52.8004 31.5121C52.7534 31.2683 52.7103 31.0226 52.6711 30.7729C52.6633 30.7159 52.6554 30.6589 52.6456 30.6019C52.6221 30.4368 52.6025 30.2716 52.5849 30.1065C52.5516 29.7703 52.4928 29.1314 52.4282 28.1288C52.3792 27.1537 52.3498 26.1747 52.2774 25.2036C52.2774 25.1879 52.2754 25.1741 52.2754 25.1584C52.2754 25.1584 52.0031 18.0143 47.4331 11.8356C47.4331 11.8356 46.3714 10.1921 44.1657 8.17903C44.1618 8.1751 44.1559 8.17116 44.152 8.16527C43.9796 8.008 43.7994 7.84679 43.6114 7.68559C43.5565 7.63841 43.5017 7.59123 43.4468 7.54601C43.296 7.41823 43.1432 7.29045 42.9826 7.1607C42.9512 7.13514 42.9199 7.10959 42.8885 7.08403C42.6946 6.92873 42.4928 6.77146 42.2852 6.61418C42.2656 6.60042 42.248 6.5847 42.2284 6.57093C41.0413 5.67253 39.6447 4.76625 38.0325 3.94845C37.4742 3.66143 36.9022 3.38424 36.3146 3.12278C26.579 -1.212 17.5291 1.02125 9.28421 7.35139C8.46345 7.98047 7.72692 8.72161 6.74161 9.59643C6.74161 7.44772 6.81409 5.55064 6.70831 3.66536C6.66325 2.85935 6.41644 1.95504 5.96394 1.30433C5.12946 0.10318 3.5467 -0.268372 2.25777 0.189679C0.868932 0.681149 0.0168256 1.96094 0.0148667 3.62408C0.00899011 11.4876 -0.0262694 19.3511 0.0383731 27.2127C0.0560029 29.2356 0.165699 31.3116 0.62995 33.2696C3.15493 43.9227 9.83074 50.6853 20.436 52.9599C31.1236 55.2521 40.1226 51.9199 47.0257 43.2818C47.2059 43.0577 47.3136 42.5741 47.198 42.3441C46.1011 40.1738 44.9493 38.0329 43.7622 35.7899C43.6349 36.0159 43.535 36.187 43.4409 36.3619C38.9081 44.8958 29.3077 48.8787 20.2695 45.9771C11.2568 43.0833 5.68382 34.1995 6.98842 24.6551C8.88852 10.7622 25.0394 2.56446 37.6956 11.7373V11.7668C37.6956 11.7668 37.9914 11.9535 38.4635 12.3231C38.5516 12.3939 38.6398 12.4627 38.7259 12.5335C38.7299 12.5354 38.7318 12.5374 38.7338 12.5413C39.3704 13.0642 39.96 13.6147 40.5026 14.1887C40.5066 14.1927 40.5105 14.1966 40.5144 14.2005C40.6456 14.3381 40.773 14.4797 40.9003 14.6212C40.9101 14.633 40.9199 14.6448 40.9316 14.6566C42.0893 15.9639 43.0217 17.3892 43.7426 18.9245C43.962 19.3983 44.8827 21.4802 45.3528 24.2167C45.4644 24.9028 45.5487 25.6046 45.6016 26.3202C45.6055 26.4165 45.6427 27.6255 45.6799 28.6734C45.6858 29.1314 45.7034 29.5836 45.7308 30.0318C45.7348 30.1124 45.7367 30.1733 45.7406 30.2048C45.7583 30.4407 45.819 32.2572 46.4282 34.7283C46.7142 35.9019 47.0825 37.0402 47.535 38.145C47.5722 38.2354 47.6094 38.3239 47.6466 38.4143C47.674 38.4792 47.7015 38.5421 47.7289 38.607C47.7406 38.6345 47.7524 38.664 47.7641 38.6915C47.7641 38.6915 48.5555 40.7085 50.2147 42.9987C50.2147 42.9987 52.2264 46.0164 55.4664 48.5072L55.4684 48.5052C66.1559 56.9349 81.3352 55.0752 89.4057 47.2627C89.9698 46.7162 90.5438 46.1795 91.2823 45.4777C91.2823 47.5478 91.202 49.3741 91.3195 51.1906C91.3704 51.9946 91.6662 52.8793 92.1207 53.5418C92.9258 54.7174 94.4948 55.0555 95.8425 54.5739C97.2451 54.0745 97.9875 52.897 97.9894 51.1021C97.9894 43.1934 98.0286 35.2886 97.9561 27.3857Z"
        fill="white" />
    <path
        d="M20.8748 29.7201C20.7338 30.3905 20.4615 30.9389 20.058 31.3616C19.6525 31.7843 19.1353 32.089 18.5065 32.2757C17.8758 32.4625 17.1412 32.5549 16.3028 32.5549C15.2901 32.5549 14.5438 32.5077 14.0678 32.4134C13.8503 32.3701 13.7054 32.2993 13.6309 32.1991C13.5565 32.0988 13.5428 31.9337 13.5898 31.7017L15.3469 23.4312C15.3802 23.274 15.4272 23.1462 15.484 23.0538C15.5408 22.9594 15.6172 22.8867 15.7132 22.8356C15.8092 22.7845 15.9306 22.7451 16.0815 22.7196C16.3067 22.6862 16.6182 22.6547 17.0139 22.6292C17.4096 22.6036 17.8386 22.5898 18.2969 22.5898C18.9316 22.5898 19.4781 22.637 19.9346 22.7314C20.3929 22.8257 20.7769 22.9771 21.0883 23.1835C21.3998 23.39 21.6133 23.6671 21.7328 24.0131C21.8523 24.3591 21.8601 24.7739 21.7583 25.2575L21.7015 25.521C21.6407 25.8119 21.5389 26.0871 21.392 26.3486C21.245 26.6101 21.0589 26.8381 20.8356 27.0386C20.6123 27.2392 20.3616 27.3925 20.0854 27.5026C20.4478 27.6697 20.7044 27.9233 20.8552 28.2614C21.0061 28.6015 21.0315 29.0124 20.9297 29.496L20.8748 29.7201ZM19.104 29.6945L19.1432 29.5215C19.2274 29.1146 19.1726 28.7824 18.9767 28.5209C18.7808 28.2594 18.3969 28.1297 17.8268 28.1297H16.1657L15.5526 31.0215C15.6642 31.0215 15.8484 31.0254 16.105 31.0353C16.3636 31.0431 16.534 31.049 16.6202 31.049C17.4331 31.049 18.0247 30.9429 18.3969 30.7286C18.7651 30.5124 19.0021 30.1683 19.104 29.6945ZM19.9346 25.5465L19.9737 25.3598C20.0384 25.0472 20.0168 24.8015 19.9091 24.6186C19.8033 24.4378 19.5937 24.3041 19.2803 24.2215C18.9669 24.139 18.532 24.0957 17.9737 24.0957C17.7994 24.0957 17.4801 24.1055 17.0159 24.1272L16.4478 26.787H18.1089C18.6711 26.787 19.0962 26.673 19.3841 26.4469C19.6701 26.2248 19.8542 25.922 19.9346 25.5465Z"
        fill="white" />
    <path
        d="M29.725 32.2266C29.7113 32.2954 29.6799 32.3505 29.6251 32.3898C29.5722 32.4311 29.5115 32.4507 29.4429 32.4507H28.056C28.0012 32.4507 27.9522 32.4291 27.913 32.3839C27.8719 32.3387 27.8523 32.2875 27.8523 32.2266L27.7818 29.7319H24.773L23.6427 32.2266C23.6172 32.2875 23.5761 32.3387 23.5173 32.3839C23.4605 32.4291 23.4037 32.4507 23.3489 32.4507H21.962C21.8934 32.4507 21.8425 32.4311 21.8053 32.3898C21.77 32.3485 21.7583 32.2954 21.77 32.2266C21.7779 32.2187 21.7857 32.2089 21.7896 32.201C21.7935 32.1932 21.7975 32.1794 21.8033 32.1617L25.6878 23.9306C26.1089 23.0381 26.8102 22.5898 27.7896 22.5898C28.773 22.5898 29.2842 23.0361 29.3234 23.9306L29.7328 32.1617C29.7328 32.1755 29.7328 32.1853 29.7328 32.1932C29.7328 32.203 29.7289 32.2128 29.725 32.2266ZM27.7524 28.2398L27.631 24.3355C27.627 24.2549 27.6133 24.1999 27.5918 24.1724C27.5702 24.1449 27.5271 24.1311 27.4645 24.1311C27.4057 24.1311 27.3587 24.1449 27.3234 24.1724C27.2901 24.1999 27.2529 24.2549 27.2137 24.3355L25.4449 28.2398H27.7524Z"
        fill="white" />
    <path
        d="M39.5581 23.983C39.5405 24.0596 39.5033 24.1186 39.4426 24.1599C39.3819 24.2012 39.3172 24.2208 39.2447 24.2208H36.9587L35.2722 32.1886C35.2545 32.2652 35.2153 32.3282 35.1546 32.3773C35.0919 32.4264 35.0253 32.452 34.9529 32.452H33.6561C33.5914 32.452 33.5386 32.4264 33.4935 32.3753C33.4485 32.3242 33.4347 32.2613 33.4524 32.1886L35.139 24.2208H32.851C32.7785 24.2208 32.7217 24.1992 32.6786 24.156C32.6355 24.1127 32.6238 24.0557 32.6394 23.983L32.8569 22.945C32.8706 22.8762 32.9058 22.8172 32.9646 22.7681C33.0234 22.7189 33.0919 22.6934 33.1683 22.6934H39.5621C39.6385 22.6934 39.6972 22.715 39.7384 22.7602C39.7795 22.8054 39.7913 22.8664 39.7736 22.943L39.5581 23.983Z"
        fill="white" />
    <path
        d="M62.732 23.9556C62.7143 24.0323 62.6771 24.0913 62.6164 24.1326C62.5557 24.1738 62.491 24.1935 62.4186 24.1935H60.1326L58.446 32.1612C58.4283 32.2379 58.3892 32.3008 58.3284 32.35C58.2658 32.3991 58.1992 32.4247 58.1267 32.4247H56.8299C56.7653 32.4247 56.7124 32.3991 56.6673 32.348C56.6223 32.2969 56.6086 32.234 56.6262 32.1612L58.3128 24.1935H56.0268C55.9543 24.1935 55.8975 24.1719 55.8544 24.1286C55.8113 24.0854 55.7995 24.0284 55.8152 23.9556L56.0327 22.9176C56.0464 22.8488 56.0816 22.7899 56.1404 22.7407C56.1992 22.6916 56.2677 22.666 56.3441 22.666H62.7378C62.8142 22.666 62.873 22.6876 62.9141 22.7329C62.9553 22.7781 62.967 22.839 62.9494 22.9157L62.732 23.9556Z"
        fill="white" />
    <path
        d="M68.5526 32.0715C68.5193 32.2346 68.4115 32.3251 68.2333 32.3467C68.1491 32.3546 68.0335 32.3723 67.8885 32.3978C67.7436 32.4234 67.5281 32.447 67.2441 32.4686C66.9581 32.4902 66.7289 32.504 66.5545 32.5138C66.3802 32.5217 66.0981 32.5256 65.7122 32.5256C65.0913 32.5256 64.5761 32.4529 64.1667 32.3054C63.7573 32.158 63.4674 31.8867 63.295 31.4915C63.1226 31.0964 63.1109 30.546 63.2597 29.8402L64.2313 25.2558C64.3802 24.55 64.6251 23.9996 64.9659 23.6025C65.3067 23.2053 65.7122 22.9321 66.1824 22.7846C66.6525 22.6372 67.199 22.5625 67.82 22.5625C68.7485 22.5625 69.5634 22.6254 70.2666 22.7493C70.3685 22.7611 70.4331 22.7886 70.4605 22.8259C70.4879 22.8652 70.4919 22.9301 70.4703 23.0245L70.2921 23.8639C70.2783 23.9367 70.2411 23.9976 70.1765 24.0507C70.1118 24.1018 70.0452 24.1273 69.9728 24.1273H67.3028C66.9228 24.1273 66.6407 24.2079 66.4527 24.3711C66.2646 24.5343 66.1275 24.8292 66.0374 25.2558L65.7377 26.6732H69.2832C69.3557 26.6732 69.4125 26.6987 69.4517 26.7498C69.4928 26.8009 69.5046 26.8639 69.487 26.9366L69.2891 27.8782C69.2754 27.951 69.2362 28.0119 69.1677 28.065C69.0991 28.1161 69.0345 28.1417 68.9698 28.1417H65.4243L65.0658 29.8402C64.9757 30.2629 64.9914 30.5577 65.1109 30.7209C65.2303 30.886 65.4791 30.9686 65.8591 30.9686H68.5291C68.6094 30.9686 68.6682 30.9922 68.7054 31.0394C68.7406 31.0866 68.7504 31.1514 68.7348 31.232L68.5526 32.0715Z"
        fill="white" />
    <path
        d="M74.0049 32.5275C73.5799 32.5275 73.1705 32.4646 72.7826 32.3408C72.3928 32.2169 72.0519 32.0046 71.7581 31.7038C71.4643 31.4031 71.2645 30.9883 71.1568 30.4634C71.051 29.9385 71.0784 29.2878 71.239 28.5152L71.6484 26.5847C71.8737 25.5369 72.2282 24.7171 72.7082 24.1234C73.19 23.5297 73.7189 23.1208 74.2988 22.8987C74.8786 22.6765 75.4839 22.5645 76.1186 22.5645C76.4457 22.5645 76.7552 22.5979 77.0451 22.6647C77.335 22.7316 77.5818 22.8063 77.7855 22.8928C77.9893 22.9793 78.1146 23.0402 78.1616 23.0795C78.3282 23.1857 78.3987 23.3036 78.3732 23.4314L78.1812 24.322C78.1381 24.5362 78.0167 24.6011 77.8169 24.5205C77.6798 24.4655 77.4956 24.4045 77.2645 24.3416C77.0333 24.2767 76.8022 24.2256 76.571 24.1883C76.3419 24.149 76.1186 24.1313 75.9011 24.1313C75.4663 24.1313 75.096 24.2079 74.7865 24.3613C74.477 24.5146 74.2165 24.7721 74.001 25.1299C73.7855 25.4897 73.6132 25.9733 73.48 26.5847L73.0706 28.5152C72.9472 29.1089 72.9158 29.5866 72.9785 29.9483C73.0392 30.31 73.194 30.5695 73.4388 30.7307C73.6837 30.8919 74.0206 30.9706 74.4516 30.9706C74.7885 30.9706 75.145 30.9293 75.525 30.8487C75.905 30.7681 76.24 30.6757 76.5338 30.5735C76.7689 30.4929 76.8649 30.5577 76.8218 30.772L76.6298 31.6626C76.6044 31.7903 76.4829 31.9103 76.2655 32.0223C76.0657 32.1245 75.7522 32.2346 75.3272 32.3526C74.9021 32.4686 74.4614 32.5275 74.0049 32.5275Z"
        fill="white" />
    <path
        d="M85.8825 32.1612C85.8649 32.2379 85.8257 32.3008 85.765 32.35C85.7023 32.3991 85.6357 32.4247 85.5632 32.4247H84.2664C84.2018 32.4247 84.1489 32.3991 84.1038 32.348C84.0588 32.2969 84.0451 32.234 84.0627 32.1612L84.9129 28.141H81.2008L80.3507 32.1612C80.333 32.234 80.2919 32.2949 80.2253 32.348C80.1587 32.4011 80.094 32.4247 80.0314 32.4247H78.7346C78.67 32.4247 78.6171 32.3991 78.572 32.348C78.527 32.2969 78.5132 32.234 78.5309 32.1612L80.4858 22.9176C80.5035 22.8488 80.5426 22.7899 80.6034 22.7407C80.666 22.6916 80.7307 22.666 80.7973 22.666H82.094C82.1626 22.666 82.2194 22.6916 82.2625 22.7407C82.3076 22.7899 82.3213 22.8488 82.3036 22.9176L81.5377 26.5388H85.2498L86.0157 22.9176C86.0333 22.8488 86.0725 22.7899 86.1332 22.7407C86.1959 22.6916 86.2606 22.666 86.3272 22.666H87.6239C87.7003 22.666 87.7591 22.6876 87.8002 22.7329C87.8414 22.7781 87.8531 22.839 87.8355 22.9157L85.8825 32.1612Z"
        fill="white" />
    <path d="M19.9563 58.6512V63.8922H18.7908V58.6512H17.5234V57.6289H21.2139V58.6512H19.9563Z" fill="white" />
    <path
        d="M25.0279 60.1492C24.879 60.104 24.7086 60.0823 24.5186 60.0823C24.4148 60.0823 24.3129 60.0902 24.213 60.1079C24.1131 60.1256 24.0289 60.1472 23.9584 60.1747V63.8961H22.8398V59.465C23.069 59.3687 23.3394 59.2901 23.6508 59.2272C23.9603 59.1643 24.2972 59.1328 24.6596 59.1328C24.8849 59.1328 25.0769 59.1466 25.2355 59.1741L25.0279 60.1492Z"
        fill="white" />
    <path
        d="M29.6725 63.9053C29.3493 63.9682 29.0124 63.9997 28.6617 63.9997C28.0466 63.9997 27.5824 63.8621 27.267 63.5888C26.9516 63.3156 26.793 62.8752 26.793 62.2697V59.2324H27.9115V62.2953C27.9115 62.7848 28.1603 63.0305 28.6598 63.0305C28.8106 63.0305 28.9438 63.0207 29.0555 63.001C29.1671 62.9814 29.2553 62.9578 29.316 62.9283V59.2324H30.4443V63.6635C30.2523 63.7618 29.9938 63.8424 29.6725 63.9053Z"
        fill="white" />
    <path
        d="M36.1386 61.2442C36.1386 61.3091 36.1386 61.374 36.1386 61.4408C36.1386 61.5076 36.1328 61.5745 36.121 61.6452L33.2513 62.0502C33.3042 62.3962 33.4413 62.6537 33.6607 62.8189C33.8801 62.986 34.1543 63.0685 34.4834 63.0685C34.7087 63.0685 34.932 63.041 35.1573 62.988C35.3825 62.9349 35.5706 62.8641 35.7253 62.7776L36.0446 63.6603C35.8585 63.7586 35.6195 63.8392 35.3277 63.904C35.0338 63.967 34.7243 63.9984 34.3992 63.9984C34.0289 63.9984 33.7057 63.9394 33.4276 63.8215C33.1494 63.7035 32.9163 63.5364 32.7263 63.3182C32.5363 63.102 32.3933 62.8425 32.2954 62.5437C32.1974 62.2429 32.1484 61.9146 32.1484 61.5568C32.1484 61.199 32.1954 60.8727 32.2914 60.5738C32.3874 60.277 32.5226 60.0214 32.7008 59.8052C32.8791 59.5889 33.0965 59.4238 33.3512 59.3039C33.6058 59.1859 33.8957 59.127 34.219 59.127C34.5285 59.127 34.8007 59.1761 35.0397 59.2764C35.2787 59.3766 35.4805 59.5201 35.6431 59.7069C35.8076 59.8936 35.931 60.1178 36.0133 60.3792C36.0975 60.6426 36.1386 60.9297 36.1386 61.2442ZM35.0456 61.0378C35.0456 60.6859 34.9692 60.4225 34.8184 60.2455C34.6675 60.0686 34.4579 59.9821 34.1915 59.9821C33.8997 59.9821 33.6607 60.0942 33.4746 60.3163C33.2885 60.5385 33.1886 60.8687 33.1788 61.3091L35.0456 61.0378Z"
        fill="white" />
    <path
        d="M43.4307 63.8961V61.2225H41.5952V63.8961H40.4219V57.6328H41.5952V60.2219H43.4307V57.6328H44.5923V63.8961H43.4307Z"
        fill="white" />
    <path
        d="M49.9834 63.6622C49.8992 63.7074 49.7973 63.7507 49.6759 63.792C49.5544 63.8332 49.4212 63.8686 49.2743 63.9001C49.1274 63.9315 48.9727 63.9551 48.8101 63.9748C48.6475 63.9925 48.481 64.0023 48.3125 64.0023C47.6367 64.0023 47.1333 63.8706 46.8022 63.6072C46.4712 63.3437 46.3047 62.9722 46.3047 62.4945C46.3047 62.1799 46.3772 61.9224 46.5241 61.7219C46.669 61.5214 46.863 61.3641 47.1039 61.2481C47.3448 61.1321 47.623 61.0496 47.9364 60.9965C48.2498 60.9454 48.577 60.91 48.9178 60.8923V60.6524C48.9178 60.4106 48.8434 60.2376 48.6925 60.1374C48.5417 60.0352 48.338 59.986 48.0794 59.986C47.8659 59.986 47.6426 60.0155 47.4095 60.0725C47.1764 60.1295 46.9825 60.1944 46.8297 60.2652L46.5437 59.467C46.7337 59.3884 46.9766 59.3137 47.2704 59.2409C47.5642 59.1682 47.8737 59.1328 48.2028 59.1328C48.7748 59.1328 49.2156 59.2606 49.5231 59.5181C49.8306 59.7737 49.9834 60.2003 49.9834 60.794V63.6622ZM48.9198 61.6491C48.7121 61.6609 48.5143 61.6767 48.3243 61.6963C48.1343 61.716 47.9697 61.7553 47.8267 61.8123C47.6857 61.8693 47.5721 61.9519 47.4859 62.0561C47.3997 62.1603 47.3566 62.2979 47.3566 62.4709C47.3566 62.6911 47.4369 62.8601 47.5995 62.982C47.7601 63.1039 47.9874 63.1629 48.2792 63.1629C48.4007 63.1629 48.5202 63.155 48.6416 63.1373C48.7631 63.1196 48.8551 63.096 48.9198 63.0646V61.6491Z"
        fill="white" />
    <path
        d="M55.691 61.543C55.691 61.9008 55.6459 62.2271 55.5578 62.5259C55.4696 62.8228 55.3384 63.0764 55.1621 63.2867C54.9858 63.4971 54.7683 63.6583 54.5078 63.7743C54.2473 63.8903 53.9456 63.9473 53.6067 63.9473C53.4853 63.9473 53.3658 63.9374 53.2443 63.9178C53.1229 63.8981 53.0289 63.8745 52.9584 63.845V65.7539H51.8398V59.465C52.0044 59.3746 52.2336 59.296 52.5235 59.2311C52.8134 59.1643 53.1288 59.1328 53.4677 59.1328C54.1924 59.1328 54.7429 59.3451 55.1209 59.7678C55.5029 60.1905 55.691 60.7822 55.691 61.543ZM54.5548 61.543C54.5548 61.0692 54.4628 60.7016 54.2786 60.4401C54.0945 60.1787 53.83 60.047 53.4853 60.047C53.3815 60.047 53.2816 60.0548 53.1836 60.0725C53.0857 60.0902 53.0112 60.1118 52.9584 60.1393V62.9604C53.0054 62.982 53.0818 63.0017 53.1875 63.0194C53.2933 63.0371 53.3952 63.0449 53.4931 63.0449C53.6675 63.0449 53.8203 63.0076 53.9515 62.9329C54.0827 62.8582 54.1944 62.754 54.2825 62.6223C54.3707 62.4905 54.4373 62.3313 54.4843 62.1465C54.5313 61.9637 54.5548 61.7632 54.5548 61.543Z"
        fill="white" />
    <path
        d="M61.2574 61.543C61.2574 61.9008 61.2123 62.2271 61.1242 62.5259C61.036 62.8228 60.9048 63.0764 60.7285 63.2867C60.5522 63.4971 60.3348 63.6583 60.0742 63.7743C59.8137 63.8903 59.512 63.9473 59.1731 63.9473C59.0517 63.9473 58.9322 63.9374 58.8108 63.9178C58.6893 63.8981 58.5953 63.8745 58.5248 63.845V65.7539H57.4062V59.465C57.5708 59.3746 57.8 59.296 58.0899 59.2311C58.3798 59.1643 58.6952 59.1328 59.0341 59.1328C59.7589 59.1328 60.3093 59.3451 60.6873 59.7678C61.0693 60.1905 61.2574 60.7822 61.2574 61.543ZM60.1212 61.543C60.1212 61.0692 60.0292 60.7016 59.845 60.4401C59.6609 60.1787 59.3965 60.047 59.0517 60.047C58.9479 60.047 58.848 60.0548 58.75 60.0725C58.6521 60.0902 58.5777 60.1118 58.5248 60.1393V62.9604C58.5718 62.982 58.6482 63.0017 58.7539 63.0194C58.8597 63.0371 58.9616 63.0449 59.0595 63.0449C59.2339 63.0449 59.3867 63.0076 59.5179 62.9329C59.6491 62.8582 59.7608 62.754 59.849 62.6223C59.9371 62.4905 60.0037 62.3313 60.0507 62.1465C60.0977 61.9637 60.1212 61.7632 60.1212 61.543Z"
        fill="white" />
    <path
        d="M64.203 57.8459C64.203 58.0267 64.1403 58.1781 64.013 58.302C63.8876 58.4258 63.7348 58.4887 63.5585 58.4887C63.3724 58.4887 63.2197 58.4278 63.0962 58.302C62.9728 58.1781 62.9102 58.0267 62.9102 57.8459C62.9102 57.669 62.9709 57.5195 63.0962 57.3977C63.2197 57.2758 63.3744 57.2168 63.5585 57.2168C63.7348 57.2168 63.8876 57.2777 64.013 57.3977C64.1384 57.5195 64.203 57.669 64.203 57.8459ZM62.9865 63.8949V59.2318H64.1188V63.8949H62.9865Z"
        fill="white" />
    <path
        d="M68.5857 63.8961V60.8254C68.5857 60.5895 68.5191 60.4047 68.3878 60.273C68.2566 60.1413 68.0607 60.0745 67.8021 60.0745C67.6709 60.0745 67.5435 60.0863 67.4241 60.1079C67.3026 60.1295 67.2047 60.1551 67.1302 60.1846V63.8961H66.0117V59.465C66.2468 59.3687 66.5112 59.2901 66.8011 59.2272C67.0911 59.1643 67.4201 59.1328 67.7884 59.1328C68.4525 59.1328 68.9422 59.2685 69.2576 59.5378C69.571 59.8091 69.7296 60.1964 69.7296 60.7036V63.8961H68.5857Z"
        fill="white" />
    <path
        d="M75.4199 61.2442C75.4199 61.3091 75.4199 61.374 75.4199 61.4408C75.4199 61.5076 75.414 61.5745 75.4023 61.6452L72.5325 62.0502C72.5854 62.3962 72.7225 62.6537 72.9419 62.8189C73.1613 62.986 73.4356 63.0685 73.7647 63.0685C73.9899 63.0685 74.2132 63.041 74.4385 62.988C74.6638 62.9349 74.8518 62.8641 75.0066 62.7776L75.3259 63.6603C75.1398 63.7586 74.9008 63.8392 74.6089 63.904C74.3151 63.967 74.0056 63.9984 73.6804 63.9984C73.3102 63.9984 72.987 63.9394 72.7088 63.8215C72.4307 63.7035 72.1976 63.5364 72.0075 63.3182C71.8175 63.102 71.6745 62.8425 71.5766 62.5437C71.4787 62.2429 71.4297 61.9146 71.4297 61.5568C71.4297 61.199 71.4767 60.8727 71.5727 60.5738C71.6687 60.277 71.8038 60.0214 71.9821 59.8052C72.1603 59.5889 72.3778 59.4238 72.6324 59.3039C72.8871 59.1859 73.177 59.127 73.5002 59.127C73.8097 59.127 74.082 59.1761 74.321 59.2764C74.56 59.3766 74.7617 59.5201 74.9243 59.7069C75.0888 59.8936 75.2123 60.1178 75.2945 60.3792C75.3768 60.6426 75.4199 60.9297 75.4199 61.2442ZM74.3249 61.0378C74.3249 60.6859 74.2485 60.4225 74.0977 60.2455C73.9468 60.0686 73.7372 59.9821 73.4708 59.9821C73.179 59.9821 72.94 60.0942 72.7539 60.3163C72.5678 60.5385 72.4679 60.8687 72.4581 61.3091L74.3249 61.0378Z"
        fill="white" />
    <path
        d="M80.1345 62.5554C80.1345 62.9919 79.9817 63.3418 79.6781 63.6052C79.3745 63.8686 78.922 64.0004 78.3245 64.0004C78.0444 64.0004 77.776 63.9669 77.5194 63.8981C77.2628 63.8293 77.0513 63.7527 76.8867 63.6622L77.2491 62.7619C77.3059 62.7953 77.3764 62.8307 77.4646 62.87C77.5508 62.9073 77.6428 62.9408 77.7388 62.9683C77.8348 62.9958 77.9308 63.0194 78.0268 63.0351C78.1228 63.0508 78.2129 63.0607 78.2932 63.0607C78.4949 63.0607 78.6575 63.0155 78.7809 62.9231C78.9044 62.8307 78.967 62.7088 78.967 62.5535C78.967 62.3785 78.9024 62.2468 78.7711 62.1583C78.6399 62.0699 78.4754 61.9873 78.2775 61.9106C78.1404 61.8595 77.9954 61.7986 77.8426 61.7298C77.6899 61.659 77.5508 61.5725 77.4274 61.4703C77.304 61.368 77.2021 61.2383 77.1218 61.081C77.0415 60.9238 77.0023 60.7311 77.0023 60.5011C77.0023 60.0863 77.1433 59.7541 77.4274 59.5044C77.7114 59.2547 78.1149 59.1289 78.6399 59.1289C78.9318 59.1289 79.1903 59.1604 79.4176 59.2233C79.6448 59.2862 79.8446 59.3668 80.015 59.4611L79.6624 60.2671C79.5664 60.2023 79.4352 60.1413 79.2648 60.0843C79.0944 60.0273 78.9357 59.9978 78.7868 59.9978C78.5851 59.9978 78.4283 60.045 78.3206 60.1374C78.2129 60.2298 78.1561 60.3458 78.1561 60.4834C78.1561 60.6643 78.2187 60.796 78.3461 60.8825C78.4714 60.969 78.634 61.0496 78.8299 61.1262C78.9788 61.1833 79.1316 61.2442 79.2863 61.3091C79.4411 61.3759 79.5821 61.4624 79.7094 61.5686C79.8348 61.6747 79.9386 61.8064 80.0189 61.9637C80.0993 62.121 80.1345 62.3176 80.1345 62.5554Z"
        fill="white" />
    <path
        d="M84.822 62.5554C84.822 62.9919 84.6692 63.3418 84.3656 63.6052C84.062 63.8686 83.6095 64.0004 83.012 64.0004C82.7319 64.0004 82.4635 63.9669 82.2069 63.8981C81.9503 63.8293 81.7388 63.7527 81.5742 63.6622L81.9366 62.7619C81.9934 62.7953 82.0639 62.8307 82.1521 62.87C82.2383 62.9073 82.3303 62.9408 82.4263 62.9683C82.5223 62.9958 82.6183 63.0194 82.7143 63.0351C82.8103 63.0508 82.9004 63.0607 82.9807 63.0607C83.1824 63.0607 83.345 63.0155 83.4684 62.9231C83.5918 62.8307 83.6545 62.7088 83.6545 62.5535C83.6545 62.3785 83.5899 62.2468 83.4586 62.1583C83.3274 62.0699 83.1629 61.9873 82.965 61.9106C82.8279 61.8595 82.6829 61.7986 82.5301 61.7298C82.3773 61.659 82.2383 61.5725 82.1149 61.4703C81.9915 61.368 81.8896 61.2383 81.8093 61.081C81.729 60.9238 81.6898 60.7311 81.6898 60.5011C81.6898 60.0863 81.8308 59.7541 82.1149 59.5044C82.3989 59.2547 82.8024 59.1289 83.3274 59.1289C83.6193 59.1289 83.8778 59.1604 84.1051 59.2233C84.3323 59.2862 84.5321 59.3668 84.7025 59.4611L84.3499 60.2671C84.2539 60.2023 84.1227 60.1413 83.9523 60.0843C83.7819 60.0273 83.6232 59.9978 83.4743 59.9978C83.2726 59.9978 83.1158 60.045 83.0081 60.1374C82.9004 60.2298 82.8436 60.3458 82.8436 60.4834C82.8436 60.6643 82.9062 60.796 83.0336 60.8825C83.1589 60.969 83.3215 61.0496 83.5174 61.1262C83.6663 61.1833 83.8191 61.2442 83.9738 61.3091C84.1286 61.3759 84.2696 61.4624 84.3969 61.5686C84.5223 61.6747 84.6261 61.8064 84.7064 61.9637C84.7868 62.121 84.822 62.3176 84.822 62.5554Z"
        fill="white" />
</svg>