<svg width="155" height="104" viewBox="0 0 155 104" fill="none" xmlns="http://www.w3.org/2000/svg">
    <g clip-path="url(#clip0_114_4469)">
        <path
            d="M154.932 43.3157C154.904 40.3183 154.566 37.2557 153.875 34.3391C149.333 15.1423 131.398 1.16287 112.307 2.23558C99.8861 2.93206 89.4638 8.12771 81.331 17.7448C80.1754 19.1129 80.1754 20.1327 81.0986 21.647C82.5672 24.0536 83.7166 26.656 85.0024 29.1715C85.2378 29.6317 85.4795 30.0887 85.8327 30.7634C86.3408 29.84 86.6692 29.2181 87.0193 28.6087C93.7424 16.84 107.114 10.8826 120.204 13.8271C133.511 16.8182 143.298 28.0926 144.293 41.5683C145.538 58.4549 133.44 72.7888 116.341 74.6824C108.778 75.5219 101.417 73.249 95.5332 68.8773L95.5672 68.8431C95.5672 68.8431 89.3584 64.5927 85.749 56.8194C85.5972 56.4898 85.4485 56.1602 85.3091 55.8244C85.2843 55.7654 85.2626 55.7063 85.2378 55.6472C84.9001 54.817 84.5934 53.9713 84.327 53.1069C84.2929 53.0012 84.2619 52.8861 84.2278 52.7742C84.138 52.4695 84.0543 52.1617 83.9707 51.8539C83.9149 51.6424 83.8591 51.4248 83.8065 51.1978C83.7352 50.8962 83.6639 50.5977 83.602 50.293C83.571 50.1437 83.54 49.9945 83.5121 49.8421C83.4378 49.4566 83.3696 49.0679 83.3076 48.673C83.2953 48.5829 83.2829 48.4927 83.2674 48.4025C83.2302 48.1413 83.1992 47.8802 83.1713 47.619C83.1187 47.0873 83.0257 46.0768 82.9235 44.491C82.846 42.9488 82.7995 41.4004 82.6849 39.8644C82.6849 39.8395 82.6818 39.8177 82.6818 39.7929C82.6818 39.7929 82.2512 28.4936 75.0231 18.7211C75.0231 18.7211 73.3438 16.1217 69.8553 12.9378C69.8491 12.9316 69.8398 12.9254 69.8336 12.916C69.5609 12.6673 69.2759 12.4123 68.9785 12.1574C68.8917 12.0827 68.805 12.0081 68.7182 11.9366C68.4797 11.7345 68.238 11.5324 67.9839 11.3272C67.9344 11.2868 67.8848 11.2463 67.8352 11.2059C67.5285 10.9603 67.2094 10.7115 66.881 10.4628C66.85 10.441 66.8221 10.4162 66.7911 10.3944C64.9136 8.97344 62.7046 7.54005 60.1548 6.24658C59.2718 5.79262 58.3671 5.35421 57.4377 4.94067C42.0396 -1.91534 27.7259 1.61682 14.6856 11.6288C13.3874 12.6238 12.2225 13.796 10.6641 15.1796C10.6641 11.7811 10.7787 8.78066 10.6114 5.79884C10.5402 4.52402 10.1498 3.09374 9.4341 2.06456C8.11426 0.164779 5.61092 -0.422879 3.5723 0.301589C1.37567 1.07891 0.0279546 3.10307 0.0248564 5.73354C0.0155618 18.1708 -0.0402058 30.608 0.0620349 43.0421C0.0899187 46.2416 0.263418 49.525 0.997692 52.6218C4.99128 69.4712 15.55 80.1672 32.3236 83.7646C49.2274 87.3901 63.4606 82.1198 74.3786 68.4575C74.6637 68.1031 74.8341 67.3382 74.6513 66.9744C72.9163 63.5417 71.0945 60.1557 69.217 56.608C69.0156 56.9655 68.8576 57.2361 68.7089 57.5128C61.5397 71.0103 46.3554 77.3097 32.0603 72.7204C17.8054 68.1435 8.99106 54.0925 11.0545 38.9969C14.0597 17.0234 39.6044 4.05763 59.6219 18.5656V18.6123C59.6219 18.6123 60.0897 18.9077 60.8364 19.4922C60.9758 19.6041 61.1152 19.713 61.2515 19.8249C61.2577 19.828 61.2608 19.8311 61.2639 19.8373C62.2709 20.6644 63.2034 21.535 64.0616 22.4429C64.0678 22.4492 64.074 22.4554 64.0802 22.4616C64.2878 22.6792 64.4892 22.9031 64.6906 23.127C64.706 23.1456 64.7215 23.1643 64.7401 23.183C66.5712 25.2506 68.0459 27.5049 69.186 29.9333C69.533 30.6826 70.9892 33.9754 71.7328 38.3035C71.9094 39.3886 72.0426 40.4987 72.1262 41.6305C72.1324 41.7828 72.1913 43.695 72.2502 45.3523C72.2595 46.0768 72.2873 46.7919 72.3307 47.5008C72.3369 47.6283 72.34 47.7247 72.3462 47.7744C72.3741 48.1476 72.4701 51.0206 73.4337 54.929C73.886 56.7852 74.4685 58.5855 75.1842 60.3329C75.243 60.4759 75.3019 60.6159 75.3608 60.7589C75.4041 60.8615 75.4475 60.961 75.4909 61.0636C75.5095 61.1071 75.5281 61.1538 75.5467 61.1973C75.5467 61.1973 76.7983 64.3875 79.4225 68.0098C79.4225 68.0098 82.6044 72.7826 87.7288 76.7221L87.7319 76.719C104.636 90.0517 128.644 87.1103 141.408 74.7539C142.301 73.8895 143.208 73.0406 144.376 71.9306C144.376 75.2047 144.249 78.0933 144.435 80.9663C144.516 82.238 144.984 83.6371 145.702 84.685C146.976 86.5443 149.457 87.0791 151.589 86.3174C153.807 85.5276 154.981 83.6651 154.985 80.8263C154.985 68.3176 155.047 55.8151 154.932 43.3157Z"
            fill="url(#paint0_linear_114_4469)" />
        <path
            d="M33.0175 47.0064C32.7945 48.0667 32.3638 48.9342 31.7256 49.6027C31.0843 50.2712 30.2663 50.7532 29.2718 51.0485C28.2742 51.3439 27.1124 51.4901 25.7863 51.4901C24.1846 51.4901 23.0041 51.4154 22.2513 51.2662C21.9074 51.1978 21.6781 51.0859 21.5604 50.9273C21.4427 50.7687 21.421 50.5075 21.4953 50.1406L24.2744 37.0598C24.3271 36.811 24.4014 36.6089 24.4913 36.4628C24.5811 36.3136 24.702 36.1985 24.8538 36.1177C25.0056 36.0368 25.1977 35.9746 25.4362 35.9342C25.7925 35.8814 26.2851 35.8316 26.911 35.7912C27.5368 35.7508 28.2153 35.729 28.9403 35.729C29.9441 35.729 30.8085 35.8036 31.5304 35.9529C32.2554 36.1021 32.8626 36.3415 33.3552 36.668C33.8479 36.9945 34.1856 37.4329 34.3746 37.9801C34.5635 38.5274 34.5759 39.1834 34.4148 39.9483L34.325 40.365C34.2289 40.8252 34.0678 41.2605 33.8355 41.674C33.6031 42.0875 33.3088 42.4482 32.9556 42.7654C32.6024 43.0825 32.2058 43.325 31.769 43.4992C32.3421 43.7634 32.748 44.1645 32.9866 44.6993C33.2251 45.2373 33.2654 45.8871 33.1043 46.652L33.0175 47.0064ZM30.2168 46.966L30.2787 46.6924C30.412 46.0488 30.3252 45.5233 30.0154 45.1098C29.7056 44.6962 29.0983 44.491 28.1967 44.491H25.5695L24.5997 49.0648C24.7763 49.0648 25.0676 49.071 25.4734 49.0866C25.8824 49.099 26.1519 49.1083 26.2882 49.1083C27.574 49.1083 28.5097 48.9404 29.0983 48.6015C29.6808 48.2595 30.0557 47.7154 30.2168 46.966ZM31.5304 40.4054L31.5924 40.11C31.6946 39.6156 31.6605 39.227 31.4901 38.9378C31.3228 38.6517 30.9913 38.4403 30.4956 38.3097C29.9999 38.1791 29.3121 38.1107 28.4291 38.1107C28.1534 38.1107 27.6484 38.1263 26.9141 38.1605L26.0156 42.3674H28.6429C29.5321 42.3674 30.2044 42.187 30.6598 41.8295C31.1121 41.4781 31.4034 40.9993 31.5304 40.4054Z"
            fill="white" />
        <path
            d="M47.0121 50.9708C46.9904 51.0796 46.9409 51.1667 46.8541 51.2289C46.7705 51.2942 46.6744 51.3253 46.566 51.3253H44.3724C44.2857 51.3253 44.2082 51.2911 44.1463 51.2196C44.0812 51.148 44.0502 51.0672 44.0502 50.9708L43.9387 47.0251H39.1799L37.3922 50.9708C37.3519 51.0672 37.2869 51.148 37.1939 51.2196C37.1041 51.2911 37.0142 51.3253 36.9275 51.3253H34.7339C34.6255 51.3253 34.5449 51.2942 34.4861 51.2289C34.4303 51.1636 34.4117 51.0796 34.4303 50.9708C34.4427 50.9584 34.4551 50.9428 34.4613 50.9304C34.4675 50.918 34.4737 50.8962 34.483 50.8682L40.6267 37.8495C41.2928 36.4379 42.402 35.729 43.9511 35.729C45.5064 35.729 46.315 36.4348 46.377 37.8495L47.0245 50.8682C47.0245 50.89 47.0245 50.9055 47.0245 50.918C47.0245 50.9335 47.0183 50.949 47.0121 50.9708ZM43.8922 44.6651L43.7001 38.4901C43.6939 38.3626 43.6723 38.2755 43.6382 38.232C43.6041 38.1885 43.5359 38.1667 43.4368 38.1667C43.3438 38.1667 43.2695 38.1885 43.2137 38.232C43.161 38.2755 43.1022 38.3626 43.0402 38.4901L40.2425 44.6651H43.8922Z"
            fill="white" />
        <path
            d="M62.5652 37.9304C62.5373 38.0517 62.4784 38.1449 62.3824 38.2102C62.2863 38.2755 62.1841 38.3066 62.0694 38.3066H58.4538L55.7863 50.9086C55.7584 51.0299 55.6964 51.1294 55.6004 51.2071C55.5013 51.2849 55.3959 51.3253 55.2813 51.3253H53.2303C53.128 51.3253 53.0444 51.2848 52.9731 51.204C52.9019 51.1232 52.8802 51.0237 52.9081 50.9086L55.5756 38.3066H51.9569C51.8423 38.3066 51.7524 38.2724 51.6843 38.204C51.6161 38.1356 51.5975 38.0454 51.6223 37.9304L51.9662 36.2887C51.9879 36.1799 52.0437 36.0866 52.1366 36.0088C52.2295 35.9311 52.338 35.8907 52.4588 35.8907H62.5714C62.6922 35.8907 62.7851 35.9249 62.8502 35.9964C62.9152 36.0679 62.9338 36.1643 62.906 36.2856L62.5652 37.9304Z"
            fill="white" />
        <path
            d="M99.22 37.8931C99.1921 38.0144 99.1333 38.1076 99.0372 38.1729C98.9412 38.2382 98.8389 38.2693 98.7243 38.2693H95.1087L92.4411 50.8713C92.4133 50.9926 92.3513 51.0921 92.2552 51.1698C92.1561 51.2476 92.0508 51.288 91.9361 51.288H89.8851C89.7829 51.288 89.6992 51.2476 89.628 51.1667C89.5567 51.0859 89.535 50.9864 89.5629 50.8713L92.2305 38.2693H88.6149C88.5002 38.2693 88.4104 38.2351 88.3422 38.1667C88.2741 38.0983 88.2555 38.0081 88.2803 37.8931L88.6242 36.2514C88.6458 36.1426 88.7016 36.0493 88.7946 35.9715C88.8875 35.8938 88.9959 35.8534 89.1168 35.8534H99.2293C99.3501 35.8534 99.4431 35.8876 99.5081 35.9591C99.5732 36.0306 99.5918 36.127 99.5639 36.2483L99.22 37.8931Z"
            fill="white" />
        <path
            d="M108.428 50.7283C108.375 50.9864 108.205 51.1294 107.923 51.1636C107.79 51.176 107.607 51.204 107.378 51.2444C107.148 51.2849 106.807 51.3222 106.358 51.3564C105.906 51.3906 105.543 51.4123 105.268 51.4279C104.992 51.4403 104.546 51.4466 103.935 51.4466C102.953 51.4466 102.138 51.3315 101.491 51.0983C100.843 50.8651 100.385 50.436 100.112 49.8111C99.8396 49.1861 99.821 48.3155 100.056 47.1992L101.593 39.9483C101.829 38.8321 102.216 37.9615 102.755 37.3334C103.294 36.7053 103.935 36.2731 104.679 36.04C105.423 35.8068 106.287 35.6886 107.269 35.6886C108.738 35.6886 110.027 35.7881 111.139 35.984C111.3 36.0026 111.402 36.0462 111.445 36.1052C111.489 36.1674 111.495 36.27 111.461 36.4193L111.179 37.747C111.157 37.862 111.098 37.9584 110.996 38.0423C110.894 38.1232 110.789 38.1636 110.674 38.1636H106.451C105.85 38.1636 105.404 38.2911 105.107 38.5492C104.809 38.8072 104.592 39.2736 104.45 39.9483L103.976 42.1902H109.583C109.698 42.1902 109.788 42.2306 109.85 42.3114C109.915 42.3923 109.934 42.4918 109.906 42.6068L109.593 44.0962C109.571 44.2112 109.509 44.3076 109.401 44.3915C109.292 44.4724 109.19 44.5128 109.088 44.5128H103.48L102.913 47.1992C102.771 47.8677 102.795 48.3341 102.984 48.5922C103.173 48.8534 103.567 48.984 104.168 48.984H108.391C108.518 48.984 108.611 49.0213 108.669 49.0959C108.725 49.1705 108.741 49.2731 108.716 49.4006L108.428 50.7283Z"
            fill="white" />
        <path
            d="M117.05 51.4497C116.378 51.4497 115.73 51.3502 115.117 51.1543C114.5 50.9584 113.961 50.6226 113.497 50.1469C113.032 49.6711 112.716 49.0151 112.545 48.1849C112.378 47.3547 112.422 46.3255 112.676 45.1036L113.323 42.0502C113.679 40.393 114.24 39.0964 114.999 38.1574C115.761 37.2184 116.598 36.5716 117.515 36.2203C118.432 35.8689 119.389 35.6917 120.393 35.6917C120.911 35.6917 121.4 35.7446 121.859 35.8503C122.317 35.956 122.708 36.0742 123.03 36.211C123.352 36.3478 123.55 36.4442 123.625 36.5063C123.888 36.6743 124 36.8608 123.959 37.0629L123.656 38.4714C123.587 38.8103 123.395 38.9129 123.079 38.7855C122.862 38.6984 122.571 38.602 122.206 38.5025C121.84 38.3999 121.474 38.3191 121.109 38.26C120.746 38.1978 120.393 38.1698 120.049 38.1698C119.361 38.1698 118.776 38.2911 118.286 38.5336C117.797 38.7761 117.385 39.1835 117.044 39.7494C116.703 40.3184 116.431 41.0832 116.22 42.0502L115.572 45.1036C115.377 46.0426 115.328 46.7981 115.427 47.3703C115.523 47.9424 115.768 48.3528 116.155 48.6078C116.542 48.8627 117.075 48.9871 117.757 48.9871C118.29 48.9871 118.853 48.9218 119.454 48.7943C120.055 48.6668 120.585 48.5207 121.05 48.359C121.422 48.2315 121.574 48.3341 121.505 48.6731L121.202 50.0816C121.162 50.2837 120.969 50.4733 120.626 50.6506C120.31 50.8123 119.814 50.9864 119.142 51.1729C118.469 51.3564 117.772 51.4497 117.05 51.4497Z"
            fill="white" />
        <path
            d="M135.838 50.8713C135.81 50.9926 135.748 51.0921 135.652 51.1698C135.553 51.2476 135.447 51.288 135.333 51.288H133.282C133.179 51.288 133.096 51.2476 133.025 51.1667C132.953 51.0859 132.932 50.9864 132.959 50.8713L134.304 44.5128H128.433L127.088 50.8713C127.06 50.9864 126.995 51.0828 126.89 51.1667C126.785 51.2507 126.682 51.288 126.583 51.288H124.532C124.43 51.288 124.346 51.2476 124.275 51.1667C124.204 51.0859 124.182 50.9864 124.21 50.8713L127.302 36.2514C127.33 36.1426 127.392 36.0493 127.488 35.9715C127.587 35.8938 127.689 35.8534 127.795 35.8534H129.846C129.954 35.8534 130.044 35.8938 130.112 35.9715C130.183 36.0493 130.205 36.1426 130.177 36.2514L128.966 41.9787H134.837L136.048 36.2514C136.076 36.1426 136.138 36.0493 136.234 35.9715C136.333 35.8938 136.436 35.8534 136.541 35.8534H138.592C138.713 35.8534 138.806 35.8876 138.871 35.9591C138.936 36.0306 138.954 36.127 138.927 36.2483L135.838 50.8713Z"
            fill="white" />
        <path d="M31.5676 92.7692V101.059H29.7241V92.7692H27.7196V91.1523H33.5566V92.7692H31.5676Z" fill="white" />
        <path
            d="M39.5857 95.1353C39.3502 95.0638 39.0807 95.0296 38.7802 95.0296C38.616 95.0296 38.4548 95.0421 38.2968 95.0701C38.1388 95.098 38.0056 95.1322 37.8941 95.1758V101.062H36.125V94.0533C36.4875 93.9009 36.915 93.7766 37.4077 93.6771C37.8972 93.5776 38.4301 93.5278 39.0032 93.5278C39.3595 93.5278 39.6631 93.5496 39.9141 93.5931L39.5857 95.1353Z"
            fill="white" />
        <path
            d="M46.9346 101.077C46.4234 101.177 45.8905 101.226 45.3359 101.226C44.3631 101.226 43.6288 101.009 43.13 100.577C42.6312 100.144 42.3802 99.4479 42.3802 98.4903V93.6864H44.1493V98.5307C44.1493 99.3049 44.5428 99.6936 45.3328 99.6936C45.5714 99.6936 45.7821 99.678 45.9587 99.6469C46.1353 99.6158 46.2747 99.5785 46.3707 99.5319V93.6864H48.1553V100.695C47.8517 100.85 47.4427 100.978 46.9346 101.077Z"
            fill="white" />
        <path
            d="M57.1619 96.8703C57.1619 96.9729 57.1619 97.0755 57.1619 97.1813C57.1619 97.287 57.1526 97.3927 57.134 97.5046L52.5951 98.1451C52.6788 98.6924 52.8956 99.0997 53.2426 99.3609C53.5896 99.6252 54.0234 99.7558 54.5439 99.7558C54.9002 99.7558 55.2534 99.7122 55.6097 99.6283C55.966 99.5443 56.2634 99.4324 56.5081 99.2956L57.0132 100.692C56.7188 100.847 56.3408 100.975 55.8792 101.077C55.4145 101.177 54.925 101.226 54.4107 101.226C53.8251 101.226 53.3139 101.133 52.874 100.947C52.434 100.76 52.0653 100.496 51.7648 100.151C51.4643 99.8086 51.2381 99.3982 51.0832 98.9256C50.9283 98.4499 50.8508 97.9306 50.8508 97.3647C50.8508 96.7988 50.9252 96.2827 51.077 95.8101C51.2288 95.3406 51.4426 94.9363 51.7245 94.5943C52.0065 94.2523 52.3504 93.9911 52.7531 93.8014C53.1559 93.6149 53.6144 93.5216 54.1256 93.5216C54.6151 93.5216 55.0458 93.5993 55.4238 93.7579C55.8018 93.9165 56.1209 94.1435 56.378 94.4389C56.6383 94.7342 56.8335 95.0887 56.9636 95.5022C57.0968 95.9189 57.1619 96.3728 57.1619 96.8703ZM55.4331 96.5438C55.4331 95.9873 55.3122 95.5706 55.0737 95.2908C54.8351 95.011 54.5036 94.8742 54.0823 94.8742C53.6206 94.8742 53.2426 95.0514 52.9483 95.4027C52.654 95.7541 52.496 96.2765 52.4805 96.9729L55.4331 96.5438Z"
            fill="white" />
        <path
            d="M68.6965 101.062V96.833H65.7934V101.062H63.9376V91.1555H65.7934V95.2504H68.6965V91.1555H70.5337V101.062H68.6965Z"
            fill="white" />
        <path
            d="M79.0568 100.692C78.9236 100.763 78.7625 100.832 78.5704 100.897C78.3783 100.962 78.1676 101.018 77.9353 101.068C77.7029 101.118 77.4582 101.155 77.201 101.186C76.9439 101.214 76.6805 101.23 76.4141 101.23C75.3452 101.23 74.5489 101.021 74.0253 100.605C73.5017 100.188 73.2384 99.6003 73.2384 98.8447C73.2384 98.3473 73.353 97.9399 73.5854 97.6228C73.8147 97.3056 74.1214 97.0569 74.5025 96.8734C74.8835 96.69 75.3235 96.5594 75.8192 96.4755C76.3149 96.3946 76.8323 96.3386 77.3714 96.3107V95.9313C77.3714 95.5489 77.2537 95.2753 77.0151 95.1167C76.7766 94.955 76.4543 94.8773 76.0454 94.8773C75.7077 94.8773 75.3545 94.9239 74.9858 95.0141C74.6171 95.1042 74.3104 95.2069 74.0687 95.3188L73.6164 94.0564C73.9169 93.932 74.3011 93.8139 74.7658 93.6988C75.2306 93.5838 75.7201 93.5278 76.2406 93.5278C77.1452 93.5278 77.8423 93.7299 78.3288 94.1373C78.8152 94.5415 79.0568 95.2162 79.0568 96.1552V100.692ZM77.3745 97.5077C77.0461 97.5264 76.7332 97.5513 76.4326 97.5824C76.1321 97.6135 75.8719 97.6756 75.6457 97.7658C75.4226 97.856 75.2429 97.9866 75.1066 98.1514C74.9703 98.3162 74.9021 98.5338 74.9021 98.8074C74.9021 99.1557 75.0292 99.4231 75.2863 99.6159C75.5404 99.8086 75.8998 99.9019 76.3614 99.9019C76.5535 99.9019 76.7425 99.8895 76.9346 99.8615C77.1267 99.8335 77.2723 99.7962 77.3745 99.7464V97.5077Z"
            fill="white" />
        <path
            d="M88.0881 97.3398C88.0881 97.9057 88.0169 98.4219 87.8775 98.8945C87.738 99.364 87.5305 99.7651 87.2516 100.098C86.9728 100.43 86.6289 100.685 86.2168 100.869C85.8048 101.052 85.3276 101.143 84.7916 101.143C84.5996 101.143 84.4106 101.127 84.2185 101.096C84.0264 101.065 83.8777 101.027 83.7661 100.981V104H81.9971V94.0533C82.2573 93.9103 82.6198 93.7859 83.0783 93.6833C83.5369 93.5776 84.0357 93.5278 84.5717 93.5278C85.718 93.5278 86.5886 93.8636 87.1866 94.5321C87.7907 95.2006 88.0881 96.1365 88.0881 97.3398ZM86.2912 97.3398C86.2912 96.5905 86.1456 96.0091 85.8543 95.5955C85.5631 95.182 85.1448 94.9737 84.5996 94.9737C84.4354 94.9737 84.2773 94.9861 84.1224 95.0141C83.9675 95.0421 83.8498 95.0763 83.7661 95.1198V99.5816C83.8405 99.6158 83.9613 99.6469 84.1286 99.6749C84.2959 99.7029 84.457 99.7154 84.612 99.7154C84.8877 99.7154 85.1294 99.6563 85.3369 99.5381C85.5445 99.42 85.7211 99.2552 85.8605 99.0468C85.9999 98.8385 86.1053 98.5867 86.1796 98.2944C86.254 98.0052 86.2912 97.6881 86.2912 97.3398Z"
            fill="white" />
        <path
            d="M96.8932 97.3398C96.8932 97.9057 96.8219 98.4219 96.6825 98.8945C96.5431 99.364 96.3355 99.7651 96.0567 100.098C95.7778 100.43 95.4339 100.685 95.0219 100.869C94.6098 101.052 94.1327 101.143 93.5967 101.143C93.4046 101.143 93.2156 101.127 93.0235 101.096C92.8315 101.065 92.6827 101.027 92.5712 100.981V104H90.8021V94.0533C91.0624 93.9103 91.4249 93.7859 91.8834 93.6833C92.3419 93.5776 92.8408 93.5278 93.3767 93.5278C94.5231 93.5278 95.3937 93.8636 95.9916 94.5321C96.5958 95.2006 96.8932 96.1365 96.8932 97.3398ZM95.0962 97.3398C95.0962 96.5905 94.9506 96.0091 94.6594 95.5955C94.3682 95.182 93.9499 94.9737 93.4046 94.9737C93.2404 94.9737 93.0824 94.9861 92.9275 95.0141C92.7726 95.0421 92.6549 95.0763 92.5712 95.1198V99.5816C92.6456 99.6158 92.7664 99.6469 92.9337 99.6749C93.101 99.7029 93.2621 99.7154 93.417 99.7154C93.6927 99.7154 93.9344 99.6563 94.142 99.5381C94.3496 99.42 94.5262 99.2552 94.6656 99.0468C94.805 98.8385 94.9103 98.5867 94.9847 98.2944C95.0591 98.0052 95.0962 97.6881 95.0962 97.3398Z"
            fill="white" />
        <path
            d="M101.547 91.4944C101.547 91.7804 101.448 92.0198 101.246 92.2157C101.048 92.4116 100.806 92.5111 100.527 92.5111C100.233 92.5111 99.9913 92.4147 99.7962 92.2157C99.601 92.0198 99.5018 91.7804 99.5018 91.4944C99.5018 91.2145 99.5979 90.9782 99.7962 90.7854C99.9913 90.5927 100.236 90.4994 100.527 90.4994C100.806 90.4994 101.048 90.5958 101.246 90.7854C101.444 90.9782 101.547 91.2145 101.547 91.4944ZM99.6227 101.062V93.6864H101.413V101.062H99.6227Z"
            fill="white" />
        <path
            d="M108.48 101.062V96.2049C108.48 95.8318 108.375 95.5396 108.168 95.3312C107.96 95.1229 107.65 95.0172 107.241 95.0172C107.034 95.0172 106.832 95.0359 106.643 95.0701C106.451 95.1043 106.296 95.1447 106.178 95.1913V101.062H104.409V94.0533C104.781 93.9009 105.199 93.7766 105.658 93.6771C106.117 93.5776 106.637 93.5278 107.219 93.5278C108.27 93.5278 109.044 93.7424 109.543 94.1683C110.039 94.5974 110.29 95.21 110.29 96.0122V101.062H108.48Z"
            fill="white" />
        <path
            d="M119.29 96.8703C119.29 96.9729 119.29 97.0755 119.29 97.1813C119.29 97.287 119.281 97.3927 119.262 97.5046L114.723 98.1451C114.807 98.6924 115.024 99.0997 115.371 99.3609C115.718 99.6252 116.152 99.7558 116.672 99.7558C117.028 99.7558 117.382 99.7122 117.738 99.6283C118.094 99.5443 118.392 99.4324 118.636 99.2956L119.141 100.692C118.847 100.847 118.469 100.975 118.007 101.077C117.543 101.177 117.053 101.226 116.539 101.226C115.953 101.226 115.442 101.133 115.002 100.947C114.562 100.76 114.193 100.496 113.893 100.151C113.592 99.8086 113.366 99.3982 113.211 98.9256C113.056 98.4499 112.979 97.9306 112.979 97.3647C112.979 96.7988 113.053 96.2827 113.205 95.8101C113.357 95.3406 113.571 94.9363 113.853 94.5943C114.135 94.2523 114.479 93.9911 114.881 93.8014C115.284 93.6149 115.743 93.5216 116.254 93.5216C116.743 93.5216 117.174 93.5993 117.552 93.7579C117.93 93.9165 118.249 94.1435 118.506 94.4389C118.766 94.7342 118.962 95.0887 119.092 95.5022C119.222 95.9189 119.29 96.3728 119.29 96.8703ZM117.558 96.5438C117.558 95.9873 117.437 95.5706 117.199 95.2908C116.96 95.011 116.629 94.8742 116.207 94.8742C115.746 94.8742 115.368 95.0514 115.073 95.4027C114.779 95.7541 114.621 96.2765 114.606 96.9729L117.558 96.5438Z"
            fill="white" />
        <path
            d="M126.751 98.9442C126.751 99.6345 126.509 100.188 126.029 100.605C125.548 101.021 124.833 101.23 123.888 101.23C123.445 101.23 123.02 101.177 122.614 101.068C122.209 100.959 121.874 100.838 121.614 100.695L122.187 99.2707C122.277 99.3236 122.388 99.3795 122.528 99.4417C122.664 99.5008 122.81 99.5537 122.961 99.5972C123.113 99.6407 123.265 99.678 123.417 99.7029C123.569 99.7278 123.711 99.7433 123.838 99.7433C124.157 99.7433 124.415 99.6718 124.61 99.5257C124.805 99.3795 124.904 99.1868 124.904 98.9411C124.904 98.6644 124.802 98.4561 124.594 98.3162C124.387 98.1762 124.126 98.0456 123.813 97.9244C123.597 97.8435 123.367 97.7471 123.126 97.6383C122.884 97.5264 122.664 97.3896 122.469 97.2279C122.274 97.0662 122.113 96.861 121.986 96.6123C121.859 96.3635 121.797 96.0588 121.797 95.695C121.797 95.0389 122.02 94.5135 122.469 94.1186C122.918 93.7237 123.556 93.5247 124.387 93.5247C124.848 93.5247 125.257 93.5745 125.617 93.674C125.976 93.7735 126.292 93.9009 126.562 94.0502L126.004 95.325C125.852 95.2224 125.645 95.126 125.375 95.0358C125.105 94.9457 124.854 94.899 124.619 94.899C124.3 94.899 124.052 94.9737 123.882 95.1198C123.711 95.2659 123.621 95.4494 123.621 95.667C123.621 95.9531 123.721 96.1614 123.922 96.2982C124.12 96.435 124.377 96.5625 124.687 96.6838C124.923 96.7739 125.164 96.8703 125.409 96.9729C125.654 97.0787 125.877 97.2155 126.078 97.3834C126.277 97.5513 126.441 97.7596 126.568 98.0083C126.695 98.2571 126.751 98.568 126.751 98.9442Z"
            fill="white" />
        <path
            d="M134.161 98.9442C134.161 99.6345 133.92 100.188 133.44 100.605C132.959 101.021 132.244 101.23 131.299 101.23C130.856 101.23 130.431 101.177 130.025 101.068C129.62 100.959 129.285 100.838 129.025 100.695L129.598 99.2707C129.688 99.3236 129.799 99.3795 129.939 99.4417C130.075 99.5008 130.221 99.5537 130.372 99.5972C130.524 99.6407 130.676 99.678 130.828 99.7029C130.98 99.7278 131.122 99.7433 131.249 99.7433C131.568 99.7433 131.825 99.6718 132.021 99.5257C132.216 99.3795 132.315 99.1868 132.315 98.9411C132.315 98.6644 132.213 98.4561 132.005 98.3162C131.798 98.1762 131.537 98.0456 131.224 97.9244C131.008 97.8435 130.778 97.7471 130.537 97.6383C130.295 97.5264 130.075 97.3896 129.88 97.2279C129.685 97.0662 129.523 96.861 129.396 96.6123C129.269 96.3635 129.207 96.0588 129.207 95.695C129.207 95.0389 129.431 94.5135 129.88 94.1186C130.329 93.7237 130.967 93.5247 131.798 93.5247C132.259 93.5247 132.668 93.5745 133.028 93.674C133.387 93.7735 133.703 93.9009 133.972 94.0502L133.415 95.325C133.263 95.2224 133.055 95.126 132.786 95.0358C132.516 94.9457 132.265 94.899 132.03 94.899C131.711 94.899 131.463 94.9737 131.293 95.1198C131.122 95.2659 131.032 95.4494 131.032 95.667C131.032 95.9531 131.131 96.1614 131.333 96.2982C131.531 96.435 131.788 96.5625 132.098 96.6838C132.334 96.7739 132.575 96.8703 132.82 96.9729C133.065 97.0787 133.288 97.2155 133.489 97.3834C133.687 97.5513 133.852 97.7596 133.979 98.0083C134.106 98.2571 134.161 98.568 134.161 98.9442Z"
            fill="white" />
    </g>
    <defs>
        <linearGradient id="paint0_linear_114_4469" x1="7.08112e-05" y1="43.3215" x2="155" y2="43.3215"
            gradientUnits="userSpaceOnUse">
            <stop stop-color="#0070EA" />
            <stop offset="0.13" stop-color="#0869E1" />
            <stop offset="0.87" stop-color="#0070EA" />
            <stop offset="1" stop-color="#0070EA" />
        </linearGradient>
        <clipPath id="clip0_114_4469">
            <rect width="155" height="104" fill="white" />
        </clipPath>
    </defs>
</svg>