<svg width="32" height="26" viewBox="0 0 32 26" fill="none" xmlns="http://www.w3.org/2000/svg">
    <path
        d="M3 0C1.3125 0 0 1.375 0 3C0 4.6875 1.3125 6 3 6C4.625 6 6 4.6875 6 3C6 1.375 4.625 0 3 0ZM3 10C1.3125 10 0 11.375 0 13C0 14.6875 1.3125 16 3 16C4.625 16 6 14.6875 6 13C6 11.375 4.625 10 3 10ZM3 20C1.3125 20 0 21.375 0 23C0 24.6875 1.3125 26 3 26C4.625 26 6 24.6875 6 23C6 21.375 4.625 20 3 20ZM31 21L11 21C10.4375 21 10 21.5 10 22V24C10 24.5625 10.4375 25 11 25L31 25C31.5 25 32 24.5625 32 24V22C32 21.5 31.5 21 31 21ZM31 1L11 1C10.4375 1 10 1.5 10 2V4C10 4.5625 10.4375 5 11 5L31 5C31.5 5 32 4.5625 32 4V2C32 1.5 31.5 1 31 1ZM31 11L11 11C10.4375 11 10 11.5 10 12V14C10 14.5625 10.4375 15 11 15L31 15C31.5 15 32 14.5625 32 14V12C32 11.5 31.5 11 31 11Z"
        fill="white" />
</svg>