<svg width="32" height="32" viewBox="0 0 32 32" fill="none" xmlns="http://www.w3.org/2000/svg">
    <path
        d="M31.5 16C31.5 7.5 24.5 0.5 16 0.5C7.4375 0.5 0.5 7.5 0.5 16C0.5 24.5625 7.4375 31.5 16 31.5C24.5 31.5 31.5 24.5625 31.5 16ZM16.375 5.625C19.9375 5.625 23.6875 8.375 23.6875 12C23.6875 16.875 18.5 16.9375 18.5 18.6875V18.75C18.5 19.1875 18.125 19.5 17.75 19.5H14.25C13.8125 19.5 13.5 19.1875 13.5 18.75V18.5C13.5 15.9375 15.4375 14.9375 16.875 14.125C18.125 13.4375 18.9375 12.9375 18.9375 12C18.9375 10.75 17.3125 9.9375 16.0625 9.9375C14.375 9.9375 13.625 10.75 12.5 12.1875C12.25 12.5 11.75 12.5625 11.4375 12.3125L9.25 10.6875C8.9375 10.4375 8.875 10 9.125 9.625C10.8125 7.0625 13 5.625 16.375 5.625ZM16 21.125C17.5625 21.125 18.875 22.4375 18.875 24C18.875 25.625 17.5625 26.875 16 26.875C14.375 26.875 13.125 25.625 13.125 24C13.125 22.4375 14.375 21.125 16 21.125Z"
        fill="white" />
</svg>