<svg width="462" height="394" viewBox="0 0 462 394" fill="none" xmlns="http://www.w3.org/2000/svg">
    <path
        d="M396.243 341.718H306.553C299.456 341.718 293.699 335.961 293.699 328.864V298.26C293.699 291.164 299.456 285.407 306.553 285.407H396.234C403.331 285.407 409.088 291.164 409.088 298.26V328.864C409.088 335.961 403.34 341.718 396.243 341.718Z"
        fill="#E09C28" />
    <path
        d="M400.965 333.5H311.284C304.187 333.5 298.43 327.743 298.43 320.646V290.042C298.43 282.945 304.187 277.188 311.284 277.188H400.965C408.061 277.188 413.819 282.945 413.819 290.042V320.646C413.819 327.751 408.07 333.5 400.965 333.5Z"
        fill="white" />
    <path
        d="M329.521 286.563L335.626 298.93L349.271 300.913L339.4 310.549L341.731 324.142L329.521 317.724L317.311 324.142L319.641 310.549L309.762 300.913L323.416 298.93L329.521 286.563Z"
        fill="#FFB840" />
    <path
        d="M364.629 302.244C366.69 302.244 368.334 302.826 369.56 303.983C370.787 305.14 371.395 306.731 371.395 308.749C371.395 311.132 370.656 312.967 369.186 314.254C367.717 315.541 365.612 316.185 362.873 316.185C360.498 316.185 358.576 315.802 357.115 315.028V311.123C357.881 311.532 358.785 311.862 359.803 312.123C360.829 312.384 361.794 312.506 362.707 312.506C365.464 312.506 366.838 311.375 366.838 309.114C366.838 306.966 365.412 305.888 362.559 305.888C362.046 305.888 361.472 305.94 360.846 306.044C360.22 306.148 359.716 306.253 359.324 306.375L357.524 305.409L358.324 294.521H369.908V298.347H362.281L361.89 302.539L362.403 302.435C363.02 302.313 363.751 302.244 364.629 302.244Z"
        fill="#44649E" />
    <path d="M384.954 294.53L376.987 315.889H372.943L380.91 294.53H384.954Z" fill="#44649E" />
    <path
        d="M394.069 302.244C396.13 302.244 397.774 302.826 399 303.983C400.226 305.14 400.835 306.731 400.835 308.749C400.835 311.132 400.096 312.967 398.626 314.254C397.156 315.541 395.051 316.185 392.312 316.185C389.938 316.185 388.016 315.802 386.555 315.028V311.123C387.32 311.532 388.224 311.862 389.242 312.123C390.268 312.384 391.234 312.506 392.147 312.506C394.904 312.506 396.278 311.375 396.278 309.114C396.278 306.966 394.851 305.888 391.999 305.888C391.486 305.888 390.912 305.94 390.286 306.044C389.659 306.148 389.155 306.253 388.764 306.375L386.963 305.409L387.764 294.521H399.348V298.347H391.721L391.329 302.539L391.842 302.435C392.46 302.313 393.19 302.244 394.069 302.244Z"
        fill="#44649E" />
    <path
        d="M440.545 268.039H262.991C256.191 268.039 250.686 262.525 250.686 255.733V139.44C250.686 132.639 256.199 127.134 262.991 127.134H440.545C447.346 127.134 452.851 132.648 452.851 139.44V255.724C452.86 262.525 447.346 268.039 440.545 268.039Z"
        fill="#E09C28" />
    <path
        d="M444.536 260.221H266.974C260.173 260.221 254.668 254.707 254.668 247.915V131.63C254.668 124.829 260.182 119.324 266.974 119.324H444.527C451.328 119.324 456.833 124.838 456.833 131.63V247.915C456.842 254.716 451.328 260.221 444.536 260.221Z"
        fill="white" />
    <path d="M427.274 166.8H284.238" stroke="#4BADB0" stroke-miterlimit="10" />
    <path d="M427.274 183.62H284.238" stroke="#4BADB0" stroke-miterlimit="10" />
    <path d="M427.274 200.448H284.238" stroke="#4BADB0" stroke-miterlimit="10" />
    <path d="M427.274 217.267H284.238" stroke="#4BADB0" stroke-miterlimit="10" />
    <path d="M427.274 234.087H284.238" stroke="#4BADB0" stroke-miterlimit="10" />
    <path
        d="M444.536 119.315H266.974C260.173 119.315 254.668 124.829 254.668 131.621V149.015H456.842V131.621C456.842 124.829 451.328 119.315 444.536 119.315Z"
        fill="#44649E" />
    <path
        d="M436.293 138.918C438.916 138.918 441.042 136.792 441.042 134.17C441.042 131.547 438.916 129.421 436.293 129.421C433.671 129.421 431.545 131.547 431.545 134.17C431.545 136.792 433.671 138.918 436.293 138.918Z"
        stroke="white" stroke-miterlimit="10" />
    <path
        d="M414.498 138.918C417.121 138.918 419.247 136.792 419.247 134.17C419.247 131.547 417.121 129.421 414.498 129.421C411.876 129.421 409.75 131.547 409.75 134.17C409.75 136.792 411.876 138.918 414.498 138.918Z"
        stroke="white" stroke-miterlimit="10" />
    <path
        d="M392.696 138.918C395.318 138.918 397.444 136.792 397.444 134.17C397.444 131.547 395.318 129.421 392.696 129.421C390.073 129.421 387.947 131.547 387.947 134.17C387.947 136.792 390.073 138.918 392.696 138.918Z"
        stroke="white" stroke-miterlimit="10" />
    <path
        d="M440.72 101.113H262.818C256.113 101.113 250.678 95.6777 250.678 88.9725V61.2906C250.678 54.5854 256.113 49.1499 262.818 49.1499H440.72C447.425 49.1499 452.86 54.5854 452.86 61.2906V88.9812C452.86 95.6777 447.425 101.113 440.72 101.113Z"
        fill="#E09C28" />
    <path
        d="M444.703 95.6429H266.811C260.105 95.6429 254.67 90.2074 254.67 83.5022V55.8203C254.67 49.1151 260.105 43.6796 266.811 43.6796H444.712C451.417 43.6796 456.853 49.1151 456.853 55.8203V83.5109C456.844 90.2074 451.409 95.6429 444.703 95.6429Z"
        fill="white" />
    <path
        d="M286.073 54.855L290.656 64.1431L300.901 65.6303L293.483 72.8573L295.239 83.0673L286.073 78.2493L276.907 83.0673L278.655 72.8573L271.236 65.6303L281.49 64.1431L286.073 54.855Z"
        fill="#FFB840" />
    <path
        d="M320.912 54.855L325.495 64.1431L335.74 65.6303L328.33 72.8573L330.078 83.0673L320.912 78.2493L311.746 83.0673L313.502 72.8573L306.084 65.6303L316.329 64.1431L320.912 54.855Z"
        fill="#FFB840" />
    <path
        d="M355.761 54.855L360.335 64.1431L370.589 65.6303L363.17 72.8573L364.918 83.0673L355.761 78.2493L346.594 83.0673L348.342 72.8573L340.924 65.6303L351.177 64.1431L355.761 54.855Z"
        fill="#FFB840" />
    <path
        d="M390.599 54.855L395.183 64.1431L405.428 65.6303L398.018 72.8573L399.766 83.0673L390.599 78.2493L381.433 83.0673L383.181 72.8573L375.771 65.6303L386.016 64.1431L390.599 54.855Z"
        fill="#FFB840" />
    <path
        d="M425.439 54.855L430.023 64.1431L440.276 65.6303L432.858 72.8573L434.606 83.0673L425.439 78.2493L416.273 83.0673L418.03 72.8573L410.611 65.6303L420.856 64.1431L425.439 54.855Z"
        fill="#FFB840" />
    <path
        d="M187.538 302.67H33.6053C23.1257 302.67 14.6289 294.173 14.6289 283.693C14.6289 273.214 23.1257 264.717 33.6053 264.717H187.538C198.018 264.717 206.515 273.214 206.515 283.693C206.515 294.173 198.018 302.67 187.538 302.67Z"
        fill="#E09C28" />
    <path
        d="M185.624 296.217H31.6912C21.2116 296.217 12.7148 287.72 12.7148 277.24C12.7148 266.761 21.2116 258.264 31.6912 258.264H185.624C196.104 258.264 204.601 266.761 204.601 277.24C204.601 287.72 196.104 296.217 185.624 296.217Z"
        fill="#44649E" />
    <path
        d="M31.9352 284.65C36.7815 284.65 40.7103 280.721 40.7103 275.875C40.7103 271.029 36.7815 267.1 31.9352 267.1C27.0889 267.1 23.1602 271.029 23.1602 275.875C23.1602 280.721 27.0889 284.65 31.9352 284.65Z"
        stroke="white" stroke-width="2" stroke-miterlimit="10" />
    <path d="M46.2334 290.181L38.1367 282.084" stroke="white" stroke-width="2" stroke-miterlimit="10" />
    <path d="M16.7341 47.1235C16.0209 47.8541 15.3426 48.6107 14.6816 49.376" stroke="#FFDFAB" stroke-width="3"
        stroke-miterlimit="10" />
    <path
        d="M10.9588 54.2723C-6.16514 79.7886 1.32279 117.307 32.8747 122.246C76.9674 129.152 136.497 89.0072 175.293 104.861"
        stroke="#FFDFAB" stroke-width="3" stroke-miterlimit="10" stroke-dasharray="7.07 7.07" />
    <path d="M178.094 106.131C178.998 106.575 179.894 107.062 180.772 107.575" stroke="#FFDFAB" stroke-width="3"
        stroke-miterlimit="10" />
    <path
        d="M110.241 245.741H31.9262C23.7686 245.741 17.1504 239.122 17.1504 230.965V152.65C17.1504 144.493 23.7686 137.874 31.9262 137.874H110.241C118.398 137.874 125.017 144.493 125.017 152.65V230.965C125.017 239.122 118.398 245.741 110.241 245.741Z"
        fill="#E09C28" />
    <path
        d="M105.805 240.862H27.4907C19.3331 240.862 12.7148 234.243 12.7148 226.086V147.771C12.7148 139.614 19.3331 132.996 27.4907 132.996H105.805C113.963 132.996 120.581 139.614 120.581 147.771V226.086C120.581 234.252 113.963 240.862 105.805 240.862Z"
        fill="white" />
    <path
        d="M89.2906 177.932V180.202L78.7936 171.801C72.2102 166.53 67.4965 159.121 65.5223 150.92L64.1482 145.232C63.9656 144.484 63.296 143.953 62.5306 143.953C58.9389 143.953 55.6863 145.362 53.3816 147.928C51.077 150.493 50.016 153.868 50.3986 157.451L51.164 164.695C51.1726 164.817 51.1987 164.939 51.2422 165.052L54.4687 174.644H34.2574C29.8221 174.644 26.2129 178.306 26.2129 182.802C26.2129 186.255 28.3436 189.22 31.344 190.403C30.1004 191.838 29.3437 193.725 29.3437 195.778C29.3437 199.23 31.4744 202.196 34.4748 203.379C33.2312 204.814 32.4746 206.701 32.4746 208.753C32.4746 212.206 34.6053 215.171 37.597 216.354C36.3533 217.789 35.5967 219.676 35.5967 221.729C35.5967 226.225 39.2059 229.886 43.6412 229.886H73.3147C78.811 229.886 84.3161 228.643 89.2819 226.303V228.217H107.076V177.932H89.2906ZM88.3862 223.068C83.7247 225.364 78.5153 226.582 73.3147 226.582H43.6412C41.0496 226.582 38.9363 224.416 38.9363 221.755C38.9363 219.094 41.0496 216.928 43.6412 216.928C44.5631 216.928 45.311 216.18 45.311 215.258C45.311 214.337 44.5631 213.589 43.6412 213.589H40.5104C37.9188 213.589 35.8054 211.423 35.8054 208.762C35.8054 206.101 37.9188 203.935 40.5104 203.935C41.4323 203.935 42.1802 203.187 42.1802 202.265C42.1802 201.344 41.4323 200.596 40.5104 200.596H37.3796C34.7879 200.596 32.6746 198.43 32.6746 195.769C32.6746 193.108 34.7879 190.942 37.3796 190.942C38.3014 190.942 39.0493 190.194 39.0493 189.272C39.0493 188.351 38.3014 187.603 37.3796 187.603H34.2487C31.6571 187.603 29.5438 185.437 29.5438 182.776C29.5438 180.115 31.6571 177.949 34.2487 177.949H56.7647C57.3039 177.949 57.8083 177.688 58.1214 177.253C58.4345 176.819 58.5214 176.253 58.3475 175.749L54.4426 164.13L53.6947 157.068C53.4164 154.442 54.1817 151.981 55.8428 150.128C57.2343 148.589 59.1041 147.624 61.2174 147.345L62.261 151.668C64.4092 160.582 69.5403 168.644 76.6977 174.366L89.2819 184.437V222.59L88.3862 223.068Z"
        fill="#44649E" />
    <path
        d="M127.809 93.5992C152.987 93.5992 173.398 73.1885 173.398 48.0106C173.398 22.8328 152.987 2.42212 127.809 2.42212C102.631 2.42212 82.2207 22.8328 82.2207 48.0106C82.2207 73.1885 102.631 93.5992 127.809 93.5992Z"
        fill="white" />
    <path d="M166.18 51.9503L204.602 79.7626L158.936 71.9529L166.18 51.9503Z" fill="white" />
    <path
        d="M145.055 26.7731C137.107 24.4511 127.81 32.8869 127.81 32.8869C127.81 32.8869 118.513 24.4511 110.564 26.7731C102.615 29.0951 97.7884 39.2008 102.25 49.7674C107.511 62.2386 120.104 70.8049 127.81 75.449C135.515 70.8049 148.108 62.2386 153.369 49.7674C157.822 39.2008 153.004 29.0951 145.055 26.7731Z"
        fill="#C91818" />
    <path d="M20.543 38.8616L25.2827 62.5343L71.6453 2.7265L20.543 38.8616Z" fill="#FFDFAB" />
    <path d="M20.5421 38.8616L71.6444 2.7265L4.72266 23.6944L20.5421 38.8616Z" fill="white" />
    <path d="M25.1348 43.8014L71.6452 2.7265L39.0148 64.7954L25.1348 43.8014Z" fill="white" />
    <path
        d="M289.317 293.712H164.857L151.299 393.725H219.386L222.708 354.876H227.091H231.474L234.788 393.725H302.884L289.317 293.712Z"
        fill="#1B2963" />
    <path d="M294.849 334.483L289.317 293.712H164.858L163.605 302.931C172.928 313.141 209.046 344.44 294.849 334.483Z"
        fill="#141F4A" />
    <path d="M227.092 354.876V307.314" stroke="#090E21" stroke-miterlimit="10" />
    <path d="M218.203 306.253V330.325C218.203 335.465 221.995 339.822 227.091 340.536" stroke="#090E21"
        stroke-miterlimit="10" />
    <path d="M159.883 330.378L160.161 330.317C186.382 324.342 188.539 293.712 188.539 293.712H164.857L159.883 330.378Z"
        fill="#090E21" />
    <path d="M294.275 330.378L293.997 330.317C267.776 324.342 265.619 293.712 265.619 293.712H289.3L294.275 330.378Z"
        fill="#090E21" />
    <path
        d="M321.591 123.673C312.669 109.071 298.154 98.7564 281.421 95.1385L243.416 86.9113L227.084 85.3198L210.751 86.9113L172.746 95.1385C156.022 98.7564 141.499 109.071 132.576 123.673L100.406 176.306L160.484 205.648L162.362 295.617C162.362 295.617 191.244 308.149 227.075 308.149C262.906 308.149 291.788 295.617 291.788 295.617L293.666 205.648L353.743 176.306L321.591 123.673Z"
        fill="#3B8A50" />
    <path
        d="M293.684 205.648L321.165 192.229C321.165 192.229 318.852 179.81 311.669 173.418C308.816 170.887 307.103 167.357 306.79 163.565C306.442 159.364 305.485 155.259 304.268 151.485C302.58 146.284 294.936 147.389 294.814 152.85L293.684 205.648Z"
        fill="#285E37" />
    <path d="M294.014 190.203H160.161L159.631 161.208H294.544L294.014 190.203Z" fill="#4BADB0" />
    <path d="M295.24 130.769L293.684 205.214" stroke="#090E21" stroke-miterlimit="10" />
    <path d="M293.205 228.643H160.97L160.361 199.648H293.813L293.205 228.643Z" fill="#4BADB0" />
    <path
        d="M260.601 90.6335L243.425 86.92L227.092 85.3285L210.759 86.92L193.148 90.7292C197.81 97.4692 213.725 103.766 226.84 103.766C240.024 103.757 256.026 97.3996 260.601 90.6335Z"
        fill="#4BB066" />
    <path d="M348.769 168.131L353.761 176.306L293.684 205.648L293.875 196.039L348.769 168.131Z" fill="#4BB066" />
    <path
        d="M248.069 173.236H222.961C219.065 173.236 215.908 170.079 215.908 166.182V114.628C215.908 110.732 219.065 107.575 222.961 107.575H248.069C251.965 107.575 255.122 110.732 255.122 114.628V166.182C255.131 170.079 251.965 173.236 248.069 173.236Z"
        fill="white" />
    <path
        d="M223.058 125.751C221.179 125.751 219.648 124.22 219.648 122.342V114.958C219.648 113.08 221.179 111.549 223.058 111.549C224.936 111.549 226.467 113.08 226.467 114.958V122.342C226.467 124.22 224.936 125.751 223.058 125.751Z"
        fill="#1B2963" />
    <path
        d="M223.057 116.872C224.065 116.872 224.883 116.054 224.883 115.045C224.883 114.037 224.065 113.219 223.057 113.219C222.048 113.219 221.23 114.037 221.23 115.045C221.23 116.054 222.048 116.872 223.057 116.872Z"
        fill="#090E21" />
    <path
        d="M223.057 124.073C224.065 124.073 224.883 123.255 224.883 122.246C224.883 121.238 224.065 120.42 223.057 120.42C222.048 120.42 221.23 121.238 221.23 122.246C221.23 123.255 222.048 124.073 223.057 124.073Z"
        fill="#090E21" />
    <path
        d="M162.587 329.673C174.963 325.925 181.477 316.437 184.886 308.14L161.996 298.974L147.481 226.903L158.265 204.553L109.372 180.68L100.666 202.9C94.6134 218.354 96.8398 235.826 106.571 249.272L151.29 311.027L162.587 329.673Z"
        fill="#FF6B6B" />
    <path d="M144.342 209.318L147.481 226.903" stroke="#7D2929" stroke-miterlimit="10" />
    <path
        d="M112.459 199.282L155.213 210.884L158.265 204.553L109.372 180.68L106.624 187.698C104.736 192.525 107.45 197.926 112.459 199.282Z"
        fill="#ED4E4E" />
    <path
        d="M321.165 192.229L278.003 159.164L256.235 131.1C254.983 129.482 253.095 128.482 251.06 128.351L226.466 126.708V133.387L245.364 135.987L224.439 143.223L226.466 159.477L231.545 158.434L232.562 164.365L241.833 162.878L253.148 168.139C253.148 168.139 256.852 175.488 264.088 174.375C264.088 174.375 291.222 229.486 304.519 248.837C317.817 268.178 338.037 272.214 354.891 260.725C372.624 248.637 365.867 214.85 362.753 205.657C357.518 190.203 350.056 178.114 350.056 178.114L321.165 192.229Z"
        fill="#FF6B6B" />
    <path
        d="M357.632 192.742C353.666 183.967 350.057 178.097 350.057 178.097L321.166 192.221L330.402 199.213C335.742 203.257 343.099 203.326 348.509 199.378L357.632 192.742Z"
        fill="#ED4E4E" />
    <path d="M313.217 186.211L345.621 210.745" stroke="#7D2929" stroke-miterlimit="10" />
    <path d="M245.355 135.979L248.191 134.97L259.931 146.693" stroke="#7D2929" stroke-miterlimit="10" />
    <path d="M225.404 150.954L245.955 145.458L259.009 153.676" stroke="#7D2929" stroke-miterlimit="10" />
    <path d="M231.545 158.416L244.373 155.529L255.131 159.703" stroke="#7D2929" stroke-miterlimit="10" />
    <path
        d="M160.492 205.648L133.01 192.229C133.01 192.229 135.323 179.81 142.507 173.418C145.359 170.887 147.072 167.357 147.386 163.565C147.733 159.364 148.69 155.259 149.908 151.485C151.595 146.284 159.239 147.389 159.361 152.85L160.492 205.648Z"
        fill="#285E37" />
    <path d="M105.406 168.131L100.414 176.306L160.491 205.648L160.3 196.039L105.406 168.131Z" fill="#4BB066" />
    <path d="M158.936 129.899L160.492 204.344" stroke="#090E21" stroke-miterlimit="10" />
    <path
        d="M242.928 86.9113L241.745 66.9783H226.839H211.941L210.759 86.9113L197.035 89.8247C200.897 95.4602 215.133 100.8 226.839 100.8C238.545 100.8 252.79 95.4602 256.643 89.8247L242.928 86.9113Z"
        fill="#FF6B6B" />
    <path
        d="M242.527 80.2235L241.744 66.9783H226.838H211.94L211.645 71.8833C216.149 81.2497 225.185 83.2413 230.864 83.2413C234.134 83.25 238.535 82.5803 242.527 80.2235Z"
        fill="#ED4E4E" />
    <path d="M213.969 90.8944L224.44 95.7124" stroke="#7D2929" stroke-miterlimit="10" />
    <path
        d="M226.841 17.1805C213.361 17.1805 202.994 18.8938 202.994 18.8938C202.994 18.8938 203.612 34.9307 205.012 52.4808C206.482 70.8832 219.483 74.214 226.841 74.214C234.189 74.214 247.2 70.8832 248.67 52.4808C250.07 34.922 250.687 18.8938 250.687 18.8938C250.687 18.8938 240.321 17.1805 226.841 17.1805Z"
        fill="#FF6B6B" />
    <path
        d="M257.626 19.8765C257.626 15.8586 255.06 12.4408 251.477 11.1624C250.425 5.9008 244.276 2.97868 239.884 5.50075C238.762 0.41313 229.97 -1.91761 226.465 1.88289C222.96 -1.90891 214.168 0.41313 213.046 5.50075C208.654 2.97868 202.506 5.9008 201.453 11.1624C197.87 12.4408 195.305 15.8586 195.305 19.8765C195.305 23.0161 196.87 25.7903 199.262 27.4601L202.34 43.8709L204.149 44.4797L206.671 28.8864C209.88 28.1385 212.455 25.7295 213.42 22.6073C215.925 24.2771 221.082 26.4687 226.465 21.355C231.849 26.4687 237.006 24.2771 239.51 22.6073C240.476 25.7295 243.05 28.1385 246.259 28.8864L248.781 44.4797L250.59 43.8709L253.669 27.4601C256.06 25.7903 257.626 23.0161 257.626 19.8765Z"
        fill="#090E21" />
    <path
        d="M217.517 51.8024C221.662 51.8024 225.022 48.2474 225.022 43.8622C225.022 39.477 221.662 35.9221 217.517 35.9221C213.372 35.9221 210.012 39.477 210.012 43.8622C210.012 48.2474 213.372 51.8024 217.517 51.8024Z"
        stroke="white" stroke-miterlimit="10" />
    <path
        d="M236.164 51.8024C240.309 51.8024 243.669 48.2474 243.669 43.8622C243.669 39.477 240.309 35.9221 236.164 35.9221C232.018 35.9221 228.658 39.477 228.658 43.8622C228.658 48.2474 232.018 51.8024 236.164 51.8024Z"
        stroke="white" stroke-miterlimit="10" />
    <path d="M224.961 42.8708H228.718" stroke="white" stroke-miterlimit="10" />
    <path d="M210.273 42.0446H201.959" stroke="white" stroke-miterlimit="10" />
    <path d="M251.721 42.0446H243.416" stroke="white" stroke-miterlimit="10" />
    <path
        d="M226.467 44.4884C226.467 44.4884 226.467 47.08 226.467 49.0368C226.467 51.8024 224.562 53.6113 224.562 53.6113H228.667"
        stroke="#7D2929" stroke-miterlimit="10" />
    <path
        d="M216.943 49.0455C218.005 49.0455 218.865 48.185 218.865 47.1235C218.865 46.062 218.005 45.2015 216.943 45.2015C215.882 45.2015 215.021 46.062 215.021 47.1235C215.021 48.185 215.882 49.0455 216.943 49.0455Z"
        fill="#090E21" />
    <path
        d="M236.746 49.0455C237.808 49.0455 238.668 48.185 238.668 47.1235C238.668 46.062 237.808 45.2015 236.746 45.2015C235.685 45.2015 234.824 46.062 234.824 47.1235C234.824 48.185 235.685 49.0455 236.746 49.0455Z"
        fill="#090E21" />
    <path d="M218.865 53.9679C218.865 53.9679 222.761 59.2729 232.928 56.8378" stroke="#7D2929"
        stroke-miterlimit="10" />
    <path d="M217.865 54.7332L220.135 53.1243" stroke="#7D2929" stroke-miterlimit="10" />
    <path d="M211.072 33.7914C215.621 30.6779 222.039 32.1825 224.352 35.5742" stroke="#090E21" stroke-width="2"
        stroke-miterlimit="10" />
    <path d="M242.606 33.7914C238.058 30.6779 231.64 32.1825 229.326 35.5742" stroke="#090E21" stroke-width="2"
        stroke-miterlimit="10" />
    <path
        d="M226.841 62.6821C228.171 62.6821 229.25 62.1642 229.25 61.5254C229.25 60.8866 228.171 60.3687 226.841 60.3687C225.51 60.3687 224.432 60.8866 224.432 61.5254C224.432 62.1642 225.51 62.6821 226.841 62.6821Z"
        fill="#ED4E4E" />
    <path
        d="M202.307 56.7117C205.983 55.8109 208.008 51.1815 206.83 46.3716C205.651 41.5617 201.715 38.3928 198.039 39.2936C194.363 40.1944 192.338 44.8238 193.517 49.6337C194.695 54.4435 198.631 57.6125 202.307 56.7117Z"
        fill="#FF6B6B" />
    <path d="M196.332 45.0798C197.897 40.6966 202.933 41.6359 204.603 48.0106" stroke="#7D2929"
        stroke-miterlimit="10" />
    <path
        d="M260.179 49.6421C261.358 44.8323 259.333 40.2028 255.657 39.3021C251.981 38.4013 248.045 41.5702 246.866 46.3801C245.688 51.1899 247.713 55.8193 251.389 56.7201C255.065 57.6209 259.001 54.452 260.179 49.6421Z"
        fill="#FF6B6B" />
    <path d="M257.347 45.0798C255.781 40.6966 250.746 41.6359 249.076 48.0106" stroke="#7D2929"
        stroke-miterlimit="10" />
    <path opacity="0.22"
        d="M450.163 262.647L446.311 257.794L391.712 189.003L391.051 188.168C390.521 187.507 389.886 186.933 389.164 186.489L374.136 177.262C373.823 177.071 373.44 177.375 373.553 177.723L379.128 194.456C379.398 195.265 379.806 196.012 380.328 196.682L380.989 197.517L435.588 266.309L439.44 271.161C441.788 274.127 446.102 274.623 449.059 272.266C452.016 269.918 452.512 265.613 450.163 262.647Z"
        fill="black" />
    <path
        d="M373.607 177.801L381.051 193.786C381.408 194.551 381.904 195.256 382.504 195.856L391.722 205.074L401.402 195.395L392.183 186.176C391.583 185.576 390.879 185.089 390.114 184.724L374.129 177.28C373.798 177.114 373.45 177.462 373.607 177.801Z"
        fill="#FF6B6B" />
    <path
        d="M385.704 189.368C383.034 192.038 381.938 195.282 383.26 196.604L445.355 258.699L455.034 249.019L392.939 186.924C391.617 185.602 388.374 186.689 385.704 189.368Z"
        fill="#44649E" />
    <path
        d="M376.868 180.532C377.355 180.045 377.851 179.619 378.355 179.245L374.129 177.28C373.798 177.123 373.45 177.471 373.607 177.801L375.572 182.028C375.955 181.515 376.381 181.019 376.868 180.532Z"
        fill="#090E21" />
    <path d="M385.443 192.873L444.321 251.75" stroke="white" stroke-miterlimit="10" />
    <path d="M389.199 189.107L448.085 247.993" stroke="white" stroke-miterlimit="10" />
    <path
        d="M447.799 251.463C445.129 254.133 444.034 257.377 445.356 258.699L449.73 263.073C452.4 265.743 456.74 265.743 459.41 263.073C462.08 260.403 462.08 256.064 459.41 253.394L455.035 249.019C453.713 247.697 450.478 248.793 447.799 251.463Z"
        fill="white" />
    <path
        d="M142.445 334.265C134.4 335.944 132.139 338.196 130.469 346.241C130.296 347.067 129.113 347.067 128.939 346.241C127.26 338.196 125.008 335.935 116.963 334.265C116.137 334.091 116.137 332.908 116.963 332.735C125.008 331.056 127.269 328.804 128.939 320.759C129.113 319.933 130.296 319.933 130.469 320.759C132.148 328.804 134.4 331.065 142.445 332.735C143.271 332.908 143.271 334.1 142.445 334.265Z"
        fill="white" />
    <path
        d="M298.812 17.9458C290.768 19.6243 288.506 21.8768 286.837 29.9213C286.663 30.7475 285.48 30.7475 285.306 29.9213C283.628 21.8768 281.375 19.6156 273.331 17.9458C272.504 17.7719 272.504 16.5891 273.331 16.4152C281.375 14.7367 283.636 12.4842 285.306 4.43971C285.48 3.61352 286.663 3.61352 286.837 4.43971C288.515 12.4842 290.768 14.7454 298.812 16.4152C299.638 16.5891 299.638 17.7719 298.812 17.9458Z"
        fill="white" />
    <path
        d="M447.127 298.565C440.282 299.991 438.369 301.913 436.943 308.749C436.795 309.453 435.786 309.453 435.638 308.749C434.212 301.904 432.29 299.991 425.454 298.565C424.75 298.417 424.75 297.408 425.454 297.26C432.298 295.834 434.212 293.912 435.638 287.076C435.786 286.372 436.795 286.372 436.943 287.076C438.369 293.921 440.291 295.834 447.127 297.26C447.831 297.408 447.831 298.417 447.127 298.565Z"
        fill="white" />
    <path
        d="M348.062 21.2245C343.557 22.1637 342.288 23.4248 341.348 27.9384C341.253 28.3993 340.583 28.3993 340.487 27.9384C339.548 23.4335 338.287 22.1637 333.773 21.2245C333.313 21.1288 333.313 20.4592 333.773 20.3635C338.278 19.4243 339.548 18.1632 340.487 13.6496C340.583 13.1887 341.253 13.1887 341.348 13.6496C342.288 18.1545 343.549 19.4243 348.062 20.3635C348.532 20.4592 348.532 21.1288 348.062 21.2245Z"
        fill="white" />
    <path
        d="M66.5564 94.9645C62.0515 95.9037 60.7817 97.1648 59.8425 101.678C59.7468 102.139 59.0771 102.139 58.9815 101.678C58.0422 97.1735 56.7812 95.9037 52.2676 94.9645C51.8066 94.8688 51.8066 94.1992 52.2676 94.1035C56.7725 93.1642 58.0422 91.9032 58.9815 87.3896C59.0771 86.9287 59.7468 86.9287 59.8425 87.3896C60.7817 91.8945 62.0428 93.1642 66.5564 94.1035C67.026 94.2079 67.026 94.8688 66.5564 94.9645Z"
        fill="white" />
    <path
        d="M86.2712 320.568C81.7663 321.507 80.4966 322.768 79.5573 327.282C79.4616 327.743 78.792 327.743 78.6963 327.282C77.7571 322.777 76.496 321.507 71.9824 320.568C71.5215 320.472 71.5215 319.802 71.9824 319.707C76.4873 318.767 77.7571 317.506 78.6963 312.993C78.792 312.532 79.4616 312.532 79.5573 312.993C80.4966 317.498 81.7576 318.767 86.2712 319.707C86.7322 319.802 86.7322 320.472 86.2712 320.568Z"
        fill="white" />
</svg>