<svg width="81" height="82" viewBox="0 0 81 82" fill="none" xmlns="http://www.w3.org/2000/svg">
    <path
        d="M41.4538 15.673L34.7226 18.5282L32.4081 13.0718C31.8498 11.7557 30.325 11.1398 29.008 11.6985L13.9826 18.0721C12.6656 18.6308 12.0488 20.1551 12.607 21.4712L14.9216 26.9277L8.19053 29.783C5.59657 30.8833 4.38124 33.8864 5.48085 36.4786L13.6218 55.6703C14.7214 58.2625 17.7253 59.4758 20.3193 58.3754L53.5845 44.2646C56.1785 43.1642 57.3938 40.1612 56.2942 37.5689L48.1532 18.3773C47.0516 15.7859 44.0477 14.5726 41.4538 15.673ZM29.843 20.5982L19.8013 24.8578L18.5422 21.8895L28.5839 17.6299L29.843 20.5982ZM14.6057 20.6211C14.5149 20.407 14.6161 20.1612 14.8283 20.0712L29.8536 13.6975C30.0678 13.6066 30.3138 13.7076 30.4037 13.9197L32.7183 19.3761L31.8416 19.748L30.1591 15.7817C29.925 15.2296 29.2866 14.9718 28.7342 15.2061L16.691 20.3147C16.1386 20.549 15.8803 21.1873 16.1145 21.7393L17.797 25.7056L16.9203 26.0775L14.6057 20.6211V20.6211ZM53.6894 38.6715C54.1806 39.8296 53.6375 41.1716 52.4786 41.6632L19.2134 55.7741C18.0545 56.2657 16.7122 55.7235 16.2209 54.5654L8.07997 35.3737C7.58871 34.2156 8.1318 32.8737 9.29068 32.3821L42.5559 18.2712C43.7148 17.7796 45.0571 18.3218 45.5484 19.4799L53.6894 38.6715Z"
        fill="#316FDC" />
    <path
        d="M35.9948 23.819L17.837 31.5214C16.3419 32.1557 15.6409 33.888 16.2747 35.3821L16.3553 35.5721C16.9891 37.0663 18.7218 37.7662 20.217 37.1319L38.3747 29.4295C39.8699 28.7953 40.5709 27.063 39.9371 25.5688L39.8565 25.3788C39.2219 23.8827 37.4899 23.1848 35.9948 23.819ZM37.9348 26.4159C38.1011 26.8079 37.9177 27.2609 37.5254 27.4273L19.3677 35.1298C18.9754 35.2962 18.5222 35.1131 18.3559 34.7211L18.2753 34.5311C18.109 34.139 18.2924 33.686 18.6847 33.5196L36.8424 25.8172C37.2347 25.6508 37.6879 25.8338 37.8542 26.2259L37.9348 26.4159Z"
        fill="#316FDC" />
    <path
        d="M69.1963 35.351L62.1489 33.363L63.762 27.6565C63.951 26.9887 63.8673 26.2902 63.5303 25.685C63.1913 25.0807 62.6381 24.6451 61.972 24.4556L50.4192 21.1998L51.5069 23.764L61.3809 26.5472C61.5263 26.5894 61.6018 26.6895 61.6333 26.747C61.6647 26.8044 61.7119 26.9213 61.6697 27.0666L60.0566 32.7731L59.1396 32.5155L60.3109 28.3676C60.4748 27.7906 60.1374 27.1903 59.5603 27.0268L51.9817 24.8889L53.0695 27.4532L57.9222 28.8215L57.0465 31.9236L54.6832 31.2575L56.0976 34.5918L68.4266 38.0682C69.6316 38.4091 70.334 39.6641 69.9952 40.8698L64.3179 60.9575C64.1526 61.5421 63.7696 62.0255 63.2406 62.3207C62.7125 62.6179 62.0982 62.6897 61.5134 62.5247L32.2124 54.2632L28.0552 56.0266L60.7465 65.2432C61.9056 65.5704 63.0849 65.4667 64.1157 65.0294C65.4907 64.4461 66.5992 63.2679 67.0372 61.7227L72.7146 41.635C73.4785 38.932 71.9002 36.1133 69.1963 35.351Z"
        fill="#316FDC" />
    <path
        d="M60.1174 44.031C60.912 43.694 61.5538 43.0134 61.8057 42.1207L61.861 41.9226C62.303 40.3591 61.3903 38.7308 59.8263 38.2897L57.3531 37.5924C57.6229 38.3677 57.722 39.1635 57.6684 39.9391L59.2352 40.3813C59.4333 40.4365 59.5975 40.5675 59.6993 40.7461C59.8011 40.9248 59.8239 41.1346 59.7686 41.3327L59.7133 41.5308C59.597 41.9413 59.171 42.1786 58.7612 42.0645L57.2939 41.6509C57.0245 42.3575 56.6212 43.0101 56.0989 43.5715L58.1701 44.1561C58.8402 44.3439 59.5229 44.2832 60.1174 44.031Z"
        fill="#316FDC" />
</svg>