<svg width="56" height="61" viewBox="0 0 56 61" fill="none" xmlns="http://www.w3.org/2000/svg">
    <path
        d="M55.9988 13.8238C55.8431 14.9791 55.7233 16.1417 55.527 17.2908C54.4673 23.4941 51.5278 28.6076 46.5739 32.5214C44.2705 34.3419 41.9313 36.1167 39.6056 37.9088C39.3747 38.0878 39.182 38.2063 39.3154 38.5963C40.0465 40.7279 39.5118 42.6496 37.9 44.0986C34.5418 47.1163 30.8428 49.6601 26.6176 51.3485C26.0383 51.5806 25.3912 51.7052 24.7662 51.7472C23.4768 51.8323 22.8481 51.2559 22.5468 49.7637C21.849 50.4636 21.1907 51.1251 20.5299 51.7867C20.0803 52.2372 19.6369 52.6938 19.1763 53.1332C18.6896 53.5973 18.1462 53.6269 17.7621 53.2357C17.3817 52.8481 17.4163 52.3014 17.893 51.8225C19.6876 50.0155 21.518 48.2432 23.2767 46.4029C23.8584 45.7944 24.2672 45.0193 24.6896 44.4133C23.3916 43.2951 22.1898 42.2595 21.0029 41.2376C19.8568 41.7239 18.6859 42.2645 17.4805 42.715C16.9544 42.9112 16.3603 42.9902 15.7959 43.0013C14.6411 43.0248 13.8556 42.2312 13.8519 41.0784C13.8469 39.6602 14.4496 38.4149 15.04 37.1732C15.25 36.7314 15.4871 36.3019 15.6822 35.9242C14.6201 34.6961 13.5925 33.5088 12.4587 32.198C11.8955 32.5769 11.1051 32.9583 10.5085 33.5384C7.91609 36.0562 5.38295 38.6358 2.82141 41.1858C1.9198 42.0843 1.59127 43.1285 2.07172 44.3257C2.74854 46.0129 4.88151 46.5165 6.28085 45.334C6.84405 44.8576 7.33313 44.2936 7.9025 43.8258C9.35125 42.6348 11.457 42.7532 12.781 44.0652C14.1186 45.3896 14.2817 47.568 12.9997 48.9763C11.4953 50.6302 9.87245 52.1767 8.29279 53.7627C7.58385 54.4749 7.19357 55.2956 7.38624 56.3151C7.77159 58.3578 10.1207 59.2378 11.7275 57.9184C12.3759 57.3864 12.9416 56.7533 13.5419 56.1645C13.9519 55.7609 14.3496 55.345 14.7658 54.9488C15.2537 54.4835 15.7909 54.4526 16.1775 54.8476C16.569 55.2475 16.5357 55.7634 16.0528 56.2583C15.2784 57.052 14.5089 57.8517 13.6962 58.6059C13.1899 59.0761 12.6563 59.5538 12.0548 59.8784C10.1701 60.8979 7.85187 60.3536 6.46982 58.6392C5.16064 57.0137 5.11371 54.5761 6.51922 53.0222C8.03219 51.3485 9.68842 49.8045 11.2483 48.1728C11.5731 47.8334 11.8584 47.3804 11.9696 46.9324C12.1586 46.1709 11.7423 45.4476 11.068 45.0761C10.3899 44.7034 9.60938 44.77 9.00542 45.2995C8.4657 45.7734 7.98278 46.3116 7.43194 46.7707C5.61638 48.2827 2.97085 48.1481 1.3282 46.4868C-0.300859 44.8391 -0.47624 42.2015 1.05155 40.444C2.20758 39.1135 3.50564 37.9076 4.74936 36.6536C5.50028 35.897 6.26727 35.1565 7.10588 34.3308C6.9058 34.2863 6.80452 34.2641 6.70325 34.2419C5.41753 33.958 4.76912 32.9361 5.17423 31.5093C5.5361 30.238 5.99184 28.9643 6.60815 27.7992C8.22362 24.7444 10.1442 21.8797 12.4476 19.2915C14.0272 17.5167 15.9601 16.765 18.308 17.571C18.7242 17.7142 18.8156 17.4426 18.9786 17.2316C20.6781 15.042 22.3739 12.8512 24.0672 10.6568C28.4294 5.00146 34.2207 1.92325 41.2754 1.11112C44.0655 0.79022 46.8543 0.768003 49.6221 1.26047C52.9296 1.8492 55.4455 4.65093 55.7678 7.99573C55.832 8.66716 55.9222 9.33488 56 10.0051C55.9988 11.2776 55.9988 12.5501 55.9988 13.8238ZM16.7098 34.1765C17.0964 33.5865 17.4187 33.0348 17.7992 32.5275C18.9552 30.986 20.0655 29.4 21.3241 27.9448C22.6382 26.4267 24.3623 25.6689 26.3977 26.1379C28.4912 26.6192 29.9214 27.9547 30.5958 29.9899C31.3257 32.1931 30.5933 34.0827 28.9284 35.5305C27.3537 36.8992 25.611 38.0767 23.9362 39.3282C23.5497 39.617 23.131 39.8651 22.6888 40.1589C23.1705 40.6427 23.5842 41.0969 24.0375 41.5091C25.9037 43.2062 28.217 43.4568 30.3067 42.03C33.9996 39.5072 37.6703 36.9474 41.2792 34.3073C43.3467 32.7941 45.3747 31.1983 47.2446 29.4506C50.8954 26.0391 52.9061 21.7193 53.7633 16.8317C53.8337 16.4268 53.6855 16.1874 53.4199 15.9233C50.1593 12.6784 46.9086 9.42498 43.6554 6.17275C42.9823 5.50009 42.8872 4.98665 43.3454 4.53738C43.7876 4.10416 44.3137 4.21401 44.9856 4.88544C47.8189 7.71556 50.6509 10.5469 53.4842 13.3758C53.641 13.5325 53.8053 13.6807 54.014 13.8769C54.056 13.7004 54.1103 13.5869 54.1066 13.477C54.0412 11.6133 54.0869 9.73478 53.867 7.88835C53.5694 5.38778 51.7489 3.49691 49.259 3.07727C45.8897 2.50952 42.508 2.63418 39.1561 3.31054C33.4611 4.46086 28.9136 7.39836 25.3529 11.9873C21.702 16.691 18.082 21.4107 14.8844 26.4403C14.0606 27.7362 13.7296 29.0951 14.089 30.6021C14.4533 32.1326 15.5908 33.0953 16.7098 34.1765ZM15.6217 41.0537C15.681 41.1154 15.7403 41.1759 15.7983 41.2376C16.3603 41.0858 16.9507 40.9982 17.4817 40.7711C21.266 39.1505 24.6155 36.8425 27.7168 34.1629C28.4628 33.5186 28.9642 32.6942 29.0013 31.6648C29.0544 30.1936 28.0589 28.7372 26.5954 28.1213C25.2504 27.556 23.8164 27.8782 22.7147 29.142C20.0099 32.2474 17.6929 35.6156 16.0738 39.422C15.8539 39.9379 15.7687 40.5094 15.6217 41.0537ZM17.5101 19.2409C17.2248 19.1878 17.0334 19.136 16.8395 19.12C15.6007 19.0151 14.6275 19.5803 13.8803 20.4739C12.8169 21.7464 11.7955 23.0609 10.8407 24.4173C9.4834 26.3452 8.22486 28.3435 7.35907 30.5515C7.13552 31.123 7.01943 31.7364 6.82181 32.4486C7.23433 32.3942 7.47023 32.4128 7.66413 32.3301C8.95973 31.7784 10.243 31.1946 11.5398 30.6453C12.0017 30.4503 12.1635 30.1701 12.1203 29.6616C12.0215 28.4916 12.2253 27.3437 12.844 26.3489C14.1001 24.3322 15.429 22.3599 16.7308 20.3715C16.963 20.0173 17.2125 19.6717 17.5101 19.2409ZM24.387 49.8242C24.4525 49.8872 24.518 49.9514 24.5834 50.0143C25.1837 49.8341 25.8024 49.6996 26.3792 49.4638C29.4249 48.2197 32.1087 46.3659 34.7036 44.3837C35.5768 43.7172 36.3981 42.9557 37.1281 42.1349C37.795 41.3845 37.9346 40.4366 37.6246 39.3813C37.3751 39.5455 37.1886 39.6652 37.0046 39.7886C35.2508 40.9661 33.4932 42.1374 31.7456 43.3247C30.2956 44.3096 28.7357 44.886 26.9498 44.7589C26.7658 44.7453 26.4731 44.9058 26.3879 45.0687C25.8284 46.1375 25.2837 47.2175 24.7934 48.3197C24.5846 48.7887 24.518 49.3207 24.387 49.8242Z"
        fill="#316FDC" />
    <path
        d="M28.9533 19.1409C28.9224 14.2941 32.8475 10.3445 37.7347 10.305C42.57 10.2655 46.5358 14.2052 46.5766 19.0879C46.6161 23.9224 42.6725 27.8855 37.7878 27.9164C32.9352 27.9485 28.9842 24.0248 28.9533 19.1409ZM37.7742 26.07C41.6338 26.0576 44.7598 22.9202 44.7289 19.0879C44.698 15.2494 41.6178 12.1761 37.7816 12.1539C33.9442 12.1317 30.8072 15.2592 30.8022 19.1125C30.7973 22.9671 33.9183 26.0823 37.7742 26.07Z"
        fill="#316FDC" />
    <path
        d="M42.8703 19.1182C42.8715 21.9323 40.536 24.2502 37.7299 24.2193C34.9127 24.1885 32.6562 21.9212 32.6562 19.1195C32.6562 16.3004 34.9942 13.9751 37.7905 14.0122C40.604 14.0504 42.8691 16.3264 42.8703 19.1182ZM37.7719 22.3717C39.5751 22.3643 41.0189 20.9202 41.0214 19.1232C41.0239 17.331 39.5801 15.8771 37.7806 15.8598C35.9638 15.8425 34.4879 17.3236 34.5052 19.1454C34.5224 20.9511 35.9687 22.3791 37.7719 22.3717Z"
        fill="#316FDC" />
</svg>