<svg width="113" height="80" viewBox="0 0 113 80" fill="none" xmlns="http://www.w3.org/2000/svg">
    <path
        d="M16.875 34.625C23.0273 34.625 28.125 29.7031 28.125 23.375C28.125 17.2227 23.0273 12.125 16.875 12.125C10.5469 12.125 5.625 17.2227 5.625 23.375C5.625 29.7031 10.5469 34.625 16.875 34.625ZM95.625 34.625C101.777 34.625 106.875 29.7031 106.875 23.375C106.875 17.2227 101.777 12.125 95.625 12.125C89.2969 12.125 84.375 17.2227 84.375 23.375C84.375 29.7031 89.2969 34.625 95.625 34.625ZM101.25 40.25H90C86.8359 40.25 84.0234 41.6562 81.9141 43.5898C89.1211 47.457 94.043 54.4883 95.2734 62.75H106.875C109.863 62.75 112.5 60.2891 112.5 57.125V51.5C112.5 45.3477 107.402 40.25 101.25 40.25ZM56.25 40.25C66.9727 40.25 75.9375 31.4609 75.9375 20.5625C75.9375 9.83984 66.9727 0.875 56.25 0.875C45.3516 0.875 36.5625 9.83984 36.5625 20.5625C36.5625 31.4609 45.3516 40.25 56.25 40.25ZM69.6094 45.875H68.2031C64.5117 47.6328 60.4688 48.6875 56.25 48.6875C51.8555 48.6875 47.8125 47.6328 44.1211 45.875H42.7148C31.4648 45.875 22.5 55.0156 22.5 66.2656V71.1875C22.5 75.9336 26.1914 79.625 30.9375 79.625H81.5625C86.1328 79.625 90 75.9336 90 71.1875V66.2656C90 55.0156 80.8594 45.875 69.6094 45.875ZM30.4102 43.5898C28.3008 41.6562 25.4883 40.25 22.5 40.25H11.25C4.92188 40.25 0 45.3477 0 51.5V57.125C0 60.2891 2.46094 62.75 5.625 62.75H17.0508C18.2812 54.4883 23.2031 47.457 30.4102 43.5898Z"
        fill="white" />
</svg>