<svg width="40" height="32" viewBox="0 0 40 32" fill="none" xmlns="http://www.w3.org/2000/svg">
    <path
        d="M38.5 12H30V1.5C30 0.6875 29.3125 0 28.5 0L19.5 0C18.625 0 18 0.6875 18 1.5V6H14V1C14 0.5 13.5 0 13 0H12C11.4375 0 11 0.5 11 1V6L7 6L7 1C7 0.5 6.5 0 6 0H5C4.4375 0 4 0.5 4 1L4 6L1.5 6C0.625 6 0 6.6875 0 7.5L0 30C0 31.125 0.875 32 2 32L38 32C39.0625 32 40 31.125 40 30V13.5C40 12.6875 39.3125 12 38.5 12ZM8 25.25C8 25.6875 7.625 26 7.25 26H4.75C4.3125 26 4 25.6875 4 25.25L4 22.75C4 22.375 4.3125 22 4.75 22H7.25C7.625 22 8 22.375 8 22.75V25.25ZM8 19.25C8 19.6875 7.625 20 7.25 20H4.75C4.3125 20 4 19.6875 4 19.25L4 16.75C4 16.375 4.3125 16 4.75 16H7.25C7.625 16 8 16.375 8 16.75V19.25ZM8 13.25C8 13.6875 7.625 14 7.25 14H4.75C4.3125 14 4 13.6875 4 13.25V10.75C4 10.375 4.3125 10 4.75 10H7.25C7.625 10 8 10.375 8 10.75V13.25ZM16 25.25C16 25.6875 15.625 26 15.25 26L12.75 26C12.3125 26 12 25.6875 12 25.25V22.75C12 22.375 12.3125 22 12.75 22H15.25C15.625 22 16 22.375 16 22.75V25.25ZM16 19.25C16 19.6875 15.625 20 15.25 20H12.75C12.3125 20 12 19.6875 12 19.25V16.75C12 16.375 12.3125 16 12.75 16H15.25C15.625 16 16 16.375 16 16.75V19.25ZM16 13.25C16 13.6875 15.625 14 15.25 14H12.75C12.3125 14 12 13.6875 12 13.25V10.75C12 10.375 12.3125 10 12.75 10H15.25C15.625 10 16 10.375 16 10.75V13.25ZM26 19.25C26 19.6875 25.625 20 25.25 20H22.75C22.3125 20 22 19.6875 22 19.25V16.75C22 16.375 22.3125 16 22.75 16H25.25C25.625 16 26 16.375 26 16.75V19.25ZM26 13.25C26 13.6875 25.625 14 25.25 14H22.75C22.3125 14 22 13.6875 22 13.25V10.75C22 10.375 22.3125 10 22.75 10H25.25C25.625 10 26 10.375 26 10.75V13.25ZM26 7.25C26 7.6875 25.625 8 25.25 8L22.75 8C22.3125 8 22 7.6875 22 7.25V4.75C22 4.375 22.3125 4 22.75 4L25.25 4C25.625 4 26 4.375 26 4.75V7.25ZM36 25.25C36 25.6875 35.625 26 35.25 26H32.75C32.3125 26 32 25.6875 32 25.25V22.75C32 22.375 32.3125 22 32.75 22H35.25C35.625 22 36 22.375 36 22.75V25.25ZM36 19.25C36 19.6875 35.625 20 35.25 20H32.75C32.3125 20 32 19.6875 32 19.25V16.75C32 16.375 32.3125 16 32.75 16H35.25C35.625 16 36 16.375 36 16.75V19.25Z"
        fill="white" />
</svg>